<svg xmlns="http://www.w3.org/2000/svg" width="64" height="64" fill="none"><path fill="url(#a)" d="M64 33C64 15.875 50.125 2 33 2S2 15.875 2 33c0 15.472 11.336 28.297 26.156 30.625V41.961h-7.875V33h7.875v-6.83c0-7.769 4.625-12.06 11.709-12.06 3.392 0 6.94.605 6.94.605v7.625h-3.91c-3.85 0-5.051 2.39-5.051 4.841V33h8.597l-1.375 8.961h-7.222v21.664C52.664 61.297 64 48.472 64 33Z"/><defs><linearGradient id="a" x1="33" x2="33" y1="2" y2="63.625" gradientUnits="userSpaceOnUse"><stop stop-color="#5DCFB9"/><stop offset="0" stop-color="#5DCFB9"/><stop offset="1" stop-color="#2A9782"/></linearGradient></defs></svg>