<svg xmlns="http://www.w3.org/2000/svg" width="64" height="74" fill="none"><g clip-path="url(#a)"><path fill="url(#b)" d="M31.996 19.591A16.38 16.38 0 0 0 15.591 36a16.38 16.38 0 0 0 16.405 16.409c9.08 0 16.405-7.326 16.405-16.409a16.381 16.381 0 0 0-16.405-16.409Zm0 27.077c-5.868 0-10.665-4.784-10.665-10.668 0-5.884 4.783-10.668 10.665-10.668 5.883 0 10.666 4.784 10.666 10.668 0 5.884-4.798 10.668-10.666 10.668ZM52.9 18.92a3.818 3.818 0 0 1-3.827 3.827 3.818 3.818 0 0 1-3.826-3.827 3.827 3.827 0 1 1 7.653 0Zm10.865 3.884c-.242-5.126-1.413-9.668-5.168-13.41-3.741-3.741-8.281-4.912-13.407-5.17-5.283-.299-21.117-.299-26.4 0-5.111.244-9.651 1.415-13.406 5.156C1.628 13.122.47 17.663.214 22.79c-.3 5.284-.3 21.122 0 26.406.243 5.126 1.414 9.668 5.169 13.41 3.755 3.741 8.28 4.912 13.406 5.17 5.283.299 21.117.299 26.4 0 5.126-.244 9.666-1.415 13.407-5.17 3.74-3.742 4.911-8.284 5.168-13.41.3-5.284.3-21.108 0-26.392ZM56.94 54.865c-1.113 2.8-3.27 4.956-6.082 6.084-4.212 1.67-14.206 1.285-18.86 1.285-4.655 0-14.664.371-18.862-1.285-2.798-1.114-4.954-3.27-6.082-6.084C5.383 50.652 5.768 40.655 5.768 36c0-4.656-.371-14.666 1.285-18.865 1.114-2.8 3.27-4.956 6.082-6.084 4.212-1.67 14.207-1.285 18.861-1.285 4.655 0 14.664-.371 18.861 1.285 2.799 1.114 4.955 3.27 6.083 6.084 1.67 4.213 1.285 14.21 1.285 18.865 0 4.656.385 14.666-1.285 18.865Z"/></g><defs><linearGradient id="b" x1="31.989" x2="31.989" y1="4" y2="68" gradientUnits="userSpaceOnUse"><stop stop-color="#5DCFB9"/><stop offset="1" stop-color="#2A9782"/><stop offset="1" stop-opacity="0"/><stop offset="1" stop-color="#2A9782"/></linearGradient><clipPath id="a"><path fill="#fff" d="M0 0h64v74H0z"/></clipPath></defs></svg>