<svg xmlns="http://www.w3.org/2000/svg" width="64" height="70" fill="none"><path fill="url(#a)" d="M59.429 4H4.557C2.043 4 0 5.975 0 8.4v52.223c0 2.425 2.043 4.4 4.557 4.4H59.43c2.514 0 4.571-1.975 4.571-4.4V8.4C64 5.975 61.943 4 59.429 4ZM19.343 56.305H9.857V27.183h9.5v29.122h-.014Zm-4.743-33.1c-3.043 0-5.5-2.356-5.5-5.243 0-2.888 2.457-5.244 5.5-5.244 3.029 0 5.5 2.356 5.5 5.244 0 2.901-2.457 5.244-5.5 5.244Zm40.3 33.1h-9.486V42.14c0-3.378-.071-7.723-4.928-7.723-4.943 0-5.7 3.678-5.7 7.478v14.411H25.3V27.183h9.1v3.978h.129c1.271-2.289 4.371-4.7 8.985-4.7 9.6 0 11.386 6.035 11.386 13.88v15.964Z"/><defs><linearGradient id="a" x1="32" x2="32" y1="4" y2="65.023" gradientUnits="userSpaceOnUse"><stop stop-color="#5DCFB9"/><stop offset="1" stop-color="#2A9782"/></linearGradient></defs></svg>