<svg xmlns="http://www.w3.org/2000/svg" width="64" height="52" fill="none"><path fill="url(#a)" d="M57.421 12.95c.04.568.04 1.136.04 1.704 0 17.334-13.197 37.306-37.319 37.306-7.431 0-14.335-2.151-20.142-5.886 1.056.122 2.071.162 3.167.162 6.132 0 11.777-2.07 16.285-5.602-5.767-.121-10.6-3.897-12.264-9.093.812.122 1.624.203 2.477.203 1.178 0 2.355-.162 3.452-.446C7.107 30.08 2.599 24.803 2.599 18.43v-.163a13.213 13.213 0 0 0 5.929 1.665A13.101 13.101 0 0 1 2.68 9.011c0-2.436.65-4.669 1.787-6.617a37.289 37.289 0 0 0 27.046 13.72 14.797 14.797 0 0 1-.325-3.003C31.188 5.886 37.035 0 44.304 0c3.777 0 7.188 1.583 9.584 4.14A25.83 25.83 0 0 0 62.213.975 13.077 13.077 0 0 1 56.446 8.2c2.64-.284 5.199-1.015 7.554-2.03a28.191 28.191 0 0 1-6.579 6.78Z"/><defs><linearGradient id="a" x1="32" x2="32" y1="0" y2="51.96" gradientUnits="userSpaceOnUse"><stop stop-color="#5DCFB9"/><stop offset="1" stop-color="#2A9782"/></linearGradient></defs></svg>