<svg xmlns="http://www.w3.org/2000/svg" width="72" height="64" fill="none"><path fill="url(#a)" d="M68.84 16.51a8.578 8.578 0 0 0-6.035-6.074C57.48 9 36.133 9 36.133 9S14.786 9 9.462 10.436a8.578 8.578 0 0 0-6.035 6.074C2 21.87 2 33.048 2 33.048s0 11.18 1.426 16.539c.786 2.956 3.099 5.187 6.036 5.977C14.786 57 36.133 57 36.133 57s21.348 0 26.672-1.436c2.937-.79 5.25-3.021 6.035-5.977 1.427-5.359 1.427-16.539 1.427-16.539s0-11.18-1.427-16.538ZM29.151 43.2v-20.3l17.843 10.15-17.843 10.15Z"/><defs><linearGradient id="a" x1="36.133" x2="36.133" y1="9" y2="57" gradientUnits="userSpaceOnUse"><stop stop-color="#5DCFB9"/><stop offset="1" stop-color="#2A9782"/><stop offset="1" stop-color="#5DCFB9"/></linearGradient></defs></svg>