<svg xmlns="http://www.w3.org/2000/svg" width="1600" height="882" fill="none"><path fill="#B6C4C0" d="M0 0h1600v882H0z"/><g clip-path="url(#a)"><path fill="#2E3B38" d="M496.969 113.051c-6.78.764-10.027 2.769-10.027 6.207 0 .955-1.432 1.337-5.252 1.337-3.724 0-5.348.382-6.016 1.528-.477.954-3.056 2.005-6.016 2.482-2.865.573-6.876 1.242-8.977 1.624l-3.819.668 3.055.764c1.624.382 3.629 1.719 4.489 2.961 1.814 2.769 4.679 3.724 7.162 2.482 1.337-.764 2.96-.668 5.825.382 6.016 2.101 12.51 1.815 18.717-.955 6.111-2.673 8.976-3.055 8.976-.955 0 4.202-17.953 9.836-24.542 7.735-1.146-.381-3.056-.191-4.106.382-1.719.86-1.814 1.337-.859 2.483 1.909 2.292 8.117 5.157 11.268 5.157 3.342 0 4.584 1.432 2.96 3.342-2.483 2.961-15.852.764-17.189-2.769-.382-1.146-1.432-2.674-2.292-3.342-.859-.669-1.528-2.292-1.528-3.534 0-1.337-.573-2.291-1.336-2.291-.764 0-4.011-1.242-7.163-2.77-6.971-3.247-12.032-2.865-8.499.669.86.859.573 1.146-1.432 1.146-1.432 0-3.438.859-4.584 2.005-1.814 1.814-1.814 2.196-.573 3.438.764.764 3.534 1.814 6.017 2.292 2.578.477 4.965 1.241 5.538 1.814.86.859.573 1.05-3.629 2.292-1.146.382-1.146.955-.286 2.865.955 2.101 1.719 2.483 5.539 2.483 2.96 0 5.252-.669 6.875-1.91 1.337-1.051 2.865-1.91 3.533-1.91 1.624 0 8.977 4.488 10.982 6.684 1.624 1.719 1.624 1.91.096 2.483-1.815.669-6.303-.955-6.303-2.387 0-.478 1.146-.382 2.578.382 3.152 1.623 4.202 1.05 1.624-.955-2.292-1.815-5.252-1.815-7.64-.096-1.814 1.433-1.814 1.433 0 2.77.955.764 1.528 1.814 1.146 2.387-1.05 1.719-2.483 1.337-1.814-.382.477-1.337.286-1.432-1.433-.477-4.87 2.578-2.769 3.246 15.375 4.774 9.549.86 11.841.764 15.088-.477 4.106-1.719 5.061-3.247 1.528-2.578-2.578.477-9.263-2.006-9.263-3.438 0-.573 2.005-1.051 4.584-1.051 6.111-.095 16.425-4.87 16.425-7.83 0-.382-1.528-.764-3.342-.764-2.197 0-3.343-.478-3.343-1.242 0-1.337 3.82-3.533 6.207-3.533.764 0 1.433-.668 1.433-1.432 0-1.719 3.438-1.91 7.257-.478 2.292.86 3.152.669 6.494-1.719 2.196-1.528 7.544-4.679 12.032-6.875 7.162-3.629 7.831-4.202 5.73-4.775-1.528-.382-2.483-.191-2.674.573-.382 1.623-6.016 3.533-7.162 2.387-1.528-1.528.095-2.673 7.258-5.347 3.724-1.433 8.785-3.438 11.172-4.489l4.298-1.814-2.77-2.483c-2.578-2.196-3.438-2.387-8.594-2.005-6.589.573-8.213.191-8.213-1.719 0-.669-.955-1.528-2.101-1.719-4.106-.859-31.799-1.146-38.484-.477ZM631.426 113.91c-.573 2.292-3.725 2.483-8.213.668-1.719-.764-6.207-1.241-10.218-1.241-6.684.095-7.162.286-7.448 2.196-.382 2.483 1.432 2.961 2.292.764.859-2.101 2.578-1.719 5.156.86 1.337 1.528 1.91 2.96 1.528 4.01-.573 1.433-1.814 1.528-10.886 1.146-11.459-.668-12.605-.477-12.605 2.197 0 2.196-3.056 2.483-4.775.382-.669-.764-1.528-1.433-2.005-1.433-.478 0-.86.669-.86 1.433 0 1.146-1.528 1.432-7.353 1.528-9.645.095-14.993 1.623-15.375 4.488-.382 2.387-3.628 5.061-5.443 4.393-.668-.287-1.528-.096-1.91.477-.286.573-1.718 1.051-3.151 1.051-3.724.095-11.459 3.724-9.931 4.679.764.382 3.056.477 5.252 0 2.196-.382 4.297-.478 4.775-.191 1.146.668-3.152 7.639-5.444 8.69-2.005 1.05-4.01 1.528-12.223 3.056-5.539 1.05-10.027 3.246-8.499 4.201.573.382 4.297.955 8.213 1.242 10.791.859 11.65 4.01 1.528 5.634-3.82.573-6.494 2.292-3.629 2.292.764 0 2.005.955 2.769 2.005 1.528 2.387 2.101 2.483 20.34 1.051 15.184-1.146 13.274-1.815 20.341 7.544 6.302 8.403 8.212 11.936 8.785 16.138l.573 4.297 1.337-2.673c1.623-3.247 3.915-3.056 5.157.572 1.146 3.152.095 5.348-3.343 7.067l-2.291 1.241h2.387c2.578 0 8.594 3.247 8.594 4.584 0 .478-.859 1.624-1.91 2.579-2.291 2.1-2.387 3.628-.381 5.347 1.336 1.051 1.05 1.433-1.91 2.961-3.916 2.005-4.775 4.201-1.051 2.482 1.337-.573 2.674-.764 2.961-.477.763.764-1.337 6.303-3.056 8.308-.669.859-1.051 2.483-.764 3.629.477 1.719.955 1.91 2.387 1.05 1.623-.859 1.814-.573 1.814 2.674 0 6.589 8.404 16.902 15.184 18.621 2.674.669 4.297 1.719 4.679 2.865.573 2.292 1.815 2.197 5.634-.764 2.674-2.005 3.152-2.96 3.152-6.493 0-2.197.668-4.871 1.432-5.921.764-.955 1.433-2.578 1.433-3.629 0-2.674 10.981-12.987 13.942-12.987 4.774 0 8.976-2.578 10.791-6.685.955-2.196 2.864-4.583 4.297-5.347a126.95 126.95 0 0 1 5.156-2.77c1.624-.859 5.253-1.432 9.741-1.432 3.915-.096 8.881-.764 10.982-1.528 2.101-.764 6.111-2.101 8.976-2.96 6.207-1.91 4.679-2.961-4.393-3.056-4.488-.096-6.016-.478-6.016-1.433 0-.763.573-1.527 1.337-1.814.764-.286 1.528-1.528 1.719-2.769.191-1.719.955-2.292 3.724-2.483 2.865-.287 3.534.095 4.489 2.196 1.623 3.629 5.825 2.865 4.392-.859-1.05-2.769-6.589-5.348-11.363-5.348-4.393 0-4.489-.095-3.916-2.483.478-1.814.096-2.865-1.528-4.201-2.769-2.197-1.719-3.343 3.056-3.056 3.247.191 3.82 0 3.82-1.624 0-3.055 2.483-2.96 8.976.478 7.353 3.82 8.308 4.011 5.444.955-2.77-2.865-1.91-4.393 2.387-4.393 1.814 0 3.247-.286 3.247-.764-.096-1.623-3.534-4.679-6.016-5.348-3.534-.859-3.247-2.96.573-4.201l3.055-.955-3.533-.096c-1.91-.095-3.82-.573-4.202-1.241-1.241-1.91 2.674-3.724 7.544-3.438 2.674.191 4.393-.095 4.107-.668-.096-.573-.955-.86-1.719-.669-1.624.287-5.539-3.247-5.539-5.061 0-.669-.286-1.91-.573-2.674-.286-.859.764-2.101 2.865-3.342 1.91-1.146 3.438-2.579 3.438-3.152 0-.668.668-2.005 1.623-2.96 1.433-1.623 1.433-1.719-1.337-1.146-1.91.382-3.151.096-3.629-.668-1.241-1.815 2.006-3.534 8.117-4.202 3.056-.382 5.826-1.146 6.017-1.814.286-.669 3.246-2.197 6.493-3.438 5.634-2.006 5.921-2.197 3.724-3.056-1.336-.477-4.774-.668-7.639-.382-15.279 1.623-20.818 2.387-23.11 2.96-2.292.573-2.673.382-2.673-1.337 0-1.909-.478-2.005-7.831-2.005-6.78 0-9.549.573-18.717 3.82-9.836 3.342-13.56 3.915-13.56 1.91 0-.955 13.751-7.162 18.812-8.499 2.197-.573 7.449-1.528 11.746-2.101 4.393-.478 9.168-1.528 10.886-2.292 2.865-1.241 2.674-1.241-3.915-1.146-7.353.191-8.881-.382-6.971-2.674 1.051-1.241.573-1.432-3.82-1.432-2.769 0-10.6.668-17.38 1.528-6.78.859-12.509 1.337-12.891 1.05-1.146-1.146 1.814-3.533 5.347-4.202l3.438-.668-4.775-.669c-2.578-.381-8.117-.763-12.223-.763-6.78-.096-7.544.095-8.021 1.814Zm-61.785 15.374c.573.955-1.051 2.77-2.483 2.77-.286 0-1.05-.382-1.814-.86-1.624-1.05-.478-2.96 1.814-2.96.955 0 2.101.478 2.483 1.05ZM677.74 196.13c-.191.573-.764.955-1.241.955-.478 0-1.051-.382-1.242-.955-.191-.573.382-1.05 1.242-1.05.859 0 1.432.477 1.241 1.05Z"/><path fill="#2E3B38" d="M596.282 114.865a1.742 1.742 0 0 0 .286 2.101c1.337 1.337 4.298.191 3.82-1.432-.573-1.528-3.247-2.006-4.106-.669ZM590.553 116.679c-.669 1.146 1.146 2.292 2.387 1.528 1.051-.668.382-2.387-.955-2.387-.477 0-1.05.382-1.432.859ZM707.438 124.51c-1.051.573-1.051 1.05-.191 1.91 1.145 1.146 4.106.573 4.106-.955 0-1.337-2.388-1.91-3.915-.955ZM967.945 127.184c-.286 1.337-1.05 1.719-2.483 1.337-1.337-.382-2.005-.096-2.005.955 0 1.336 2.578 4.201 3.247 3.437 1.432-1.623 3.247-6.589 2.578-6.971-.477-.286-1.05.287-1.337 1.242ZM980.17 127.183c-.764 1.433.287 2.961 2.006 2.961.859 0 1.336-.669 1.145-1.624-.382-1.909-2.291-2.673-3.151-1.337ZM941.208 128.807c-.764.764.096 2.292 1.337 2.292.478 0 .86-.669.86-1.433 0-1.432-1.146-1.909-2.197-.859ZM956.009 130.24c-1.242.477-3.342.573-4.679.286-1.815-.477-2.292-.286-2.006.669.287.763 1.051 1.336 1.815 1.432.764 0 2.1.382 3.055.764 1.91.859 6.399-.669 6.399-2.196 0-1.337-2.197-1.815-4.584-.955ZM971.67 129.858c-1.05 1.05-.573 2.196.859 2.196.764 0 1.433-.382 1.433-.859 0-1.242-1.528-2.101-2.292-1.337ZM1074.9 129.762c-1.34 1.337-.67 3.342 1.05 3.056.86-.191 1.62-.955 1.62-1.624 0-1.527-1.71-2.387-2.67-1.432ZM536.599 131.099c-1.241.764-1.146.955.286.955.86 0 1.624-.478 1.624-.955 0-1.146-.096-1.146-1.91 0ZM497.16 133.582c-2.578 1.336-4.392 2.673-4.106 2.96.764.764 8.786-2.388 10.123-4.106 1.814-2.101-.669-1.624-6.017 1.146ZM1086.74 133.295c-5.63 2.865-4.96 4.87 1.82 5.252 8.4.478 11.07-2.769 4.87-5.92-2.39-1.242-2.96-1.242-6.69.668ZM927.17 133.391c-4.775 1.528-4.488 4.201.955 6.875 2.292 1.146 4.584 1.91 4.966 1.719 1.337-.859.764-2.101-1.146-2.578-2.197-.573-2.578-3.342-.478-4.106.764-.382 1.433-.955 1.433-1.337 0-1.433-2.388-1.719-5.73-.573ZM984.275 133.2c-1.528.477-2.673 1.527-2.673 2.291 0 .955.668 1.242 2.673.764 4.489-.955 4.966-1.241 4.966-2.769 0-1.623-1.241-1.719-4.966-.286ZM935.86 134.346c-.955 1.146-.86 2.005.477 4.106 2.961 4.679 7.067 6.876 7.067 3.629 0-.86-.86-1.433-2.006-1.433-1.718 0-1.814-.191-.859-1.432 1.528-1.814 5.348-1.814 6.016-.096.478 1.051 1.91 1.337 5.825 1.146 5.921-.286 6.78-.764 5.921-2.96-.478-1.241-.955-1.337-2.578-.477-1.624.859-2.388.764-3.82-.573-1.051-.955-3.438-1.719-5.634-1.719-2.006-.096-4.011-.382-4.393-.86-1.146-1.146-4.87-.764-6.016.669ZM973.102 135.301c-1.241 1.336-1.719 2.578-1.241 2.864 1.528.86 3.724-.286 5.443-2.864 1.337-2.101 1.337-2.292-.286-2.292-.955 0-2.77 1.05-3.916 2.292ZM960.593 134.823c0 1.91 1.91 5.825 2.865 5.825.955 0 4.297-4.584 3.724-5.156-1.051-.955-6.589-1.528-6.589-.669ZM843.804 140.744c-1.623 2.96-1.623 2.96-3.342 1.05-1.623-1.91-8.785-3.82-8.785-2.387 0 .382.477 1.432.955 2.196.573.955.286 2.006-1.146 3.533l-2.006 2.101-2.769-2.292c-3.438-2.864-3.724-2.864-6.78-.477-2.292 1.814-6.398 2.674-6.398 1.241 0-.286.668-1.432 1.623-2.387 1.433-1.623 1.433-1.719-.286-1.719-3.152 0-8.977 1.91-8.977 2.96 0 .573.86.764 1.815.382 1.05-.286 2.1-.095 2.482.478.86 1.337-2.196 4.775-4.106 4.775-1.146 0-1.146.286-.191 1.432 1.337 1.623 3.82 1.91 3.82.478 0-.573.955-.478 2.387.191 2.006.954 3.056.763 6.112-.955 3.438-1.91 6.78-2.006 6.78-.191 0 .477-1.623 1.814-3.533 3.055l-3.629 2.197 2.674.286c1.432.191 2.578.669 2.578 1.146 0 .478-1.146 1.719-2.578 2.769-1.815 1.337-2.197 1.91-1.146 2.006.859 0 2.292.859 3.247 1.91.955 1.05 2.101 1.91 2.483 1.91.381 0 2.1-2.579 3.819-5.635 1.624-3.151 3.82-6.493 4.775-7.353 1.719-1.527 2.101-1.527 5.157-.095 2.292 1.146 3.246 2.101 3.055 3.438-.095 1.05.096 1.91.573 1.91 3.916.382 6.494-.096 6.208-1.051-.191-.573-2.483-2.196-5.157-3.533-2.578-1.337-5.73-3.438-6.876-4.679-1.146-1.146-2.483-2.101-3.056-2.101-.477 0-.954-.382-.954-.86 0-1.719 3.342-2.005 10.599-.955 7.353 1.146 7.353 1.146 11.746-1.623 2.388-1.528 4.393-3.056 4.393-3.342 0-.382-2.292-.955-4.966-1.242-2.769-.382-5.92-.859-6.971-1.146-1.432-.286-2.387.382-3.629 2.579ZM876.654 139.598c-1.624 1.05-.478 2.96 1.814 2.96s3.438-1.91 1.814-2.96c-.764-.478-1.528-.86-1.814-.86-.286 0-1.05.382-1.814.86ZM892.792 141.221c0 .86.477 1.337 1.146 1.146 1.719-.573 2.005-2.674.382-2.674-.86 0-1.528.669-1.528 1.528ZM968.901 140.266c-.764.764.095 2.292 1.337 2.292.477 0 .859-.668.859-1.432 0-1.433-1.146-1.91-2.196-.86ZM1078.53 140.648c-.67 1.051 3.72 2.387 5.16 1.433.57-.287 1.05-.955 1.05-1.528 0-1.146-5.45-1.146-6.21.095ZM1089.42 141.03c-1.82.669-4.49 1.815-6.02 2.674l-2.77 1.433 7.07 1.718c3.91.955 8.97 2.579 11.26 3.534 4.97 2.101 5.83 1.432 5.83-4.584 0-5.157-.76-5.73-3.92-2.674l-2.67 2.578-.95-2.387c-1.15-2.96-3.63-3.724-7.83-2.292ZM428.691 142.081c0 1.528 2.579 3.056 3.534 2.005.668-.668-1.528-3.438-2.674-3.438-.478 0-.86.669-.86 1.433ZM710.113 144.086c-.764.764.095 2.292 1.337 2.292.477 0 .859-.669.859-1.432 0-1.433-1.146-1.91-2.196-.86ZM411.787 147.142c.955.955 1.624 2.196 1.624 2.769s1.05.764 2.483.478c1.719-.287 3.819.573 7.639 3.151 5.443 3.724 6.971 3.915 5.252.573-2.291-4.106-10.695-8.69-16.138-8.69-2.292 0-2.292.095-.86 1.719ZM1110.33 150.198c-3.92 4.201-4.68 6.398-1.91 5.252.86-.287 4.39-1.242 7.83-2.006 3.44-.859 6.59-1.814 7.07-2.292 1.05-.954-4.87-4.774-7.45-4.774-1.05 0-3.44 1.719-5.54 3.82ZM863.666 148.288a1.742 1.742 0 0 0 .286 2.101c1.337 1.336 4.297.191 3.82-1.433-.573-1.528-3.247-2.005-4.106-.668ZM856.695 150.293c.191.573.764.955 1.241.955.478 0 1.051-.382 1.242-.955.191-.573-.382-1.05-1.242-1.05-.859 0-1.432.477-1.241 1.05ZM387.628 153.063c-2.101.668-1.91.764 1.432.955l3.82.095-4.011 2.005c-3.915 1.815-5.538 4.584-2.865 4.584 2.101 0 9.263-5.634 9.263-7.162 0-1.528-3.533-1.814-7.639-.477ZM1083.97 153.158c.19.573.77.955 1.24.955.48 0 1.05-.382 1.25-.955.19-.573-.39-1.051-1.25-1.051s-1.43.478-1.24 1.051ZM1127.9 153.158c.19.573.76.955 1.24.955s1.05-.382 1.24-.955c.19-.573-.38-1.051-1.24-1.051s-1.43.478-1.24 1.051ZM438.144 154.972c1.815 1.528 2.483 1.719 3.629.764 1.241-.955 1.146-1.241-.382-1.814-.955-.382-2.578-.764-3.629-.764-1.814 0-1.719.095.382 1.814ZM706.77 156.023c.191.573.764.955 1.242.955.477 0 1.05-.382 1.241-.955.191-.573-.382-1.051-1.241-1.051-.86 0-1.433.478-1.242 1.051ZM1079.67 155.546c-.76.763.1 2.291 1.34 2.291.48 0 .86-.668.86-1.432 0-1.432-1.15-1.91-2.2-.859ZM378.078 156.882c0 .478.478.955.955.955a.957.957 0 0 0 .955-.955c0-.573-.382-.954-.955-.954a.956.956 0 0 0-.955.954ZM410.164 157.742c-.382.668-.477 1.432-.191 1.719.86.859 1.815-.382 1.337-1.719-.382-1.051-.573-1.051-1.146 0ZM1072.8 157.837c-.38.573-.29 1.528.29 2.101.57.573 1.14.573 1.62-.191.38-.573.28-1.528-.29-2.101-.57-.573-1.14-.573-1.62.191ZM1114.91 160.798c-1.91 2.291-2.29 3.342-1.53 4.679 1.44 2.674 1.25 2.865-3.24 2.865-2.29 0-6.02.668-8.31 1.528-2.67.859-5.54 1.241-7.93.859-2-.286-7.35.191-11.93.955-4.49.859-10.51 1.91-13.37 2.483-2.87.477-6.21 1.528-7.55 2.387l-2.29 1.528 2.01 2.101c3.05 3.247 2.67 5.443-.86 4.679-1.63-.286-6.21-.573-10.32-.668-7.35-.096-7.35-.096-7.64 2.483-.28 2.196.2 2.864 3.06 4.01 3.53 1.528 6.3 5.634 6.3 9.645 0 1.91-.47 2.388-2.38 2.388-2.01 0-2.39-.478-2.39-2.674 0-1.528-.77-3.438-1.63-4.202-2.57-2.292-8.69-3.915-11.93-3.247-1.72.287-3.54.096-4.2-.477-2.96-2.483-1.05.955 2.1 3.915 2.48 2.196 3.15 3.342 2.19 3.82-2.67 1.719-8.88-2.292-10.79-7.067l-1.14-2.865-2.2 3.534c-1.91 3.055-2.01 4.01-1.15 6.589.58 1.623 1.05 3.915 1.05 5.156 0 1.719.67 2.197 4.02 2.77 4.29.764 10.31 5.634 10.31 8.403 0 .86.95 2.197 2.1 2.961 1.62 1.145 1.81 1.814.95 2.673-1.81 1.815-5.82-.668-7.54-4.774-2.77-6.589-4.97-6.589-8.88.191-3.82 6.78-8.98 11.363-11.75 10.504-4.1-1.241-7.44-3.342-7.06-4.488.57-1.815 4.49-1.91 6.4-.191 1.62 1.528 1.81 1.432 3.34-.86 2.67-4.106 3.91-14.037 2.58-20.626-.67-3.152-.96-7.162-.67-8.881.76-3.916-1.05-5.73-5.35-5.253-2.39.191-3.53 1.051-4.97 3.629-.95 1.815-3.052 4.679-4.58 6.207-1.527 1.624-2.769 3.247-2.769 3.534 0 .382 1.719 2.673 3.915 5.156 2.104 2.388 3.724 5.157 3.534 6.016-.48 2.292-4.202 2.388-7.162.287-3.247-2.292-9.168-4.011-13.847-4.011-2.578 0-4.488.764-6.78 2.865-4.011 3.533-7.831 3.915-6.78.764l.573-2.005-3.152 1.814c-1.814 1.05-5.156 2.674-7.448 3.629-4.297 1.623-4.297 1.623-5.921-.478-1.528-2.101-1.623-2.101-5.538-.573-2.197.955-4.775 1.624-5.73 1.624-.955 0-4.011 1.623-6.876 3.628-6.971 4.871-8.403 5.348-10.504 3.438-2.292-2.101-2.292-2.96.191-3.724 1.719-.573 1.814-.859.764-1.814-2.101-1.815-6.494-3.438-7.067-2.579-.191.478 0 2.101.573 3.725.573 1.623.86 4.106.669 5.634-.287 2.387-.764 2.769-4.584 3.151-4.966.668-8.594 2.674-8.594 4.775 0 3.724-3.916 4.774-8.595 2.387-3.342-1.719-3.629-.955-.955 1.91 1.719 1.814 1.815 2.196.573 3.342-2.387 1.91-8.308-1.623-10.6-6.398-1.05-2.196-2.96-5.061-4.201-6.398-2.101-2.196-2.101-2.483-.573-3.056.859-.382 3.819.096 6.493 1.051 8.117 2.96 16.903 2.196 18.908-1.624 1.432-2.578-.477-4.106-11.555-9.454-4.488-2.196-9.263-4.583-10.695-5.252-1.433-.764-5.348-1.337-9.072-1.337-3.629 0-6.971-.286-7.353-.668-.382-.382.286-1.433 1.528-2.388 2.101-1.623 2.101-1.718.286-1.718-1.05 0-2.96-.669-4.201-1.528-1.242-.86-2.483-1.242-2.865-.764-.287.477-1.91.955-3.629.955-2.387.095-2.865-.191-2.483-1.337.478-1.146.096-1.337-1.719-.86-1.241.382-2.96.669-3.82.669-.955 0-1.527.668-1.432 1.623.095 1.433-.668 1.719-4.393 1.719-3.629 0-4.488.286-4.106 1.432.287 1.051-1.05 1.91-5.061 3.152-2.96.859-6.398 1.623-7.544 1.623-1.91 0-2.101.382-1.528 2.865.477 2.674.191 3.056-2.483 4.106-1.719.573-3.247 2.006-3.533 3.056-.287 1.05-2.579 3.151-5.157 4.775-2.578 1.528-4.775 3.724-4.966 4.679-.191 1.241-1.432 2.196-3.342 2.674-3.629.955-3.533.764-1.719 4.202 1.91 3.724 1.815 5.443-.477 7.544-1.624 1.432-2.292 1.527-4.393.668-3.056-1.432-4.202-1.432-4.202 0 0 .668-1.91 2.96-4.393 5.061l-4.392 3.82.859 8.117c.669 7.544.955 8.117 3.056 8.403 3.342.478 6.303-.477 9.645-3.246 1.719-1.528 3.342-2.197 3.82-1.719.955 1.05 5.729 12.701 5.729 14.133 0 .668.669 2.005 1.433 3.247l1.528 2.101 3.533-1.91c1.91-1.051 4.488-1.91 5.634-1.91 2.005 0 2.196-.478 2.196-4.584.096-4.775 1.242-7.066 4.202-8.117.955-.382 1.528-.955 1.242-1.337-.382-.286-.191-1.146.382-1.814.764-.955.573-1.91-.955-3.82-1.337-1.719-2.006-3.915-2.006-6.876 0-3.724.478-4.679 3.629-7.735 2.005-1.909 4.775-4.106 6.112-5.061 1.241-.859 2.865-3.247 3.533-5.538.955-3.152 1.91-4.298 4.584-5.348 2.96-1.242 3.533-1.242 5.634.095 1.241.764 2.292 2.197 2.292 2.961 0 .859-2.388 4.201-5.348 7.353-2.96 3.247-5.73 6.875-6.207 8.117-1.05 2.674-.191 9.072 1.528 11.364 1.146 1.527 1.528 1.527 7.066 0 9.454-2.674 18.24-1.815 18.24 1.623 0 1.432-2.197 1.91-13.083 3.056-6.78.668-8.308 2.483-5.539 6.684 2.865 4.393-.191 9.454-3.342 5.635-1.528-1.91-4.393-1.815-5.157.095-.286.859-.573 2.674-.573 4.202 0 4.011-.859 5.443-4.392 7.639-2.579 1.624-3.534 1.815-5.252.955-1.719-.955-3.152-.668-8.786 1.91l-6.684 3.151-1.624-2.196c-1.528-2.005-1.91-2.101-4.775-1.05-2.578.859-3.628.764-5.443-.478-3.056-1.91-3.438-3.342-2.292-7.544.764-2.865.669-3.533-.573-4.011-2.387-.955-3.151 1.719-2.578 8.404l.573 6.302-3.533.573c-5.539.86-11.937 3.82-11.937 5.444 0 2.578-2.769 5.538-5.634 6.207-1.528.286-3.056 1.241-3.342 1.91-.764 2.196-8.308 7.162-10.696 7.162-1.337 0-2.387.764-2.769 1.91-.478 1.527-1.433 1.909-4.393 1.909-4.584 0-4.775 1.146-.477 3.629 5.92 3.534 9.167 14.229 5.729 19.099-1.528 2.196-1.814 2.196-12.891 1.528l-11.364-.668v6.493c0 3.533-.478 8.117-1.051 10.123-1.528 4.87.191 8.976 4.202 10.313 1.623.573 3.724 1.814 4.679 2.674 1.624 1.432 2.197 1.432 8.977-.669 8.117-2.578 11.841-5.92 11.841-10.6 0-2.196.668-3.246 2.96-4.488 5.253-2.865 8.499-6.016 8.499-8.212 0-3.343 2.961-5.348 7.735-5.348 2.292-.095 5.253-.668 6.589-1.432 4.68-2.674 6.781-1.815 13.37 5.156 3.437 3.534 8.021 7.449 10.218 8.499 4.774 2.483 6.971 5.348 6.971 9.072 0 1.528.382 2.483.955 2.101.573-.286.954-2.769.954-5.348 0-4.488.096-4.679 2.006-3.724 1.05.669 2.196.86 2.483.573.286-.191-2.483-2.387-6.112-4.679-5.252-3.438-7.544-5.634-10.6-10.6-2.196-3.438-4.011-6.589-4.011-7.067 0-.477.86-1.623 1.815-2.482 1.814-1.624 2.101-1.433 7.926 4.01 3.247 3.056 7.926 7.258 10.218 9.359 2.387 2.101 5.061 5.825 6.302 8.69 2.579 5.729 7.067 11.746 8.881 11.746 1.719 0 1.337-1.719-.477-2.197-1.337-.382-1.242-.477.286-.573 1.146 0 2.388.669 2.674 1.528.669 1.624-.859 3.151-2.96 3.151-.669 0-1.242.86-1.242 1.91 0 2.388.478 2.388 4.393-.095 3.915-2.388 4.011-3.915.86-7.735-2.674-3.152-2.674-5.252-.096-4.775.86.191 1.815-.382 2.101-1.241.477-1.051 2.005-1.433 5.634-1.433 6.207 0 8.499-1.814 7.831-6.111-.86-5.444 5.729-17.189 11.077-20.15 4.106-2.196 7.735-.764 6.78 2.77-.382 1.623.096 2.387 2.005 3.246 2.579 1.242 5.253 1.528 5.253.669 0-.287-.669-1.528-1.528-2.865-1.433-2.101-1.337-2.292.955-3.82 3.055-2.005 9.645-2.96 10.504-1.528.382.573-.095 2.388-.955 4.107l-1.623 3.055 6.875 6.303c3.725 3.438 6.78 6.876 6.78 7.735-.095 4.87-9.263 6.207-18.621 2.674-3.438-1.337-6.685-1.814-8.881-1.528-4.775.669-13.178 3.82-15.279 5.73-.955.955-2.674 1.623-3.915 1.623-2.77 0-3.343 2.006-2.388 7.926 1.242 7.162 3.438 8.022 18.526 7.831l11.651-.191-.573 3.915c-1.146 7.544-4.68 17.857-6.972 20.245-1.814 2.005-2.769 2.387-4.87 1.814-1.432-.477-5.347-.668-8.785-.668-4.87.191-8.404-.573-16.425-3.247-5.921-1.91-11.078-3.151-12.128-2.769-1.05.286-2.865 2.387-4.106 4.583-3.343 6.112-3.056 6.112-22.25-3.915l-10.505-5.539v-6.302c0-6.876-.859-8.595-4.392-8.595-8.881-.286-21.678 1.815-32.85 5.157-11.555 3.438-16.712 4.011-16.712 1.719 0-2.006-1.91-.764-3.438 2.101-.859 1.719-3.724 5.156-6.207 7.544-4.106 4.01-4.679 4.965-4.679 8.499 0 5.347-2.196 9.645-6.685 13.273-2.101 1.719-5.538 5.73-7.735 8.977-2.196 3.247-5.061 7.162-6.493 8.594-2.388 2.579-2.483 3.247-3.056 18.144-.382 9.359-1.146 16.712-1.91 18.526-1.05 2.674-1.05 3.247.287 4.775 3.724 4.202 13.178 19.099 13.178 20.722 0 3.151 4.679 8.976 10.122 12.51l5.061 3.438 10.314-.669c6.302-.286 13.56-1.432 18.621-2.865 11.555-3.151 13.369-3.056 17.762 1.337 3.247 3.342 3.82 3.629 6.876 2.961 2.291-.478 4.01-.287 5.538.668 2.006 1.337 2.101 2.005 2.101 14.038v12.7l3.82 5.253c2.196 2.769 4.202 6.207 4.488 7.544.287 1.336 1.528 4.106 2.769 6.207 1.433 2.578 2.388 6.111 2.77 10.982.573 6.398.382 8.021-2.292 15.852-1.624 4.87-2.96 10.122-2.96 11.745 0 1.624 1.241 6.112 2.864 10.027 1.528 3.915 3.438 11.078 4.298 16.043 2.005 11.078 4.201 17.762 9.645 28.553 4.201 8.499 5.156 12.796 3.055 13.56-1.719.573.096 3.629 3.247 5.348 2.101 1.241 3.82 1.241 11.841.191 13.083-1.815 18.622-4.011 23.11-9.263 6.016-7.067 9.645-13.942 11.173-21.009 1.146-5.634 1.91-7.066 5.061-9.931 2.101-1.815 4.011-4.106 4.297-4.966.573-1.719-.573-10.409-1.719-13.465-.764-1.909 4.775-7.83 12.033-12.7 6.302-4.298 7.926-8.308 7.353-18.526-.287-4.488-.955-9.072-1.528-10.218-.573-1.05-1.815-5.252-2.579-9.358-1.432-6.972-1.432-7.736 0-11.746 2.77-6.971 10.409-17.476 17.571-23.874 3.82-3.342 8.404-8.499 10.314-11.459 3.724-5.921 10.791-20.531 10.791-22.441 0-.669.859-2.865 1.814-4.87l1.91-3.629-2.101.477c-1.146.287-6.112 1.337-10.982 2.197-10.313 2.005-12.51 1.432-15.661-4.202-.955-1.815-4.297-6.589-7.448-10.695-3.056-4.107-6.112-8.499-6.781-9.741-.573-1.241-2.1-3.342-3.437-4.679-1.719-1.91-2.483-3.915-2.77-8.117-.668-6.494-4.774-16.998-10.695-26.834-2.483-4.106-4.011-7.831-3.82-9.072.382-2.674 1.815-2.674 3.247.096l1.05 2.1 1.337-2.1c1.337-2.006 1.433-2.006 4.202 2.005 1.528 2.196 3.724 6.876 4.87 10.313 1.433 4.011 2.77 6.589 4.011 6.971 2.005.764 3.629 4.298 4.393 9.836.477 3.534 1.814 5.921 8.117 14.42 2.196 2.96 3.056 5.443 3.82 10.791.955 7.544 2.1 9.74 5.061 9.74 3.056 0 33.423-15.852 38.675-20.245 2.674-2.291 4.966-4.583 4.966-5.156.095-.573 1.146-2.006 2.482-3.247 1.337-1.242 2.388-2.865 2.388-3.629 0-.859.764-2.292 1.719-3.342 1.528-1.815 1.528-1.91-1.624-4.393-5.347-4.011-8.69-7.83-8.69-9.74 0-2.483-.764-2.292-3.151.668-2.005 2.578-8.499 6.016-11.364 6.112-.859 0-2.005-1.146-2.578-2.674-.573-1.432-3.438-7.067-6.303-12.51-5.634-10.409-5.729-12.51-.859-12.51 2.387 0 3.915 1.242 8.308 7.067 3.438 4.488 7.639 6.589 12.987 6.398 3.82-.095 4.775.382 6.78 2.769 2.196 2.579 3.151 2.961 10.504 3.82 4.489.478 10.409.955 13.083.955 4.393 0 5.539.382 8.786 3.342 2.005 1.815 5.154 4.011 7.064 4.775 4.01 1.624 5.16 3.151 3.15 3.915-2 .764-1.91 2.961.19 4.107 2.01 1.05 3.35.382 4.97-2.674 1.72-3.342 2.58-1.146 3.34 8.881.67 8.785 3.44 19.576 5.83 23.014.76 1.05 1.33 2.483 1.33 3.342 0 1.91 8.69 20.054 9.65 20.054.38 0 1.81-2.292 3.25-5.061 1.81-3.82 2.67-7.449 3.24-14.42.39-5.061 1.15-9.645 1.63-10.027.47-.477 3.91-3.342 7.54-6.493 3.72-3.152 9.07-8.595 11.84-11.937 4.49-5.634 5.45-6.303 9.26-6.876 2.3-.286 5.26-1.241 6.5-2.005 2.29-1.528 2.39-1.432 5.16 2.578 8.02 11.651 7.83 11.269 7.83 17.094 0 5.061.19 5.634 2 5.634 1.05 0 3.25-.955 4.87-2.005 3.34-2.483 4.11-1.815 5.06 4.583.29 2.388 1.24 6.016 2.01 8.117.76 2.292 1.33 7.544 1.33 12.796 0 7.64.39 9.645 2.3 13.465 1.33 2.578 2.86 6.303 3.43 8.404 2.2 7.448 10.51 16.425 10.51 11.268 0-4.202-3.34-12.892-6.59-16.807-8.98-11.364-9.74-14.038-6.4-22.059 1.24-3.056 1.82-3.438 4.87-3.438 4.11 0 7.16 1.432 7.16 3.342 0 .764 1.34 2.865 2.87 4.584 1.62 1.814 2.86 4.202 2.86 5.348 0 1.05.39 2.005.86 2.005.58 0 3.73-2.387 7.26-5.348l6.21-5.347-.48-4.87c-1.15-9.836-1.62-11.269-5.83-17.571-6.78-10.123-6.68-9.263-2.19-14.134 4.2-4.583 5.44-5.061 8.5-3.151 1.53.955 2.1.955 2.67.096.77-1.242 9.07-4.489 15.95-6.112 3.91-.955 5.82-2.292 10.79-7.353 3.25-3.342 5.92-6.589 5.92-7.258 0-.668 1.53-3.437 3.34-6.302 3.73-6.016 4.01-7.449 1.72-9.072-1.62-1.146-1.62-1.337.1-3.247 1.81-2.005 1.81-2.005-.19-2.005-2.39 0-2.87-2.674-.67-3.438 2.1-.86 1.81-2.196-1.43-7.067-1.53-2.387-2.87-5.156-2.87-6.207 0-2.387 3.82-6.589 7.64-8.594 1.62-.86 2.86-1.624 2.86-1.815 0-.191-1.81-.095-4.01.096-4.77.477-11.07-1.337-12.6-3.724-1.34-2.101 2.86-6.685 9.07-9.836 5.73-2.961 7.26-1.815 4.58 3.437-2.1 4.202-1.52 4.871 1.25 1.337 3.43-4.392 12.22-2.482 10.98 2.388-.38 1.623.19 3.056 2.19 5.443 2.3 2.578 2.87 4.106 2.87 7.448 0 4.68.57 5.062 4.77 2.865 3.63-1.91 3.63-4.011 0-12.891l-2.86-6.972 7.54-8.212c7.45-8.117 7.64-8.213 11.56-7.926 3.34.286 4.49-.096 6.87-2.387 4.11-3.82 11.56-14.229 14.52-20.054 5.06-10.027 6.87-23.969 3.63-27.98-1.63-1.91-2.01-2.005-5.64-.955-3.72 1.146-4.2 1.051-6.87-1.241-1.63-1.337-3.44-2.579-4.11-2.77-2.48-.859 11.27-14.228 22.06-21.486 5.25-3.533 6.4-3.724 14.61-2.578 2.58.286 5.92.095 7.83-.573 2.77-.86 4.68-.764 10.03.573 6.4 1.528 10.31 1.337 9.26-.382-1.62-2.77 11.84-12.605 17.19-12.605 3.72 0 4.68 1.146 3.06 3.724-.67 1.05-.96 2.196-.58 2.483.96 1.05 9.27-4.775 9.74-6.876.58-2.005 4.01-3.915 5.16-2.769.95 1.05-2.48 7.066-5.16 8.881-1.43.955-6.11 5.061-10.5 9.072-4.3 4.106-8.31 7.448-8.79 7.448-1.81 0-4.77 6.207-5.44 11.46-.57 4.488 1.34 18.334 2.67 19.767.58.573 10.22-9.454 9.74-10.123-.76-1.432 3.35-6.78 5.26-6.78 1.43 0 1.91-.668 1.91-2.482 0-3.152 1.62-6.112 3.34-6.112 1.62 0 1.81-1.051.57-2.387-.48-.573-1.14-2.674-1.43-4.775-.67-4.202 1.81-9.645 4.97-10.6.85-.287 2.96-1.146 4.48-1.91 3.92-1.814 13.37-2.865 14.23-1.432 1.15 1.719 4.11 1.241 7.93-1.433 7.64-5.156 13.08-7.353 18.91-7.639 4.68-.191 5.73-.573 6.01-2.006.29-2.482-3.24-7.83-5.92-8.785-2.39-.955-3.91-3.533-2.48-4.393.48-.286 2.77 0 5.25.573 4.87 1.242 7.16.191 7.16-3.342 0-1.051.38-2.579.86-3.342.96-1.528 2.96-.573 2.96 1.336 0 2.006 1.53 2.483 4.2 1.337 2.01-.955 2.77-.764 5.07.955 6.78 5.252 12.89 8.404 11.26 5.825-1.05-1.718 2.2-5.634 5.73-7.066 4.3-1.815 4.21-2.96-.19-5.252-6.59-3.247-7.83-3.343-9.07-.669-1.43 3.247-3.34 3.152-4.11-.286-1.62-7.449-14.99-13.942-34.37-16.712-5.26-.764-10.89-1.719-12.42-2.005-2.96-.669-2.96-.669-2.58 3.247.48 4.679-.38 4.87-8.4 2.005-3.63-1.241-7.93-1.814-13.85-1.91-11.07 0-12.7-.477-14.22-4.297-1.63-3.82-4.11-4.393-16.53-3.629-8.02.478-9.54.287-10.69-1.05-.67-.86-2.1-1.528-3.15-1.528-1.24 0-2.29-1.051-2.96-2.769-1.43-3.82-3.44-4.107-9.65-1.242-5.82 2.578-7.16 2.483-5.25-.668.67-1.051 1.05-2.101.86-2.292-1.15-1.051-17.38-1.242-17.67-.287-.19.573-.57 2.197-.86 3.629-.76 3.533-6.49 5.252-11.17 3.247-2.29-.955-3.82-1.051-5.82-.382-1.53.573-3.82.668-5.26.286-2-.477-2.96-.095-4.68 2.101l-2.1 2.674-3.34-1.719c-4.39-2.387-11.55-9.74-10.79-11.077.38-.573 1.53-1.051 2.58-1.051 2.39 0 2.29-1.432-.29-3.246-2.67-1.91-10.22-2.006-14.51-.191-5.73 2.387-14.9 2.387-17.29-.096-1.91-1.814-11.46-2.101-14.7-.382-1.82 1.051-2.2.764-4.11-3.247-2.2-4.488-4.3-5.347-8.88-3.342-1.72.764-1.72.859-.19.859 2.2.096 7.73 2.961 6.97 3.629-.29.287-1.05.096-1.72-.477-1.15-.86-4.68-1.528-6.87-1.242-.39.096.19.86 1.33 1.815l2.2 1.719-4.39 1.719c-4.49 1.718-11.65 2.291-12.9 1.05-.38-.382.2-1.241 1.25-2.005 6.97-4.966 12.7-8.213 15.94-8.881 4.68-1.051 7.83-3.725 6.4-5.444-.67-.763-.67-1.336.1-1.814 1.72-1.05 1.05-2.387-1.34-2.387-1.34 0-2.67-.478-3.06-1.051-.38-.764-2.96-.859-8.21-.382-5.92.478-8.4.287-11.74-1.05-4.49-1.623-5.26-2.674-2.87-3.629 2.77-1.05 1.43-2.483-2.29-2.483-2.96 0-4.2.573-6.21 2.961ZM877.8 256.387c2.101 2.483 2.101 3.629-.191 3.629-1.051 0-2.483.191-3.152.478-1.718.668-4.106-3.629-3.246-5.73.764-2.006 4.201-1.146 6.589 1.623Zm69.233 74.486c.287 2.292 0 2.674-2.101 2.674-2.196 0-3.629 1.146-4.011 3.342-.095.477-.477 1.623-.859 2.483-.382.955.382 2.674 1.814 4.488 1.433 1.528 2.483 3.629 2.483 4.584 0 1.05.382 2.387.86 3.151.764 1.146 1.146 1.146 2.387.191 1.241-1.05 1.814-1.05 2.96-.096 2.101 1.719 1.815 2.292-1.623 3.629l-3.056 1.146 2.006 2.101c2.769 3.151 3.055 11.65.381 13.083-4.106 2.196-10.408.573-12.509-3.247-.955-1.719-.86-3.151.477-7.353 1.624-5.157 1.624-5.348-.382-8.022-2.292-3.246-5.825-12.7-5.825-15.947 0-4.202 8.499-9.55 14.324-8.977 1.815.096 2.483.764 2.674 2.77Zm25.974 3.915c0 1.91-.763 3.915-1.814 4.87-1.528 1.433-1.814 1.433-2.96.096-1.051-1.242-.955-2.101.286-4.775 2.101-4.393 4.488-4.393 4.488-.191ZM460.871 159.365c-.763.764.096 2.292 1.337 2.292.478 0 .86-.668.86-1.432 0-1.433-1.146-1.91-2.197-.86ZM1093.33 160.32c0 .86.48 1.337 1.15 1.146 1.71-.573 2-2.674.38-2.674-.86 0-1.53.669-1.53 1.528ZM366.333 162.039c-3.056 1.05-7.067 3.247-9.072 4.87l-3.438 2.769 3.247.764c3.056.669 3.629.382 6.016-2.578 2.197-2.578 3.247-3.247 4.966-2.769 1.814.477 2.578 0 3.82-2.388 1.719-3.438 1.814-3.342-5.539-.668ZM1069.07 160.415c-1.05 1.051-.57 2.197.86 2.197.77 0 1.44-.382 1.44-.86 0-1.241-1.53-2.101-2.3-1.337Z"/><path fill="#2E3B38" d="M1131.15 160.415c-1.05 1.051-.58 2.197.86 2.197.76 0 1.43-.382 1.43-.86 0-1.241-1.53-2.101-2.29-1.337ZM380.179 162.803c.573 1.719 2.674 2.005 2.674.382 0-.86-.668-1.528-1.528-1.528-.859 0-1.336.477-1.146 1.146ZM522.753 162.516c-.669 1.146 1.146 2.292 2.387 1.528 1.051-.668.382-2.387-.955-2.387-.477 0-1.05.382-1.432.859ZM854.213 163.28c-1.05 1.051-.573 2.197.859 2.197.764 0 1.433-.382 1.433-.86 0-1.241-1.528-2.101-2.292-1.337ZM1272.48 163.28c-1.05 1.051-.58 2.197.86 2.197.76 0 1.43-.382 1.43-.86 0-1.241-1.53-2.101-2.29-1.337ZM440.628 164.522c-.669 1.05 2.291 2.387 7.544 3.438 3.819.668 6.302 2.578 6.302 4.679 0 1.623 2.961 3.342 5.634 3.342 1.051 0 3.82.669 6.208 1.433 3.437 1.146 6.493 1.337 16.711.668 6.876-.477 12.605-.955 12.796-1.241.191-.191.669-1.624 1.051-3.056.573-2.483.477-2.579-1.242-1.624-1.05.478-8.69 1.051-16.998 1.242-13.178.191-15.47 0-17.762-1.528-1.432-.86-2.578-2.292-2.578-3.056 0-1.337-3.056-2.387-10.504-3.82-1.815-.382-4.011-.859-4.966-1.05-.859-.287-1.814 0-2.196.573ZM992.105 166.527c-2.864 1.051-7.735 2.101-10.79 2.292-3.056.191-8.213 1.241-11.46 2.292-3.247 1.05-7.162 2.005-8.785 2.196-2.292.191-2.77.669-2.579 2.197.096 1.241-.955 3.055-2.673 4.774-3.247 3.152-3.629 4.871-1.146 5.539 1.05.286.668.477-.955.573-1.719.095-3.534 1.241-5.443 3.629-3.534 4.297-3.629 4.87-.764 5.252 1.146.191 2.482 1.241 3.055 2.387.955 2.197 3.056 3.152 7.449 3.152h2.769l-2.483-2.961c-3.915-4.583-3.246-6.78 4.584-14.992 6.016-6.398 8.595-7.831 18.049-10.218 10.504-2.674 19.767-6.016 19.767-7.258 0-1.337-2.769-.955-8.595 1.146ZM1096.19 166.05c0 .859.48 1.336 1.15 1.146 1.72-.573 2.01-2.674.38-2.674-.86 0-1.53.668-1.53 1.528ZM397.942 168.437c-.478 4.584-2.674 5.538-8.117 3.342-12.032-4.584-17.094-4.297-14.706.955.859 1.91 1.432 2.292 2.196 1.528 1.528-1.528 5.73-1.432 7.926.191 1.719 1.241 1.624 1.337-1.05 2.769l-2.77 1.528h2.865c4.202.096 22.728-5.157 23.205-6.398.191-.668-.668-1.146-2.101-1.146-1.718 0-2.864-.859-3.915-2.865-1.91-3.724-3.151-3.628-3.533.096ZM415.035 166.05c-.764.764.095 2.292 1.336 2.292.478 0 .86-.669.86-1.433 0-1.432-1.146-1.91-2.196-.859ZM423.151 166.336c-1.814 1.146.191 4.393 4.393 6.971 2.483 1.528 3.342 1.719 4.488.764 4.489-3.724-3.819-10.982-8.881-7.735Zm4.584 2.483c.669.859.955 1.719.669 2.005-.955 1.051-3.534-.477-3.534-2.005 0-1.814 1.337-1.814 2.865 0ZM1283.36 166.909c0 .859.48 1.432 1.05 1.241.58-.191 1.05-.764 1.05-1.241 0-.478-.47-1.051-1.05-1.242-.57-.191-1.05.382-1.05 1.242ZM1227.5 169.297c-.29.477-.19 1.527.19 2.291 1.05 1.91 3.63.287 2.87-1.719-.67-1.718-2.2-2.005-3.06-.572ZM1236 169.678c-.29.764-.38 2.388-.19 3.629.28 2.292 0 2.197 8.88 1.528 1.05-.095 3.25.191 4.77.669 2.39.573 2.68.477 1.72-.573-.67-.669-1.24-2.197-1.24-3.438 0-2.483-.29-2.578-2.67-1.146-1.34.859-2.39.764-4.78-.478-3.63-1.909-5.82-1.909-6.49-.191ZM1252.8 170.06c0 .478.67 1.433 1.44 2.101 1.62 1.337 5.54.382 4.96-1.241-.38-1.337-6.4-2.101-6.4-.86ZM364.901 171.302c.191.573.764.955 1.241.955.478 0 1.051-.382 1.242-.955.191-.573-.382-1.051-1.242-1.051-.859 0-1.432.478-1.241 1.051ZM417.231 171.111c0 1.432 2.674 3.151 3.82 2.482.764-.477.764-1.05-.095-2.005-1.242-1.432-3.725-1.814-3.725-.477ZM437.476 171.111c.382 1.241 1.719 1.528 1.815.382 0-.382-.478-.86-1.051-1.146-.668-.191-1.05.191-.764.764ZM705.623 172.639c0 .859.478 1.432 1.05 1.241.573-.191 1.051-.764 1.051-1.241 0-.478-.478-1.051-1.051-1.242-.572-.191-1.05.382-1.05 1.242ZM412.17 172.83c-1.146 1.05-.764 2.196.764 2.196.764 0 1.433-.668 1.433-1.432 0-1.528-1.146-1.91-2.197-.764ZM443.301 172.83c-1.91.668-1.433 2.96.668 3.629 2.197.668 3.82-.096 3.82-1.91 0-.955-2.387-2.674-3.151-2.292-.096 0-.764.286-1.337.573ZM1045.11 173.116c-.39.573-.29 1.528.28 2.101.58.573 1.15.573 1.63-.191.38-.573.28-1.528-.29-2.101-.57-.573-1.15-.573-1.62.191ZM1266.65 172.925c.57.478 2.68 1.242 4.78 1.624 2.48.382 3.43.286 2.86-.287-.48-.477-2.67-1.241-4.77-1.623-2.49-.382-3.44-.287-2.87.286ZM710.113 174.644c-.764.764.095 2.292 1.337 2.292.477 0 .859-.669.859-1.433 0-1.432-1.146-1.91-2.196-.859ZM833.204 175.695c-1.05 1.05-.573 2.196.86 2.196.764 0 1.432-.382 1.432-.86 0-1.241-1.528-2.1-2.292-1.336ZM1226.73 178.559c-1.14 1.051-.76 2.197.77 2.197.76 0 1.43-.669 1.43-1.433 0-1.527-1.14-1.909-2.2-.764ZM354.682 179.515c-3.247.859-4.297 2.291-4.297 6.016 0 2.865-.573 4.106-2.578 5.634-1.815 1.337-2.197 1.91-1.146 2.005.859 0 2.292.86 3.247 1.91.954 1.051 2.673 1.91 3.819 1.91s3.247-.859 4.584-1.91c1.337-1.05 2.769-1.91 3.342-1.91.478 0 1.624-.859 2.674-2.005.955-1.146 3.533-2.865 5.634-3.915l3.82-1.815-2.292 2.006c-2.387 2.1-2.005 2.482.955.955 2.006-1.146 2.483-5.253.669-6.399-.669-.382-3.82-1.05-6.971-1.432-3.152-.286-6.59-.859-7.64-1.05-1.05-.287-2.769-.287-3.82 0ZM1245.74 181.233c-.38 1.337-.38 2.865-.1 3.343.77 1.241 8.12 1.241 8.12 0 0-.573-.67-.955-1.43-.955-.86 0-2.49-1.051-3.73-2.388l-2.29-2.387-.57 2.387ZM450.463 181.424c-3.915.573-4.966 2.578-4.011 7.162 1.051 4.87 2.674 5.634 4.011 1.719.573-1.528 1.432-2.865 2.005-2.865 1.528 0 6.781-4.87 6.208-5.825-.478-.859-3.343-.955-8.213-.191ZM1005.95 181.615c-.67 1.146 1.15 2.292 2.39 1.528 1.05-.668.38-2.387-.95-2.387-.48 0-1.05.382-1.44.859ZM430.887 183.525c-3.151 1.242-3.82 1.91-3.151 2.961 1.623 2.578 1.05 3.055-2.578 2.387l-3.438-.669 2.769 2.388c6.016 5.061 8.881 6.302 12.414 5.156 3.629-1.05 4.107-2.864 1.719-6.207-.955-1.432-1.241-3.055-.859-4.965.764-3.438-.573-3.629-6.876-1.051ZM409.019 184.289c-.286 1.05-1.814 2.292-3.342 2.865-1.91.764-2.769 1.719-2.769 3.342 0 4.488-1.528 5.157-4.68 1.91-3.724-3.724-6.875-4.775-8.117-2.769-.764 1.146-1.432 1.241-3.151.382-1.719-.764-2.578-.669-4.106.764-1.624 1.432-1.91 1.528-2.387.191-.382-.764-.478-2.101-.287-2.865.191-.86 0-1.528-.477-1.624-1.051-.095-6.494 2.674-9.072 4.584-1.91 1.528-2.006 2.005-1.051 4.775.573 1.623 1.528 3.151 2.101 3.151.668.096 4.202.191 8.022.287 4.201 0 7.353.573 8.117 1.337 2.005 2.005-.86 3.055-8.499 3.055-7.067 0-9.263 1.242-4.202 2.388 1.528.286 4.106 1.623 5.92 2.96 4.011 2.96 7.449 2.865 16.807-.095 9.168-2.961 10.791-2.961 17.762-.096 2.961 1.241 5.444 1.91 5.444 1.432 0-.382-.382-1.05-.955-1.336-1.719-1.051-.955-3.247 1.527-4.584l2.579-1.337-4.011-.669c-4.775-.764-6.971-2.769-9.167-8.69-1.433-3.628-1.528-5.061-.764-7.257.668-1.815.764-2.96.095-3.342-.477-.287-1.146.286-1.337 1.241ZM1024.29 183.239c-.77.764.09 2.292 1.33 2.292.48 0 .86-.669.86-1.433 0-1.432-1.14-1.91-2.19-.859ZM494.581 185.339c0 2.77.955 3.056 6.589 2.388 4.393-.478 4.87-.764 3.629-2.006-.764-.764-3.438-1.623-5.825-1.814-4.011-.477-4.393-.382-4.393 1.432Z"/><path fill="#2E3B38" d="M465.838 188.3c-3.247 3.247-3.629 3.915-2.865 6.494 1.051 3.724 2.483 6.398 4.202 7.735.764.668 7.735 1.528 16.52 2.005 12.797.764 16.521 1.337 23.588 3.724 9.74 3.247 10.79 4.011 9.358 6.589-.86 1.719-.669 1.91 1.337 1.528 1.91-.382 2.387 0 3.438 3.438 1.05 3.533 1.432 3.915 4.297 3.915 3.724 0 4.775 1.242 2.674 3.247-1.815 1.815-2.292 1.815-4.584.096-2.483-1.91-3.724-1.815-6.398.382-1.814 1.528-2.101 2.1-1.051 3.055 2.101 2.197 1.242 2.77-4.201 2.77-5.921 0-8.977 1.241-8.977 3.533 0 1.241.86 1.432 5.252.859 5.73-.668 10.696.86 14.325 4.202 1.05.955 3.151 2.197 4.583 2.77 1.528.573 2.483 1.432 2.197 1.909-.287.478 1.241 1.051 3.342 1.433 2.101.382 6.016 1.719 8.594 2.96 4.966 2.579 5.73 2.292 3.056-.764-1.337-1.432-1.432-2.005-.477-2.292 2.292-.859 3.82-3.151 3.342-5.156-.286-1.051-2.865-4.489-5.634-7.544-2.865-3.056-5.157-6.017-5.157-6.589 0-.573 1.051-1.719 2.388-2.579 2.673-1.719 2.387-1.814 9.454 3.82 2.864 2.196 3.724 2.483 4.87 1.528.764-.669 1.432-1.719 1.432-2.387 0-.669.955-1.91 2.196-2.674l2.101-1.528-2.387-1.91c-1.337-1.051-2.96-2.005-3.629-2.005-.764 0-2.578-.86-4.011-1.91-1.527-1.051-4.106-2.197-5.92-2.483-3.342-.669-6.494-2.865-6.494-4.488 0-.573.669-1.719 1.528-2.674 1.337-1.433 1.242-1.815-1.337-3.629-1.528-1.051-5.061-2.483-7.735-3.056-2.674-.573-4.87-1.241-4.87-1.623 0-.287.668-1.337 1.623-2.292 1.719-1.91.382-2.388-2.673-.669-2.197 1.146-8.499-.764-8.499-2.578 0-2.005-4.011-4.202-7.735-4.202-2.579 0-3.916.573-4.871 2.101-1.337 2.006-1.719 2.101-4.774.955-1.815-.573-3.916-1.146-4.775-1.146-1.814 0-2.674-1.91-2.674-5.825 0-2.387-.382-2.769-2.674-2.769-5.634 0-9.167 6.016-6.875 11.936.764 1.91.764 2.961 0 3.725-1.624 1.623-4.011-1.719-4.298-6.207-.095-2.292 0-3.056.191-1.624.478 3.343 2.197 3.534 2.197.191 0-2.674-1.528-6.207-3.247-7.257-2.483-1.624-5.73-.669-9.263 2.96Zm73.149 54.909c1.814.764 3.342 1.91 3.342 2.388 0 1.432-.478 1.336-4.775-.86-5.825-2.96-4.679-4.011 1.433-1.528ZM684.615 187.822c2.674 1.624 5.73 2.101 4.297.669-.573-.478-2.196-1.146-3.82-1.528l-2.864-.573 2.387 1.432ZM1391.27 197.467c0 .86.48 1.433 1.05 1.242.58-.191 1.05-.764 1.05-1.242 0-.477-.47-1.05-1.05-1.241-.57-.191-1.05.382-1.05 1.241Z"/><path fill="#2E3B38" d="M443.588 199.091c-2.77 3.915-1.337 7.449 2.96 7.449 2.769 0 2.96 3.056.286 7.353-2.005 3.342-3.628 3.82-6.875 2.101-1.528-.86-3.247-.669-7.449.573-8.021 2.387-16.807 1.718-21.295-1.719-3.533-2.674-9.263-3.438-12.128-1.624-1.241.86-1.241 1.051 0 1.91.764.478 2.006.955 2.77.955 1.05 0 1.05-.286 0-1.623-1.146-1.433-1.146-1.528.382-.955.955.382 2.005.668 2.196.668 1.337 0 0 2.865-1.528 3.342-1.05.287-1.91.86-2.005 1.242-.382 3.629-.86 6.207-1.242 6.685-.286.286-2.196-1.242-4.201-3.438l-3.725-4.011h-7.544c-9.167 0-11.173-.859-8.499-3.82 1.528-1.719 1.624-2.196.478-2.96-.764-.478-3.056-.669-5.157-.382-2.674.382-5.348-.191-9.931-2.005-4.966-2.006-7.353-2.388-11.555-2.101-3.438.286-6.78 0-9.263-.955l-3.82-1.433-9.072 4.966c-8.881 4.775-12.319 5.825-12.319 3.915 0-.477 2.292-2.387 4.966-4.297 5.539-3.724 4.775-4.488-1.337-1.337-2.292 1.146-4.775 1.719-6.016 1.433-2.101-.573-2.196-.478-.955 2.1 2.101 4.393 2.674 9.741 1.146 9.741-1.91 0-3.438-2.006-4.106-5.539-.573-2.674-1.146-3.056-8.595-5.348-9.263-2.96-14.61-4.201-23.3-5.443-3.438-.477-8.69-1.337-11.651-1.814-2.96-.573-6.589-.764-7.926-.382-1.336.286-2.96.095-3.724-.478-2.005-1.718-11.173-3.819-15.374-3.533-2.101.096-4.775.764-5.921 1.337-1.241.669-2.196.955-2.196.573s-.764 0-1.624.764c-.955.859-3.247 2.005-5.157 2.578-1.909.573-4.679 2.388-6.111 3.916-1.528 1.623-3.342 2.864-4.011 2.864-.764 0-2.865.669-4.87 1.528l-3.533 1.528 3.819 3.343c2.101 1.909 6.112 4.488 8.881 5.729 5.253 2.483 6.207 4.297 2.961 6.016-1.433.86-2.961.764-6.207-.382-3.82-1.241-4.68-1.241-8.499.191-4.68 1.719-5.348 2.579-2.388 3.534 1.051.286 1.91 1.146 1.91 1.814 0 3.82 9.741 5.252 14.42 2.196 2.769-1.814 3.724-1.337 3.724 2.006 0 2.865-5.157 7.83-8.022 7.83-1.145 0-3.342 1.242-4.774 2.77-2.197 2.291-2.579 3.342-2.101 5.443.955 3.533 5.634 8.021 8.499 8.021 1.337 0 2.865.669 3.533 1.528 2.101 2.483 7.831 4.393 11.746 3.915 3.342-.477 3.533-.382 3.533 2.292 0 4.011-4.488 8.499-12.319 12.224-6.589 3.246-9.453 5.825-4.106 3.819 11.746-4.488 26.452-15.088 29.412-21.295 3.629-7.639 5.73-10.122 8.595-10.122 2.769 0 2.769 0 .286 4.202-2.1 3.628-1.814 5.443.86 4.679 2.769-.669 4.966-2.865 5.443-5.157.764-3.915 4.393-4.87 7.544-1.91 2.196 2.006 9.931 4.87 13.178 4.87 1.146 0 6.494 1.528 12.033 3.438 5.443 1.815 10.504 3.151 11.268 2.865 1.528-.573 3.247 1.05 6.398 6.112 1.241 1.814 3.82 4.297 5.921 5.443 4.297 2.387 6.302 5.729 6.493 10.982.191 2.769.764 4.201 2.579 5.538 2.1 1.624 2.196 2.101 1.241 3.725-1.05 1.623-.955 1.814.095 1.432.764-.287 2.292-.096 3.343.573 1.623.859 1.814 1.337 1.05 2.96-1.337 2.388-.477 3.725 2.388 3.725 2.864 0 13.082 9.262 14.801 13.369.955 2.292.955 3.151 0 4.297s-1.528 1.241-2.578.382c-.669-.669-1.624-.86-2.006-.478-.382.382-.764 7.735-.955 16.33-.382 16.998.478 22.346 4.011 25.688 1.242 1.05 3.152 4.106 4.202 6.589 2.387 5.443 5.157 9.072 8.499 11.268 1.241.86 2.292 1.91 2.196 2.388-.095.477.86 1.05 2.101 1.337 1.624.382 2.961 2.291 5.061 7.162 1.624 3.724 3.82 8.212 5.062 10.122 1.146 1.91 1.814 4.202 1.527 5.061-.381.955.573 2.77 2.388 4.966 1.623 1.814 3.915 5.252 4.966 7.639 2.005 4.107 6.111 8.022 8.594 8.022.668 0 .096-1.242-1.337-2.674-1.432-1.432-2.578-3.056-2.578-3.438 0-.477-1.624-3.437-3.629-6.684-2.005-3.247-5.061-8.977-6.78-12.797-2.483-5.538-2.865-7.257-2.005-8.308 1.527-1.814 4.488-.286 5.729 2.961 1.051 2.674 10.696 17.38 18.717 28.362 4.202 5.825 5.443 8.212 5.539 11.363.286 5.157 3.342 7.735 17.189 14.706 8.881 4.489 10.981 5.157 15.279 5.062 4.297-.191 5.729.286 11.936 4.201 3.916 2.483 9.072 5.062 11.555 5.921 6.207 2.101 11.46 7.926 11.46 12.892 0 1.528.382 1.814 2.196 1.432 1.719-.477 2.483-.095 3.247 1.719.859 1.814 2.578 2.865 6.493 4.011 5.062 1.432 5.539 1.432 7.162 0 4.011-3.629 8.308 1.337 9.263 10.409.669 6.684.096 8.785-4.201 14.992-6.398 9.263-8.786 18.813-5.253 20.818 1.528.955 1.433 1.241-1.05 3.438l-2.578 2.292 3.724 8.403c2.005 4.584 4.775 11.364 6.112 15.088 6.589 18.24 5.92 17.094 14.324 23.683 4.297 3.438 8.785 7.257 9.931 8.499l2.196 2.292-1.909 27.597c-2.292 33.805-2.292 33.614-5.826 41.731-2.864 6.494-4.201 15.375-3.819 25.593.668 18.144.477 21.773-.86 23.396-1.241 1.528-1.432 1.528-2.483 0-.668-.86-1.623-1.337-2.196-.955-1.719.955-1.146 3.151.859 3.82 2.101.668 6.685 6.207 6.685 7.926 0 .668-.859 1.146-1.814 1.146-1.624 0-1.91.859-2.197 6.398-.191 3.629-.764 7.257-1.146 8.117-.668 1.432-.286 1.719 1.624 1.719 2.96 0 8.594 4.488 7.926 6.302-1.051 2.674 1.241 1.242 3.247-2.005 1.146-1.814 2.387-3.342 2.864-3.342.382 0 .955-1.337 1.337-2.961.287-1.623 1.624-4.201 2.961-5.825 1.337-1.528 2.387-3.247 2.387-3.82 0-.477 1.623-2.864 3.629-5.252 2.483-3.151 3.151-4.583 2.196-4.87-5.348-1.814-6.589-10.122-1.814-12.414 1.91-.86 2.674-2.101 3.151-4.966.382-2.387 1.337-4.202 2.578-4.87 1.719-.955 1.719-1.146.382-3.247-2.291-3.533-2.005-6.207.764-6.207 3.82 0 5.348-1.05 7.353-4.87 1.242-2.579 2.674-3.82 4.489-4.202 12.509-2.674 14.515-3.82 14.515-8.117 0-1.432-1.337-4.393-2.961-6.589-1.623-2.292-2.673-4.297-2.387-4.584.287-.382 2.196.191 4.297 1.051 7.926 3.628 13.847-1.433 23.014-19.386 3.629-7.066 4.011-8.499 3.534-12.605-.573-4.297-.382-4.775 2.769-7.448 1.814-1.624 4.966-3.82 6.876-4.775 2.005-1.051 4.201-2.483 4.87-3.247.668-.859 2.96-1.719 5.156-2.101 6.303-1.05 7.927-2.578 11.173-11.173 2.674-6.684 3.152-9.549 3.629-18.717l.478-10.695 4.488-5.634c6.207-7.735 8.785-13.369 8.403-18.43-.286-3.725-.764-4.393-6.684-8.977-5.825-4.488-6.971-4.966-12.892-5.634-7.353-.764-8.785-1.337-14.038-5.921-2.101-1.719-4.583-3.151-5.634-3.151-1.05 0-3.533 1.528-5.539 3.342-4.106 3.629-5.347 4.011-8.021 2.101-1.623-1.241-1.432-1.432 2.005-3.151 3.725-1.814 5.635-5.157 2.961-5.157-.764 0-3.247 1.528-5.539 3.343-2.292 1.814-4.775 3.342-5.443 3.342-1.719 0 .859-4.679 5.061-9.072l3.342-3.533-1.91-2.483c-1.05-1.242-1.909-3.343-1.909-4.488 0-4.584-8.499-10.982-14.707-10.982-1.432 0-3.724-.573-5.156-1.337-3.056-1.624-13.847-12.605-15.47-15.661-.955-2.006-1.719-2.197-6.494-2.006-5.634.287-14.038-1.814-18.144-4.488-2.196-1.432-2.387-1.337-3.82.764-.954 1.146-1.814 3.438-2.1 4.966-.669 3.724-2.579 4.201-4.011 1.146-.86-2.101-.764-3.152.477-5.825 1.91-3.916 1.528-4.107-2.483-1.051-1.718 1.337-4.201 2.769-5.538 3.342-1.815.669-3.056 2.292-4.202 5.253-1.814 4.583-3.247 5.347-5.252 2.864-2.388-2.769-4.488-3.246-9.55-2.196-4.583.955-5.061.859-7.353-1.241-3.915-3.629-4.87-6.971-4.392-15.279.668-8.595.668-8.595-9.932-9.836-5.825-.669-6.016-.764-6.016-3.438 0-1.528.669-4.393 1.433-6.207 1.909-4.679 2.864-12.414 1.527-13.178-1.718-1.051-8.499 1.241-10.122 3.533-.764 1.146-1.432 2.96-1.432 4.106 0 2.96-2.101 4.297-7.831 4.775-6.398.668-9.931-1.433-12.987-7.64-2.769-5.443-4.393-15.756-3.056-19.194.573-1.432.955-4.393.955-6.685 0-4.774 1.432-6.589 8.117-10.122 4.106-2.196 4.202-2.196 11.173-.573 8.976 2.101 10.982 2.196 9.358.095-1.05-1.241-.955-1.718.669-3.437 1.719-1.719 2.674-1.815 9.167-1.242 8.881.86 10.409 2.101 13.083 10.791 1.814 6.303 4.106 9.741 6.494 9.741 1.623 0 1.432-2.388-.764-10.123-.955-3.724-2.197-8.594-2.77-10.791l-.859-4.106 7.066-8.021c3.916-4.298 7.067-8.308 7.067-8.69 0-.478.859-1.337 2.005-2.006 1.146-.668 1.719-1.528 1.433-1.814-.287-.382-.096-1.146.477-1.815.669-.859.669-2.291-.191-4.965-1.146-3.82-.573-8.786.955-8.786.382 0 1.242 1.146 1.91 2.579l1.241 2.673 1.146-3.437c2.483-7.162 6.78-11.364 11.46-11.364 2.96 0 3.724-1.146 2.578-4.106-1.623-4.298 1.91-7.926 11.364-11.746 8.212-3.247 12.414-4.011 12.414-2.292 0 .477-.477.955-.955.955-1.623 0-5.73 4.488-5.73 6.207 0 1.146 1.146.668 4.68-1.623 4.583-3.056 9.358-6.017 12.7-7.926.955-.478 1.719-1.242 1.719-1.624 0-1.432-2.196-.764-4.965 1.624-3.247 2.673-4.584 2.673-6.017-.096-.572-1.05-1.718-1.719-2.578-1.528-1.528.287-7.448-4.966-7.448-6.589 0-.382 1.336-.955 2.864-1.337 2.961-.668 3.916-3.056 1.433-3.915-2.006-.764-7.449 1.241-11.841 4.488-4.298 3.056-5.826 3.438-5.826 1.433 0-1.624 7.831-8.69 11.842-10.791 1.623-.86 6.971-1.815 12.032-2.197 8.976-.668 21.677-4.106 23.11-6.111 1.05-1.433.954-6.494-.096-8.117-.668-.955-2.005-1.146-5.061-.669-7.544 1.146-7.926 1.051-7.926-.382 0-.764 1.814-2.292 4.106-3.342l4.011-2.005-6.207-3.152c-3.343-1.719-6.78-4.201-7.64-5.443-.764-1.241-1.241-2.292-.955-2.292.287 0-.668-1.814-2.292-4.106-1.528-2.292-3.246-5.921-3.819-8.117-.669-2.196-1.433-4.011-1.719-4.011-.382 0-2.006 1.337-3.725 2.961-1.718 1.718-4.774 3.342-7.162 3.819-4.01.955-4.297.86-6.78-2.005-2.769-2.96-3.342-5.157-1.719-6.207 2.388-1.433.573-4.202-5.347-8.117-5.252-3.438-7.353-4.297-11.842-4.584-5.156-.382-5.634-.286-7.257 2.196-1.146 1.719-1.815 4.584-1.815 8.022-.095 2.96-.477 6.876-.859 8.785-.573 2.674-.286 4.107 1.241 6.685 2.483 4.106 2.483 7.544.096 12.319-1.146 2.292-2.292 7.162-2.769 12.128-.955 9.644-2.388 11.65-6.78 9.358-1.433-.764-4.011-2.96-5.73-4.87-2.865-3.247-3.056-3.915-2.674-8.977l.382-5.443-5.73-1.05c-3.628-.669-8.403-2.674-13.178-5.443-4.011-2.388-8.212-4.298-9.263-4.298-2.196 0-3.056-1.146-3.915-5.156-.382-2.006-1.146-2.961-2.387-3.056-3.82-.191-4.202-.478-5.253-3.629-1.336-4.106-.382-6.494 5.444-13.56 2.578-3.056 5.347-6.971 6.111-8.499 1.051-2.292 2.101-2.96 5.252-3.342 4.107-.573 8.977-3.152 8.977-4.775 0-.478-1.719-1.433-3.82-2.005-2.101-.669-3.82-1.433-3.82-1.815 0-1.623 8.117-2.483 10.218-1.146.669.382 1.433 2.483 1.815 4.584.477 3.056.191 4.297-1.146 5.634-1.624 1.623-1.624 1.719.095 2.96 2.77 2.006 5.443 1.624 7.735-1.241l2.101-2.674 3.533 1.719c1.91.859 3.916 1.432 4.489 1.05 1.528-.954-4.107-6.111-9.359-8.499-2.674-1.145-5.634-3.151-6.493-4.392-1.528-2.292-1.528-2.292 2.673-2.961 4.298-.573 10.696-3.246 11.651-4.774.286-.478-.191-1.91-1.051-3.343-1.05-1.527-1.432-3.437-1.05-5.156.668-3.438-2.197-5.634-7.258-5.634-3.438 0-3.629.191-3.056 2.387.478 1.719-.095 3.533-1.909 6.303-3.438 5.061-5.348 4.583-7.258-1.719-2.101-7.353-3.342-8.117-6.589-4.202-2.769 3.342-4.87 3.342-4.87.095 0-1.05-1.051-2.578-2.388-3.437-1.814-1.146-2.196-2.101-1.814-3.82.382-1.528-.096-2.865-1.91-4.584-2.96-3.056-6.685-3.151-8.594-.382Zm23.969 114.975c-.86.86-2.674-.573-2.006-1.719.382-.573.955-.573 1.624.096.573.573.764 1.241.382 1.623Zm6.78 7.353c.764.573 2.578 2.865 4.106 5.061 2.387 3.534 3.629 4.393 8.499 5.73 6.207 1.719 7.83 3.056 5.443 4.297-.764.478-1.719 2.197-2.101 3.725-.764 3.246-2.005 3.724-2.865 1.05-.286-1.05-1.146-2.101-1.909-2.387-.764-.287-1.433-1.528-1.433-2.865 0-2.197-1.528-3.438-4.393-3.438-1.623 0-4.774 6.016-5.634 10.982-.382 2.101-1.05 4.488-1.432 5.252-1.242 2.101-2.101-2.387-1.719-8.594.286-4.966.477-5.348 4.011-7.258l3.724-2.101-2.769-1.719c-1.815-1.241-4.966-1.91-10.123-2.196l-7.353-.287 5.443-3.724c5.444-3.629 7.544-3.915 10.505-1.528Zm34.091 3.629c0 .668-.764 1.432-1.623 1.623-1.719.287-2.388-1.719-1.051-3.055.955-.955 2.674-.096 2.674 1.432Zm-10.982 5.157c0 .764-.382 1.432-.859 1.432-1.242 0-2.101-1.528-1.337-2.292 1.05-1.05 2.196-.573 2.196.86Zm6.589 12.796c-2.96 1.432-7.639 4.011-10.313 5.73-5.061 3.246-9.072 3.819-4.297.572 5.634-3.819 16.234-8.976 18.048-8.976 1.146 0-.286 1.146-3.438 2.674ZM478.348 198.518c0 .764.477 1.146.955.859.573-.382.764-1.05.477-1.528-.859-1.337-1.432-1.05-1.432.669ZM1374.46 199.377c-1.72 1.337-1.62 1.337 1.15 1.433 4.2 0 8.98-1.051 8.98-2.006 0-1.432-8.12-.955-10.13.573Z"/><path fill="#2E3B38" d="M331.955 199.473c-.764.763.095 2.291 1.336 2.291.478 0 .86-.668.86-1.432 0-1.432-1.146-1.91-2.196-.859ZM741.912 200.332c0 .86.478 1.433 1.051 1.242.573-.191 1.05-.764 1.05-1.242 0-.477-.477-1.05-1.05-1.241-.573-.191-1.051.382-1.051 1.241ZM737.805 202.338c-.764.763.096 2.291 1.337 2.291.477 0 .859-.668.859-1.432 0-1.432-1.145-1.91-2.196-.859ZM967.564 203.292c-.573 1.624 2.197 4.107 4.775 4.202 1.91 0 2.196-2.196.478-3.533-2.483-1.91-4.68-2.197-5.253-.669ZM830.435 203.388c-1.146 1.051-.764 2.196.764 2.196.764 0 1.432-.668 1.432-1.432 0-1.528-1.146-1.91-2.196-.764ZM432.701 207.685c-1.624 1.624-1.433 2.387.764 4.584 2.005 2.005 2.005 2.005 6.207.095 4.011-1.814 6.111-1.241 2.769.669-1.528.859-1.146 3.056.573 3.056.86 0 4.775-5.921 4.775-7.258 0-.477-2.006-.764-4.393-.477-2.387.191-4.87-.191-5.443-.764-1.337-1.337-3.82-1.337-5.252.095ZM933.377 209.404c-1.624 1.814-1.624 1.91 0 2.483 2.005.859 4.679-.669 5.061-2.865.477-2.196-2.96-2.005-5.061.382ZM496.491 209.786c0 .86.669 1.528 1.528 1.528 1.624 0 1.337-2.101-.382-2.674-.668-.191-1.146.287-1.146 1.146ZM585.301 209.404c0 .477.668.955 1.432.955.764 0 1.433-.478 1.433-.955 0-.573-.669-.955-1.433-.955s-1.432.382-1.432.955ZM318.3 211.791c-.955.764-1.337 1.433-.764 1.433s1.623-.669 2.292-1.433c1.528-1.814.859-1.814-1.528 0ZM818.021 211.887c-.764.764.095 2.292 1.337 2.292.477 0 .859-.669.859-1.432 0-1.433-1.146-1.91-2.196-.86ZM498.115 214.752c-.764.764.095 2.291 1.337 2.291.477 0 .859-.668.859-1.432 0-1.432-1.146-1.91-2.196-.859ZM812.1 215.038c-.669 1.146 1.146 2.292 2.387 1.528 1.05-.668.382-2.387-.955-2.387-.477 0-1.05.382-1.432.859ZM507.378 217.521c-1.528 1.146-1.623 1.528-.478 2.292 1.719 1.05 3.916.286 3.916-1.337 0-2.101-1.433-2.483-3.438-.955ZM524.471 225.829c.191.669.955 1.242 1.623 1.242.669 0 1.433-.573 1.719-1.242.191-.668-.477-1.146-1.719-1.146-1.241 0-1.909.478-1.623 1.146ZM705.05 227.262c-3.724.286-5.061.764-5.443 2.1-.477 2.006-6.111 4.871-9.931 4.966l-2.674.096 2.865 1.05c1.623.669 3.915 2.101 5.061 3.247 1.528 1.623 3.151 2.196 6.207 2.196 4.011 0 12.796-3.151 17.38-6.111l2.292-1.528-2.101-3.343c-2.292-3.533-2.005-3.437-13.656-2.673ZM688.434 228.503c-.764.477-1.05 1.146-.764 1.432.86.86 6.494-.477 6.494-1.528 0-1.145-3.915-1.05-5.73.096ZM799.876 238.625c-.764.764.096 2.292 1.337 2.292.478 0 .86-.668.86-1.432 0-1.433-1.146-1.91-2.197-.86ZM189 242.445c.095 2.865 5.252 5.061 8.117 3.533 1.337-.763 1.337-1.05.191-2.1-1.814-1.433-8.308-2.579-8.308-1.433ZM506.041 243.304c0 .764.668 1.433 1.432 1.433.764 0 1.433-.669 1.433-1.433s-.669-1.432-1.433-1.432-1.432.668-1.432 1.432ZM500.884 243.496c-1.051 1.05-.573 2.196.859 2.196.764 0 1.433-.382 1.433-.86 0-1.241-1.528-2.1-2.292-1.336ZM483.218 248.939c-.764.955-.86 1.528-.096 2.005 1.528.955 4.775-.382 4.775-2.005 0-1.719-3.247-1.719-4.679 0ZM494.964 249.034c-.669 1.719.191 4.298 1.432 4.298 1.146 0 2.292-3.534 1.528-4.775-.86-1.433-2.387-1.146-2.96.477ZM743.535 249.225c-.191.382-.764 2.388-1.051 4.489-.859 4.679 1.337 4.392 2.579-.382.764-2.865-.382-6.112-1.528-4.107ZM762.251 258.679c-.859 2.196 1.051 3.629 2.483 1.91 1.242-1.528.669-3.438-.955-3.438-.477 0-1.146.669-1.528 1.528ZM535.644 259.539c0 .763.477 1.432.954 1.432.573 0 .955-.669.955-1.432 0-.764-.382-1.433-.955-1.433-.477 0-.954.669-.954 1.433ZM835.114 258.775c-1.05 1.05-.573 2.196.86 2.196.764 0 1.432-.382 1.432-.86 0-1.241-1.528-2.1-2.292-1.336ZM203.038 260.589c-.764.764.095 2.292 1.336 2.292.478 0 .86-.669.86-1.433 0-1.432-1.146-1.909-2.196-.859ZM753.657 268.801c-4.297 4.68-5.157 6.685-4.393 11.746.478 3.82 1.051 4.87 3.82 6.398 4.393 2.579 5.157 6.207 2.006 8.881-1.337 1.146-2.77 2.96-3.056 4.106-.478 1.528-.191 2.006 1.528 2.292 3.533.478 3.151 3.056-.764 4.87-4.489 2.197-3.725 2.961 1.623 1.719 2.292-.573 6.016-1.05 8.213-1.05 5.347 0 6.78-.669 8.403-3.915 1.814-3.534 1.814-3.629-.859-4.68-1.624-.573-2.77-2.1-3.534-4.87-.668-2.101-3.151-6.016-5.443-8.69-4.106-4.488-4.202-4.774-2.96-7.257.668-1.433 1.432-2.961 1.623-3.438.287-.382-.955-.478-2.578-.096-3.629.764-3.915-1.05-.955-5.825 2.483-4.106 1.146-4.201-2.674-.191ZM743.343 268.611c-.382.573-.286 1.527.287 2.1.573.573 1.146.573 1.623-.191.382-.572.287-1.527-.286-2.1-.573-.573-1.146-.573-1.624.191ZM218.125 269.47c-.573 1.05.86 2.196 1.815 1.337.859-.86.668-2.197-.287-2.197-.573 0-1.146.382-1.528.86ZM842.658 269.47c-.573 1.05.859 2.196 1.814 1.337.859-.86.668-2.197-.287-2.197-.572 0-1.145.382-1.527.86ZM250.593 271.093c-4.106 2.101-5.634 3.82-4.87 5.635.477 1.432.859 1.336 3.438-.478 2.769-1.91 5.347-5.539 4.583-6.207-.191-.287-1.623.286-3.151 1.05ZM305.503 273.958c0 1.623 2.101 1.337 2.674-.382.191-.669-.287-1.146-1.146-1.146-.86 0-1.528.668-1.528 1.528ZM743.439 274.054c-1.051 1.05-.573 2.196.859 2.196.764 0 1.432-.382 1.432-.859 0-1.242-1.527-2.101-2.291-1.337ZM829.48 274.053c-1.05.955-.764 4.107.287 4.107 1.432 0 2.292-2.865 1.241-3.916-.477-.477-1.146-.573-1.528-.191ZM192.055 279.21c.191.573.764.955 1.242.955.477 0 1.05-.382 1.241-.955.191-.573-.382-1.05-1.241-1.05-.86 0-1.433.477-1.242 1.05ZM243.432 280.547c0 .86.477 1.433 1.05 1.242.573-.191 1.051-.764 1.051-1.242 0-.477-.478-1.05-1.051-1.241-.573-.191-1.05.382-1.05 1.241ZM495.25 281.598c-.764.764.096 2.292 1.337 2.292.478 0 .86-.669.86-1.433 0-1.432-1.146-1.91-2.197-.859ZM241.045 283.89c-.382.573-.287 1.528.286 2.101.573.572 1.146.572 1.623-.191.382-.573.287-1.528-.286-2.101s-1.146-.573-1.623.191ZM315.053 285.417c0 2.961 2.196 2.674 2.674-.381.191-1.433-.191-2.101-1.146-2.101-1.051 0-1.528.859-1.528 2.482ZM1327.77 283.89c-.38.573-.29 1.528.28 2.101.58.572 1.15.572 1.63-.191.38-.573.28-1.528-.29-2.101-.57-.573-1.14-.573-1.62.191ZM805.223 286.373c-.859 2.196 1.05 3.628 2.483 1.91 1.241-1.528.668-3.438-.955-3.438-.478 0-1.146.668-1.528 1.528ZM816.97 286.468c-1.051 1.05-.573 2.196.859 2.196.764 0 1.433-.382 1.433-.859 0-1.242-1.528-2.101-2.292-1.337ZM739.715 287.423c-.382.286-.668 1.337-.668 2.292 0 .955-.86 2.005-2.006 2.291-1.528.478-1.814 1.146-1.432 2.865.286 1.242.191 2.579-.382 2.865-1.241.764-1.241 5.252 0 5.252 2.005 0 8.499-3.819 9.931-5.92 1.815-2.579 2.006-7.544.382-9.168-1.241-1.241-4.774-1.528-5.825-.477ZM211.155 288.855c.573 1.719 2.674 2.006 2.674.382 0-.859-.669-1.527-1.528-1.527s-1.337.477-1.146 1.145ZM1250.89 290.479c0 .955-.66 3.342-1.52 5.347-1.34 3.247-1.34 4.107 0 9.454.86 3.247 1.52 9.836 1.52 14.706 0 8.786.48 10.218 2.87 8.786 1.15-.669 1.05-1.337-.38-4.011-.96-1.719-1.53-4.488-1.34-6.016.29-2.483.67-2.865 2.87-2.578l2.57.286-2-4.584c-1.43-3.246-2.2-7.257-2.48-13.942-.29-5.061-.86-9.263-1.25-9.263-.47 0-.86.764-.86 1.815ZM1334.64 289.333c-1.14 1.05-.76 2.196.77 2.196.76 0 1.43-.668 1.43-1.432 0-1.528-1.15-1.91-2.2-.764ZM201.605 291.72c.668 1.814 3.628 2.101 3.628.382 0-.955-.859-1.528-2.005-1.528s-1.814.478-1.623 1.146ZM315.053 292.484c0 1.051.668 1.91 1.432 1.91.764 0 1.433-.859 1.433-1.91 0-1.05-.669-1.91-1.433-1.91s-1.432.86-1.432 1.91ZM196.353 294.967c-.764.764.095 2.292 1.337 2.292.477 0 .859-.669.859-1.433 0-1.432-1.146-1.91-2.196-.859ZM487.896 297.45c0 1.528 1.815 3.629 3.152 3.629.382 0 .668-.955.477-2.101-.286-2.388-3.629-3.725-3.629-1.528ZM1351.36 297.354c.19.573.76.955 1.24.955.47 0 1.05-.382 1.24-.955.19-.573-.38-1.05-1.24-1.05s-1.44.477-1.24 1.05ZM317.917 300.124c.095.764.668 2.674 1.528 4.297l1.337 2.865-.478-3.342c-.477-3.343-2.387-6.399-2.387-3.82ZM1292.63 308.049c-.29.764-.1 1.91.38 2.674 1.05 1.815 3.25-.286 2.48-2.387-.76-1.91-2.19-2.005-2.86-.287ZM335.105 310.628c0 .477.86.955 2.006.955 1.05 0 3.151 1.241 4.488 2.865 1.432 1.528 2.96 2.864 3.438 2.864 1.432 0-3.438-4.774-6.303-6.302-3.056-1.624-3.629-1.624-3.629-.382ZM571.741 313.779c-5.348 4.393-6.494 6.494-4.488 8.977 1.241 1.432 4.775 1.337 10.218-.287 1.814-.573 2.101-.286 2.101 2.387 0 3.247 1.05 3.725 2.864 1.528.86-.955 1.624-1.146 2.865-.477 1.624.859 2.865.382 2.865-1.146 0-.382-.764-.764-1.814-.764-1.337 0-1.624-.573-1.337-2.292.668-3.056-2.674-6.302-6.398-6.302-3.247 0-3.534-.573-1.337-2.961.859-.955 1.05-1.814.477-2.196-.477-.382-3.247 1.241-6.016 3.533ZM550.446 314.352c-.764 1.242 3.342 3.916 5.92 3.916 2.961 0 2.77-2.292-.191-3.629-2.96-1.337-4.965-1.433-5.729-.287ZM1290.62 314.161c-1.05 1.05-.57 2.196.86 2.196.76 0 1.43-.382 1.43-.859 0-1.241-1.53-2.101-2.29-1.337ZM1286.23 319.7c0 .859.48 1.432 1.05 1.241.57-.191 1.05-.764 1.05-1.241 0-.478-.48-1.051-1.05-1.242-.57-.191-1.05.382-1.05 1.242ZM1281.93 323.997c-.38.573-.29 1.528.29 2.101.57.573 1.14.573 1.62-.191.38-.573.29-1.528-.29-2.101-.57-.573-1.14-.573-1.62.191Z"/><path fill="#2E3B38" d="M573.842 326.384c0 .764.668 1.433 1.432 1.433.764 0 1.433-.669 1.433-1.433s-.669-1.432-1.433-1.432-1.432.668-1.432 1.432ZM1273.53 329.345c-.77.764.09 2.292 1.33 2.292.48 0 .86-.669.86-1.433 0-1.432-1.14-1.91-2.19-.859ZM1268.66 333.26c-1.24 1.337-.48 3.151 1.33 3.151 1.05 0 1.91-.573 1.91-1.337 0-1.432-2.29-2.673-3.24-1.814ZM1246.69 335.074c-.28.86-.57 2.483-.57 3.725 0 1.241-.95 2.864-2.48 3.819-2.01 1.242-2.39 2.101-1.82 4.107.29 1.432 1.15 3.151 1.91 3.915 1.44 1.432 3.35.668 3.35-1.337 0-.764.66-1.051 1.91-.764 1.05.286 2.86-.382 4.39-1.528 1.43-1.146 3.15-2.005 3.82-2.005 1.62 0 3.53-3.534 2.86-5.348-.38-.955-1.24-1.241-2.29-.955-1.15.382-3.06-.382-5.44-2.292-4.11-3.247-4.87-3.438-5.64-1.337ZM1263.5 337.462c.19.573.76.955 1.24.955s1.05-.382 1.24-.955c.19-.573-.38-1.051-1.24-1.051s-1.43.478-1.24 1.051ZM1262.93 341.855c-1.05 1.05-.58 2.196.86 2.196.76 0 1.43-.382 1.43-.859 0-1.242-1.53-2.101-2.29-1.337ZM796.725 347.011c-.955 1.624 1.241 3.438 2.578 2.101 1.146-1.146.382-3.151-1.05-3.151-.478 0-1.146.477-1.528 1.05ZM1242.97 354.842c-.86.668-1.91 3.246-2.39 5.92-.67 4.393-.95 4.775-3.34 4.584-2.29-.191-2.58.096-2.29 2.865.19 2.769-.1 3.056-2.39 3.056-1.53 0-3.25.955-4.49 2.578-1.43 1.719-3.53 2.865-6.87 3.533-2.87.669-6.5 2.388-8.69 4.011-2.77 2.196-4.3 2.769-6.02 2.387-2.86-.764-2.96-.095-.48 4.011 1.05 1.719 1.91 4.584 1.91 6.303 0 3.724 2.01 6.111 3.54 4.202.57-.669 1.91-3.056 3.05-5.348 1.53-2.96 2.58-4.011 4.3-4.011 1.24 0 2.86-.668 3.53-1.528 1.05-1.337.86-1.814-1.05-3.342-2.1-1.528-2.1-1.814-.67-1.814 1.05 0 2.96 1.241 4.4 2.769l2.67 2.865 2.01-2.006c1.43-1.528 3.53-2.196 7.54-2.483l5.54-.382 2.67-9.262c1.44-5.062 2.96-10.123 3.25-11.269 1.24-5.156-2.48-10.122-5.73-7.639ZM796.725 356.943c-.382.764-.287 2.196 0 3.055.573 1.433.764 1.433 2.196.096 1.528-1.624 1.146-4.584-.668-4.584-.573 0-1.242.669-1.528 1.433ZM780.873 357.611c-1.528.478-2.674 1.624-2.674 2.387 0 .955.478 1.242 1.719.764.86-.382 2.387-.955 3.342-1.145 1.719-.478 2.197-1.815.955-2.483-.477-.191-1.91 0-3.342.477ZM771.992 363.054c-.668 1.146 1.146 2.292 2.388 1.528 1.05-.668.382-2.387-.955-2.387-.478 0-1.051.382-1.433.859ZM812.577 367.924c-1.623.955-1.528 1.146 2.578 3.247 3.725 1.91 3.725 1.91 4.489 0 1.241-3.247-3.534-5.539-7.067-3.247ZM836.163 368.497c-.763.764.096 2.292 1.337 2.292.478 0 .86-.668.86-1.432 0-1.433-1.146-1.91-2.197-.86ZM807.42 372.413c-1.05 1.05-.573 2.196.859 2.196.764 0 1.433-.382 1.433-.86 0-1.241-1.528-2.1-2.292-1.336ZM857.077 372.413c-1.05 1.05-.573 2.196.86 2.196.764 0 1.432-.382 1.432-.86 0-1.241-1.528-2.1-2.292-1.336ZM849.82 375.182c0 1.624 2.101 1.337 2.674-.382.191-.668-.286-1.146-1.146-1.146a1.51 1.51 0 0 0-1.528 1.528ZM814.2 378.143c-1.145 1.05-.763 2.196.764 2.196.764 0 1.433-.669 1.433-1.433 0-1.527-1.146-1.909-2.197-.763ZM877.513 378.906c0 2.006 2.578 2.865 4.297 1.433 1.814-1.528.955-2.865-2.005-2.865-1.433 0-2.292.573-2.292 1.432ZM807.994 380.434c.191.573.764.955 1.241.955.478 0 1.051-.382 1.242-.955.191-.573-.382-1.05-1.242-1.05-.859 0-1.432.477-1.241 1.05ZM851.538 381.007c.669.287 1.528.191 1.814-.095.382-.287-.191-.573-1.241-.478-1.05 0-1.337.287-.573.573ZM1196.18 387.692c-1.15 1.05-.77 2.196.76 2.196.76 0 1.43-.668 1.43-1.432 0-1.528-1.14-1.91-2.19-.764ZM545.193 391.32c0 .86.478 1.433 1.051 1.242.573-.191 1.05-.764 1.05-1.242 0-.477-.477-1.05-1.05-1.241-.573-.191-1.051.382-1.051 1.241ZM708.68 392.849c.191.572.764.954 1.242.954.477 0 1.05-.382 1.241-.954.191-.573-.382-1.051-1.241-1.051-.86 0-1.433.478-1.242 1.051ZM1201.43 392.849c.19.572.76.954 1.24.954s1.05-.382 1.24-.954c.19-.573-.38-1.051-1.24-1.051s-1.43.478-1.24 1.051ZM705.623 409.369c0 .86.669 1.528 1.528 1.528s1.337-.477 1.146-1.146c-.573-1.719-2.674-2.005-2.674-.382ZM718.515 409.942c-.382.573-.286 1.528.287 2.101s1.146.573 1.623-.191c.382-.573.287-1.528-.286-2.101s-1.146-.573-1.624.191ZM1205.73 410.324c-.29.764-.19 1.719.28 2.005 1.24.764 2.29-1.432 1.15-2.578-.57-.573-1.05-.382-1.43.573ZM711.354 412.329c0 .86.477 1.433 1.05 1.242.573-.191 1.05-.764 1.05-1.242 0-.477-.477-1.05-1.05-1.241-.573-.191-1.05.382-1.05 1.241ZM499.356 415.29c0 .859.478 1.336 1.146 1.145 1.719-.572 2.006-2.673.382-2.673-.859 0-1.528.668-1.528 1.528ZM705.623 415.289c0 1.624 2.101 1.337 2.674-.382.191-.668-.287-1.145-1.146-1.145s-1.528.668-1.528 1.527ZM505.085 416.149c0 .859.477 1.432 1.05 1.241.573-.191 1.051-.764 1.051-1.241 0-.477-.478-1.05-1.051-1.241-.573-.191-1.05.382-1.05 1.241ZM1198.85 417.677c-.38 1.05-.38 2.196 0 2.578.86.86 3.82-1.241 4.11-3.055.47-2.292-3.35-1.91-4.11.477ZM951.043 420.924c0 .859.477 1.432 1.05 1.241.573-.191 1.051-.764 1.051-1.241 0-.478-.478-1.051-1.051-1.242-.573-.191-1.05.382-1.05 1.242ZM499.356 421.783c0 .86.669 1.528 1.528 1.528 1.624 0 1.337-2.101-.382-2.674-.668-.191-1.146.287-1.146 1.146ZM506.709 421.115c-1.146 1.05-.764 2.196.764 2.196.764 0 1.433-.668 1.433-1.432 0-1.528-1.146-1.91-2.197-.764ZM1191.69 424.744c0 .764.67 1.432 1.43 1.432.77 0 1.43-.668 1.43-1.432 0-.764-.66-1.433-1.43-1.433-.76 0-1.43.669-1.43 1.433ZM502.698 425.221c-.382.573-.287 1.528.286 2.101s1.146.573 1.624-.191c.382-.573.286-1.528-.287-2.101s-1.146-.573-1.623.191ZM509.383 425.221c-.382.573-.287 1.528.286 2.101s1.146.573 1.623-.191c.382-.573.287-1.528-.286-2.101s-1.146-.573-1.623.191ZM1186.44 425.221c-.38.573-.29 1.528.28 2.101.58.573 1.15.573 1.63-.191.38-.573.28-1.528-.29-2.101-.57-.573-1.15-.573-1.62.191ZM1176.41 428.563c-1.05 3.247-.57 7.162.86 7.162.76 0 2-5.443 2-8.881 0-2.769-1.71-1.814-2.86 1.719ZM506.041 429.805c0 1.241.668 1.623 4.106 2.483 1.91.477 2.579.286 2.579-.86 0-.764-.573-1.432-1.146-1.432-.669 0-2.197-.287-3.343-.573-1.241-.382-2.196-.191-2.196.382ZM484.363 432.383c-3.724 1.623-3.915 2.674-.764 4.106 1.337.573 2.388 1.719 2.388 2.579 0 .764.477 1.432 1.05 1.432.669 0 .86-1.05.573-2.865-.573-2.578-.477-2.769 1.624-1.91 6.493 2.483 14.228 6.971 14.61 8.69.573 2.197 5.634 2.483 8.404.478 2.674-1.91.955-3.534-9.359-8.595-10.218-4.965-14.228-5.825-18.526-3.915ZM516.259 433.529c-1.146 1.05-.764 2.196.764 2.196.764 0 1.432-.668 1.432-1.432 0-1.528-1.145-1.91-2.196-.764ZM226.433 435.821c.191.573.764.955 1.242.955.477 0 1.05-.382 1.241-.955.191-.573-.382-1.05-1.241-1.05-.86 0-1.433.477-1.242 1.05ZM521.51 435.821c.191.573.764.955 1.242.955.477 0 1.05-.382 1.241-.955.191-.573-.382-1.05-1.241-1.05-.86 0-1.433.477-1.242 1.05ZM231.017 438.113c-.955 1.146-.859 1.528.477 2.005 1.815.764 3.82-.859 2.961-2.387-.955-1.433-2.006-1.337-3.438.382ZM518.646 439.736c.573 1.719 2.674 2.005 2.674.382 0-.859-.668-1.528-1.528-1.528-.859 0-1.337.478-1.146 1.146ZM238.371 440.118c-.764.764.382 7.353 1.337 8.499.573.573 1.432.287 2.482-.764 1.528-1.432 1.528-1.719 0-3.342-.859-.955-1.623-2.292-1.623-2.865 0-1.241-1.432-2.292-2.196-1.528ZM1136.59 446.707c-.29.86-.29 1.719 0 2.005.67.764 4.49-1.432 4.49-2.482 0-1.528-3.82-1.051-4.49.477ZM519.219 449.095c-.86.954-1.337 2.005-.955 2.291.764.764 8.499.573 13.083-.286l3.819-.764-3.533-1.623c-4.679-2.006-10.313-1.91-12.414.382ZM539.941 449.954c-.764 1.432.286 2.96 2.005 2.96.86 0 1.337-.668 1.146-1.623-.382-1.91-2.292-2.674-3.151-1.337ZM500.885 451.864c-.86 1.241 1.814 3.056 3.628 2.387 2.388-.955 1.815-3.247-.764-3.247-1.337 0-2.578.382-2.864.86ZM1176.7 452.15c-1.44 1.719-2.2 10.313-1.15 12.892.38 1.146 2.2 2.769 4.01 3.533 3.63 1.528 7.35 5.73 7.35 8.308 0 1.051.48 1.815.96 1.815.57 0 .95-.764.95-1.624 0-1.241.29-1.337 1.15-.477.67.668 1.53 1.146 2.01 1.146.47 0-2.2-3.343-5.93-7.353-3.72-4.011-6.78-7.927-6.78-8.595 0-.764.86-2.578 2.01-4.011 1.62-2.196 1.81-3.056.95-4.774-1.24-2.197-4.1-2.674-5.53-.86ZM546.721 452.628c-1.051 1.05-.573 2.196.859 2.196.764 0 1.433-.382 1.433-.859 0-1.242-1.528-2.101-2.292-1.337ZM477.393 455.302c0 .859.477 1.432 1.05 1.241.573-.191 1.05-.764 1.05-1.241 0-.478-.477-1.051-1.05-1.242-.573-.191-1.05.382-1.05 1.242ZM551.878 455.397c0 .859.477 1.337 1.146 1.146 1.719-.573 2.005-2.674.382-2.674-.86 0-1.528.669-1.528 1.528ZM558.181 455.493c-1.051 1.05-.573 2.196.859 2.196.764 0 1.433-.382 1.433-.859 0-1.242-1.528-2.101-2.292-1.337ZM681.367 458.357c-1.05 1.051-.573 2.197.86 2.197.764 0 1.432-.382 1.432-.86 0-1.241-1.528-2.101-2.292-1.337ZM688.912 460.458c-.668 1.146 1.146 2.292 2.387 1.528 1.051-.668.382-2.387-.954-2.387-.478 0-1.051.382-1.433.859ZM557.608 461.891a1.51 1.51 0 0 0 1.528 1.528c.86 0 1.337-.478 1.146-1.146-.573-1.719-2.674-2.006-2.674-.382ZM1261.11 463.037c-.76.764.1 2.292 1.34 2.292.48 0 .86-.669.86-1.433 0-1.432-1.15-1.91-2.2-.859ZM1334.64 463.992c-.76.764.1 2.291 1.34 2.291.48 0 .86-.668.86-1.432 0-1.432-1.15-1.91-2.2-.859ZM684.138 465.328c-.382.573-.286 1.528.287 2.101s1.146.573 1.623-.191c.382-.573.287-1.528-.286-2.101s-1.146-.573-1.624.191ZM689.39 466.188c0 .573.477 1.241.955 1.528.573.286.955-.096.955-.86 0-.859-.382-1.527-.955-1.527-.478 0-.955.382-.955.859ZM558.562 468.766c-1.337 3.343-1.242 4.202.477 4.202.764 0 1.433-.573 1.433-1.241 0-.573.286-2.101.573-3.343.859-2.96-1.337-2.674-2.483.382ZM1188.82 467.716c0 .764.67 1.432 1.44 1.432.76 0 1.43-.668 1.43-1.432 0-.764-.67-1.432-1.43-1.432-.77 0-1.44.668-1.44 1.432ZM1257.2 467.907c-1.05 1.05-.58 2.196.86 2.196.76 0 1.43-.382 1.43-.859 0-1.242-1.53-2.101-2.29-1.337ZM564.483 473.064c.191.573.764.955 1.242.955.477 0 1.05-.382 1.241-.955.191-.573-.382-1.051-1.241-1.051-.86 0-1.433.478-1.242 1.051ZM1176.41 473.923c0 1.051.67 1.91 1.43 1.91.77 0 1.43-.859 1.43-1.91 0-1.05-.66-1.91-1.43-1.91-.76 0-1.43.86-1.43 1.91ZM534.307 473.637c-1.051 1.05-.573 2.196.859 2.196.764 0 1.433-.382 1.433-.859 0-1.242-1.528-2.101-2.292-1.337ZM1079.67 473.541c-.76.764.1 2.292 1.34 2.292.48 0 .86-.668.86-1.432 0-1.433-1.15-1.91-2.2-.86ZM539.655 475.928c.191.573.764.955 1.241.955.478 0 1.051-.382 1.242-.955.191-.573-.382-1.05-1.242-1.05-.859 0-1.432.477-1.241 1.05ZM948.179 476.406c0 1.623 2.101 1.337 2.674-.382.191-.669-.287-1.146-1.146-1.146-.86 0-1.528.668-1.528 1.528ZM556.366 476.406c-.764.764.095 2.292 1.337 2.292.477 0 .859-.669.859-1.433 0-1.432-1.146-1.91-2.196-.859ZM1172.59 477.265c0 .86.48 1.433 1.05 1.242.57-.191 1.05-.764 1.05-1.242 0-.477-.48-1.05-1.05-1.241-.57-.191-1.05.382-1.05 1.241ZM1079.67 479.271c-.76.764.1 2.291 1.34 2.291.48 0 .86-.668.86-1.432 0-1.432-1.15-1.91-2.2-.859ZM1180.9 479.271c-.77.764.09 2.291 1.33 2.291.48 0 .86-.668.86-1.432 0-1.432-1.14-1.91-2.19-.859ZM561.045 480.321c-1.05 1.051-.573 2.197.859 2.197.764 0 1.433-.382 1.433-.86 0-1.241-1.528-2.101-2.292-1.337ZM522.656 483.09c.287.86.573 1.719.573 1.91 0 .191.382.382.86.382.477 0 .668-.859.382-1.91-.287-1.05-.955-1.91-1.433-1.91-.573 0-.668.669-.382 1.528ZM1167.91 485.478c-2.2 3.533-2.48 4.679-1.24 4.679.95 0 4.3-6.78 3.63-7.353-.29-.287-1.34.955-2.39 2.674ZM1193.31 483.186c-1.14 1.05-.76 2.196.77 2.196.76 0 1.43-.668 1.43-1.432 0-1.528-1.15-1.91-2.2-.764ZM1117.2 485.86c0 .859.48 1.432 1.05 1.241.58-.191 1.05-.764 1.05-1.241 0-.478-.47-1.05-1.05-1.241-.57-.191-1.05.382-1.05 1.241ZM1287.76 488.915c-1.05 1.051-.58 2.197.86 2.197.76 0 1.43-.382 1.43-.86 0-1.241-1.53-2.101-2.29-1.337ZM1345.44 489.584c0 .859.66 1.528 1.52 1.528s1.34-.478 1.15-1.146c-.57-1.719-2.67-2.005-2.67-.382ZM1189.87 490.73c-1.71.764-3.72 1.242-4.48.955-1.15-.477-4.78 3.915-3.92 4.87.29.191 1.34 0 2.39-.573 2.77-1.528 3.05-1.337 4.1 1.815 1.25 3.342 2.97 3.628 5.64.955 2-2.006 2.29-3.725 1.34-7.449-.67-2.387-.77-2.387-5.07-.573ZM1037.75 492.735c-.19 3.343.1 6.207.67 6.78.19.191 1.53.191 2.87-.191 2.76-.668 2.96-2.387.95-6.302-1.91-3.629-4.2-3.724-4.49-.287ZM1013.11 492.449c0 .859.67 1.528 1.53 1.528s1.34-.478 1.15-1.146c-.57-1.719-2.68-2.006-2.68-.382ZM1277.63 492.449c0 .859.67 1.528 1.53 1.528 1.63 0 1.34-2.101-.38-2.674-.67-.191-1.15.286-1.15 1.146ZM1283.55 494.072c.2.573.77.955 1.25.955.47 0 1.05-.382 1.24-.955.19-.573-.38-1.05-1.24-1.05s-1.44.477-1.25 1.05ZM1013.11 498.369c0 1.624 2.11 1.337 2.68-.382.19-.668-.29-1.146-1.15-1.146-.86 0-1.53.669-1.53 1.528ZM1222.25 499.802c0 3.628 2.29 3.342 2.67-.382.19-1.815-.09-2.579-1.15-2.579-1.05 0-1.52.955-1.52 2.961ZM1084.35 498.465c-1.05 1.051-.57 2.197.86 2.197.77 0 1.44-.382 1.44-.86 0-1.241-1.53-2.101-2.3-1.337ZM1244.78 498.465c-1.05 1.051-.57 2.197.86 2.197.77 0 1.44-.382 1.44-.86 0-1.241-1.53-2.101-2.3-1.337ZM1268.08 499.134c0 .859.67 1.528 1.53 1.528 1.63 0 1.34-2.101-.38-2.674-.67-.191-1.15.286-1.15 1.146ZM1156.36 505.914c-3.35 3.342-7.55 6.875-9.17 7.639-1.72.764-3.34 2.196-3.63 3.151-.38.955-2.01 2.388-3.73 3.152-2.67 1.146-3.05 1.719-2.76 4.679.28 3.629 3.62 9.931 6.78 12.796 2.19 2.006 11.55 3.724 15.18 2.769 1.72-.381 2.1-1.145 2.1-4.201 0-3.438 1.53-6.589 6.4-13.274 1.43-1.91 1.62-2.96.86-5.539-.58-1.623-1.53-3.055-2.1-3.055-2.68 0-2.39-2.197.67-5.348l3.15-3.247-2.77-2.865c-1.53-1.528-3.25-2.865-3.82-2.865-.58 0-3.73 2.77-7.16 6.208ZM1175.46 502.094c0 .859.47 1.432 1.05 1.241.57-.191 1.05-.764 1.05-1.241 0-.478-.48-1.051-1.05-1.242-.58-.191-1.05.382-1.05 1.242ZM1262.93 501.33c-1.05 1.05-.58 2.196.86 2.196.76 0 1.43-.382 1.43-.859 0-1.242-1.53-2.101-2.29-1.337ZM1014.26 503.717c.57 1.719 2.67 2.005 2.67.382 0-.859-.66-1.528-1.52-1.528s-1.34.478-1.15 1.146ZM1319.36 504.099c-.76.764.1 2.292 1.34 2.292.48 0 .86-.668.86-1.432 0-1.433-1.14-1.91-2.2-.86ZM1092.09 505.627c5.16 6.589 8.4 11.364 9.64 14.133.77 1.815 2.58 4.87 4.01 6.685 1.44 1.814 3.35 4.87 4.21 6.78 2 4.393 10.5 13.656 12.03 13.083 1.43-.478 4.96-9.454 4.3-11.078-.2-.573-1.15-1.146-2.11-1.146-2.29 0-6.58-3.628-8.3-6.971-.67-1.432-4.59-6.398-8.69-10.982-5.45-6.111-8.5-8.785-11.75-10.026-2.86-1.146-4.01-1.337-3.34-.478ZM1013.59 508.301c-.38.573-.28 1.528.29 2.101.57.573 1.15.573 1.62-.191.39-.573.29-1.528-.28-2.101-.58-.573-1.15-.573-1.63.191ZM1132 510.115c-.66 1.146 1.15 2.292 2.39 1.528 1.05-.668.38-2.387-.95-2.387-.48 0-1.05.382-1.44.859ZM793.096 510.879c-1.051 1.051-.573 2.197.859 2.197.764 0 1.433-.382 1.433-.86 0-1.241-1.528-2.101-2.292-1.337ZM1091.04 513.744c-1.05 1.05-.57 2.196.86 2.196.76 0 1.43-.382 1.43-.859 0-1.241-1.53-2.101-2.29-1.337ZM1201.81 513.744c-1.05 1.05-.57 2.196.86 2.196.76 0 1.43-.382 1.43-.859 0-1.241-1.53-2.101-2.29-1.337ZM790.327 516.514c-.764.764.095 2.291 1.336 2.291.478 0 .86-.668.86-1.432 0-1.432-1.146-1.91-2.196-.859ZM458.007 519.378c-.764.764.096 2.292 1.337 2.292.478 0 .86-.669.86-1.432 0-1.433-1.146-1.91-2.197-.86ZM1096.67 520.715c-.38.573-.28 1.528.29 2.101.57.573 1.14.573 1.62-.191.38-.573.29-1.528-.28-2.101-.58-.573-1.15-.573-1.63.191ZM1200.47 520.906c-1.33 1.337-1.43 4.488-.28 6.398.57.955 1.14.287 2-2.292 1.24-3.819.29-6.111-1.72-4.106ZM1348.78 520.715c-.38.573-.29 1.528.28 2.101.58.573 1.15.573 1.63-.191.38-.573.28-1.528-.29-2.101-.57-.573-1.15-.573-1.62.191ZM785.839 523.102c0 .764.668 1.433 1.432 1.433.764 0 1.433-.669 1.433-1.433 0-.763-.669-1.432-1.433-1.432s-1.432.669-1.432 1.432ZM1175.84 522.625c-3.54 1.432-5.26 12.223-3.54 21.773 1.53 7.926 3.35 8.785 2.68 1.145-.96-9.931 2-11.745 4.58-2.864 1.53 5.347 3.53 6.207 3.53 1.432 0-2.578-.76-4.488-2.96-6.875-3.53-4.107-3.24-5.444 1.34-5.826 4.97-.382 3.44-2.101-1.81-2.101-3.06 0-4.4-.477-4.87-1.527-.96-2.483 2.29-4.202 7.73-4.202 2.68 0 5.54-.478 6.3-.955 1.82-1.146-10.12-1.242-12.98 0ZM1206.97 526.063c0 .859.48 1.337 1.14 1.146 1.72-.573 2.01-2.674.39-2.674-.86 0-1.53.669-1.53 1.528ZM451.896 527.018c-.669 1.814 1.05 3.724 2.483 2.864 1.528-.955 1.241-3.151-.382-3.819-.86-.287-1.719.095-2.101.955ZM458.007 526.158c-1.146 1.051-.764 2.196.764 2.196.764 0 1.432-.668 1.432-1.432 0-1.528-1.145-1.91-2.196-.764ZM1330.73 526.158c-1.05 1.051-.58 2.196.86 2.196.76 0 1.43-.381 1.43-.859 0-1.241-1.53-2.101-2.29-1.337ZM463.26 528.546c.573 1.719 2.673 2.005 2.673.382 0-.86-.668-1.528-1.527-1.528-.86 0-1.337.477-1.146 1.146ZM1212.7 529.31c0 .477 1.43 1.623 3.15 2.483 4.11 2.101 4.11 2.005 2.2 4.106-2.01 2.196-1.15 4.202 1.43 3.438 2.48-.86 9.45 2.483 14.13 6.684 4.11 3.725 4.87 6.112 2.48 8.117-2.1 1.719-1.71 2.865.86 2.865 1.25 0 4.11.86 6.4 1.91 5.54 2.483 7.93 2.387 10.79-.477 3.25-3.247 6.5-3.056 9.46.477 1.33 1.528 2.57 3.247 2.77 3.82.38 1.241 8.4 4.106 9.16 3.342.29-.286-1.24-2.292-3.34-4.584-2.67-2.674-4.2-5.252-4.68-7.735-.57-3.151-1.43-4.201-6.49-7.448-7.26-4.679-18.15-9.932-23.88-11.46-4.2-1.145-4.48-1.05-7.25 1.624l-2.87 2.769-2.38-2.292c-1.34-1.241-2.39-3.151-2.39-4.392 0-1.624-.86-2.292-4.2-3.152-5.16-1.241-5.35-1.241-5.35-.095ZM1351.16 529.787c0 .86.48 1.433 1.05 1.242.58-.191 1.05-.764 1.05-1.242 0-.477-.47-1.05-1.05-1.241-.57-.191-1.05.382-1.05 1.241ZM1101.92 531.793c0 1.623 2.11 1.337 2.68-.382.19-.669-.29-1.146-1.15-1.146-.86 0-1.53.668-1.53 1.528ZM1206.97 532.27c0 2.292 2.19 2.005 2.67-.382.19-.955-.28-1.623-1.14-1.623-.96 0-1.53.859-1.53 2.005Z"/><path fill="#2E3B38" d="M1226.26 531.315c.19.573.76.955 1.24.955s1.05-.382 1.24-.955c.19-.573-.38-1.05-1.24-1.05s-1.43.477-1.24 1.05ZM1248.7 530.838c-.77.763.09 2.291 1.34 2.291.47 0 .86-.668.86-1.432 0-1.432-1.15-1.91-2.2-.859ZM1274.96 531.315c.19.573.76.955 1.24.955s1.05-.382 1.24-.955c.19-.573-.38-1.05-1.24-1.05s-1.43.477-1.24 1.05ZM783.643 531.888c-1.146 1.05-.764 2.196.764 2.196.764 0 1.432-.668 1.432-1.432 0-1.528-1.146-1.91-2.196-.764ZM1134.01 531.888c-1.05 1.05-.57 2.196.86 2.196.76 0 1.43-.382 1.43-.859 0-1.242-1.53-2.101-2.29-1.337ZM1263.98 531.792c-.77.764.09 2.292 1.33 2.292.48 0 .86-.668.86-1.432 0-1.433-1.14-1.91-2.19-.86ZM1189.01 534.18c.2.573.77.955 1.25.955.47 0 1.05-.382 1.24-.955.19-.573-.38-1.05-1.24-1.05s-1.44.477-1.25 1.05ZM1194.74 534.18c.2.573.77.955 1.25.955.47 0 1.05-.382 1.24-.955.19-.573-.38-1.05-1.24-1.05s-1.44.477-1.25 1.05ZM1355.17 534.18c.2.573.77.955 1.25.955.47 0 1.05-.382 1.24-.955.19-.573-.38-1.05-1.24-1.05s-1.44.477-1.25 1.05ZM1360.71 535.517c0 .859.48 1.432 1.05 1.241.58-.191 1.05-.764 1.05-1.241 0-.478-.47-1.051-1.05-1.242-.57-.191-1.05.382-1.05 1.242ZM1131.05 535.994c-.38.573-.29 1.528.29 2.101.57.573 1.14.573 1.62-.191.38-.573.29-1.528-.29-2.101-.57-.573-1.14-.573-1.62.191ZM1203.43 537.045c-3.72 1.337-2.57 2.864 1.91 2.578 2.2-.191 3.92-.668 3.82-1.241-.28-1.433-3.43-2.197-5.73-1.337ZM1283.36 536.472c0 1.337 2.39 5.252 3.44 5.634 2.1.764 2.48-1.146.77-3.724-1.34-2.006-4.21-3.343-4.21-1.91ZM1105.74 537.809c0 .477.48 1.241.96 1.527.57.287.95.191.95-.381 0-.478-.38-1.242-.95-1.528-.48-.287-.96-.191-.96.382ZM1195.13 538.573c-1.05 1.05-.58 2.196.86 2.196.76 0 1.43-.382 1.43-.859 0-1.242-1.53-2.101-2.29-1.337ZM955.437 541.438c-1.051 1.05-.573 2.196.859 2.196.764 0 1.432-.382 1.432-.859 0-1.242-1.527-2.101-2.291-1.337ZM1277.35 543.729c-4.78 2.961-5.16 3.629-3.35 5.444 1.44 1.432 5.64-1.051 7.83-4.68 2.2-3.724.77-4.01-4.48-.764ZM903.965 544.207c-.764.764.096 2.292 1.337 2.292.478 0 .86-.669.86-1.433 0-1.432-1.146-1.91-2.197-.859ZM1216.71 546.594c.19.573.76.955 1.24.955s1.05-.382 1.24-.955c.19-.573-.38-1.051-1.24-1.051s-1.43.478-1.24 1.051ZM1268.08 547.072c0 .859.48 1.336 1.15 1.145 1.72-.572 2.01-2.673.38-2.673-.86 0-1.53.668-1.53 1.528ZM1187.39 547.358c-.67 1.146 1.15 2.292 2.39 1.528 1.05-.669.38-2.387-.96-2.387-.47 0-1.05.382-1.43.859ZM1222.25 547.836c0 .859.67 1.528 1.52 1.528.86 0 1.34-.478 1.15-1.146-.57-1.719-2.67-2.006-2.67-.382ZM1291.67 547.072c-.76.764.1 2.292 1.34 2.292.48 0 .86-.669.86-1.433 0-1.432-1.15-1.91-2.2-.859ZM948.369 549.459c.191.573.764.955 1.241.955.478 0 1.051-.382 1.242-.955.191-.573-.382-1.051-1.242-1.051-.859 0-1.432.478-1.241 1.051ZM902.342 550.796c0 .859.477 1.432 1.05 1.241.573-.191 1.051-.764 1.051-1.241 0-.478-.478-1.051-1.051-1.242-.573-.191-1.05.382-1.05 1.242ZM1297.4 550.032c-1.15 1.05-.76 2.196.76 2.196.77 0 1.44-.668 1.44-1.432 0-1.528-1.15-1.91-2.2-.764ZM1125.99 551.369c.67 2.101 4.87 3.724 13.46 5.252 4.3.764 9.08 1.91 10.51 2.483 3.15 1.241 4.3.477 2.58-1.624-2.2-2.673-6.97-4.679-12.9-5.347-3.15-.478-7.63-1.051-9.93-1.433-3.34-.573-4.1-.382-3.72.669ZM1152.06 551.178c-.76 1.432.29 2.96 2.01 2.96.85 0 1.33-.668 1.14-1.623-.38-1.91-2.29-2.674-3.15-1.337ZM1158.74 551.273c-.38.573-.28 1.528.29 2.101.57.573 1.15.573 1.62-.191.39-.573.29-1.528-.28-2.101-.58-.573-1.15-.573-1.63.191ZM1362.15 551.273c-.39.573-.29 1.528.28 2.101.58.573 1.15.573 1.63-.191.38-.573.28-1.528-.29-2.101-.57-.573-1.15-.573-1.62.191ZM1179.28 553.756c0 .86.47 1.337 1.14 1.146 1.72-.573 2.01-2.674.38-2.674-.86 0-1.52.669-1.52 1.528ZM1302.46 553.565c0 1.433 2.29 2.674 3.25 1.815 1.24-1.337.48-3.152-1.34-3.152-1.05 0-1.91.573-1.91 1.337ZM1198.95 553.851c-1.05 1.051-.58 2.197.86 2.197.76 0 1.43-.382 1.43-.86 0-1.241-1.53-2.1-2.29-1.337ZM1209.83 556.526c0 .764.86 1.432 1.91 1.432 1.05 0 1.91-.668 1.91-1.432 0-.764-.86-1.433-1.91-1.433-1.05 0-1.91.669-1.91 1.433ZM1298.64 556.525c0 .86.48 1.433 1.05 1.242.58-.191 1.05-.764 1.05-1.242 0-.477-.47-1.05-1.05-1.241-.57-.191-1.05.382-1.05 1.241ZM1368.83 555.953c-.67 1.145 1.15 2.291 2.39 1.527 1.05-.668.38-2.387-.96-2.387-.47 0-1.05.382-1.43.86ZM903.965 556.716c-1.146 1.051-.764 2.197.764 2.197.764 0 1.432-.669 1.432-1.433 0-1.527-1.145-1.909-2.196-.764ZM1204.68 556.716c-1.05 1.051-.58 2.197.86 2.197.76 0 1.43-.382 1.43-.86 0-1.241-1.53-2.1-2.29-1.337ZM1309.72 556.907c-.29.382.1 1.624.86 2.579.95 1.432 1.53 1.528 2.48.668.58-.573.86-1.814.58-2.578-.67-1.623-3.06-2.101-3.92-.669ZM1193.12 558.817c-4.3 2.674-7.73 6.59-6.59 7.736 1.43 1.432 11.37-4.775 11.37-7.067 0-2.578-1.44-2.769-4.78-.669ZM1157.31 559.486c0 1.623 2.1 1.337 2.68-.382.19-.669-.29-1.146-1.15-1.146-.86 0-1.53.668-1.53 1.528ZM1185 559.39c0 .86.48 1.433 1.05 1.242.58-.191 1.05-.764 1.05-1.242 0-.477-.47-1.05-1.05-1.241-.57-.191-1.05.382-1.05 1.241ZM1162.75 559.486c-1.14 1.146.39 2.292 3.25 2.292 2.96 0 3.73-1.337 1.24-2.292-1.91-.764-3.72-.764-4.49 0ZM1173.93 559.963c-.58.955 1.05 2.769 2.48 2.769.29 0 1.05-.382 1.81-.859 1.63-1.05.48-2.96-1.81-2.96-.96 0-2.1.477-2.48 1.05ZM1306.47 561.873c.19.573.77.955 1.24.955.48 0 1.05-.382 1.25-.955.19-.573-.39-1.05-1.25-1.05s-1.43.477-1.24 1.05ZM1170.87 564.738c.19.573.76.955 1.24.955s1.05-.382 1.24-.955c.19-.573-.38-1.051-1.24-1.051s-1.43.478-1.24 1.051ZM1179.28 566.17c0 .86.47 1.337 1.14 1.146 1.72-.573 2.01-2.673.38-2.673a1.5 1.5 0 0 0-1.52 1.527ZM1313.44 565.502c-.66 1.146 1.15 2.292 2.39 1.528 1.05-.669.38-2.388-.95-2.388-.48 0-1.05.382-1.44.86ZM1283.36 568.94c0 .859.48 1.432 1.05 1.241.58-.191 1.05-.764 1.05-1.241 0-.478-.47-1.051-1.05-1.242-.57-.191-1.05.382-1.05 1.242ZM1308.19 569.799c0 .859.67 1.528 1.53 1.528s1.34-.478 1.15-1.146c-.58-1.719-2.68-2.005-2.68-.382ZM1214.61 571.709c0 .764-.77 1.91-1.82 2.387-2.38 1.337-5.73 8.308-5.15 10.6.47 1.719 0 1.91-3.73 1.91-2.86 0-5.15-.668-6.78-1.91-1.33-1.05-2.86-1.91-3.34-1.91-.57 0-1.34.86-1.62 1.91-.29 1.051-.96 1.91-1.34 1.91-1.43 0-4.97 4.011-4.58 5.157.28.668.09 1.814-.29 2.578-.67 1.051-1.24.955-2.77-.477-2.01-1.815-2.01-1.815-2.01 1.432 0 4.775-4.01 8.213-17.18 14.897-13.47 6.78-14.9 8.69-11.65 14.802 1.14 2.292 2.1 4.774 2.1 5.634 0 2.674-1.34 2.96-3.06.668-2.58-3.342-2.1-.191.67 4.68 3.05 5.156 6.21 17.189 6.49 24.446.1 4.679.48 5.921 2.49 7.449 3.05 2.387 5.15 2.291 10.02-.573 2.2-1.337 6.3-2.77 9.07-3.343 2.77-.477 6.78-2.196 8.98-3.724 5.83-4.011 17.86-6.303 23.87-4.488 5.73 1.719 9.46 4.488 11.65 8.594 1.05 1.91 2.11 3.438 2.39 3.438.29 0 1.53-1.91 2.87-4.297 2.86-5.157 5.25-5.825 4.48-1.242-.28 1.719-.85 3.916-1.24 4.966-.57 1.528-.38 1.624 1.24.764 2.11-1.146 3.16-.668 3.16 1.528 0 1.05 2.96 6.494 7.25 13.369.1.191 1.82.764 3.82 1.146 2.58.573 4.3.478 6.21-.477 2.39-1.242 2.77-1.146 5.16 1.05l2.67 2.387 2.96-2.864c1.72-1.624 4.01-2.961 5.06-2.961 2.58 0 3.06-.668 6.11-9.549 1.44-3.915 3.44-9.55 4.59-12.51 1.81-5.061 4.87-24.064 4.87-30.462 0-2.292-.67-3.056-3.44-4.393-3.25-1.528-11.84-11.842-11.84-14.229 0-.573-1.24-1.719-2.77-2.674-3.53-2.101-6.68-8.499-7.74-15.756-.47-3.534-1.81-7.258-3.72-10.218-1.62-2.578-3.25-6.016-3.53-7.831-.29-1.719-.96-3.151-1.34-3.151-1.05 0-2.77 5.061-4.3 13.083-1.43 7.448-4.58 14.61-6.49 14.61-.57 0-4.11-2.292-7.83-5.061-7.74-5.729-8.4-7.639-5.35-14.61 1.15-2.483 1.91-4.584 1.82-4.68-1.44-.859-6.88-2.387-10.51-2.96-3.82-.477-4.58-.382-4.58.955ZM912.464 571.996c-1.05 1.05-.573 2.196.859 2.196.764 0 1.433-.382 1.433-.86 0-1.241-1.528-2.1-2.292-1.336ZM916.379 574.765c-.764.764.096 2.292 1.337 2.292.478 0 .86-.669.86-1.433 0-1.432-1.146-1.91-2.197-.859ZM933.281 577.534c-1.05 4.297-3.724 7.64-8.499 10.409-6.016 3.629-7.162 5.634-7.162 13.083 0 3.819-.573 7.448-1.432 9.071-1.814 3.534-1.814 7.545.095 13.179 1.815 5.252 3.056 6.016 7.163 4.297 3.724-1.528 4.679-3.82 7.926-18.526 1.432-6.303 3.246-13.56 4.106-16.138 1.528-4.871 1.337-13.274-.478-16.521-.859-1.528-1.05-1.337-1.719 1.146ZM921.059 578.68c-1.051 1.051-.573 2.196.859 2.196.764 0 1.433-.382 1.433-.859 0-1.241-1.528-2.101-2.292-1.337Z"/><path fill="#2E3B38" d="M1230.84 579.922c0 .477.48.954.96.954.57 0 .95-.477.95-.954 0-.573-.38-.955-.95-.955-.48 0-.96.382-.96.955ZM1402.25 580.781c-.66 1.146.1 1.623 4.11 2.483 1.81.382 3.06.286 3.06-.382 0-1.146-.67-1.528-4.01-2.387-1.44-.287-2.77-.191-3.16.286ZM1328.72 586.511c-.67 1.146 1.15 2.291 2.39 1.528 1.05-.669.38-2.388-.95-2.388-.48 0-1.06.382-1.44.86ZM951.043 590.903c0 .86.477 1.433 1.05 1.242.573-.191 1.051-.764 1.051-1.242 0-.477-.478-1.05-1.051-1.241-.573-.191-1.05.382-1.05 1.241ZM1330.63 591.381c-.38.573-.28 1.528.29 2.101.57.573 1.15.573 1.62-.191.39-.573.29-1.528-.28-2.101-.58-.573-1.15-.573-1.63.191ZM1371.7 592.24c-.58 1.051.86 2.197 1.81 1.337.86-.859.67-2.196-.29-2.196-.57 0-1.14.382-1.52.859ZM1334.55 593.959c-1.05 1.051-.57 2.197.86 2.197.76 0 1.43-.382 1.43-.86 0-1.241-1.53-2.101-2.29-1.337ZM259.665 596.729c0 1.623 2.101 1.337 2.674-.382.191-.669-.287-1.146-1.146-1.146-.86 0-1.528.668-1.528 1.528ZM1367.59 596.347c.57 1.719 2.67 2.005 2.67.382 0-.86-.66-1.528-1.52-1.528s-1.34.477-1.15 1.146ZM264.154 598.639c-.764.764.095 2.291 1.337 2.291.477 0 .859-.668.859-1.432 0-1.432-1.146-1.91-2.196-.859ZM1392.89 605.323c-.76.764.1 2.292 1.34 2.292.48 0 .86-.669.86-1.433 0-1.432-1.14-1.91-2.2-.859ZM302.639 609.143c0 1.623 2.101 1.337 2.674-.382.19-.669-.287-1.146-1.146-1.146-.86 0-1.528.668-1.528 1.528ZM960.593 609.047c0 .86.477 1.433 1.05 1.242.573-.191 1.051-.764 1.051-1.242 0-.477-.478-1.05-1.051-1.241-.573-.191-1.05.382-1.05 1.241ZM1323.47 608.952c0 1.528 4.01 4.392 6.21 4.392 2.1 0 1.72-2.578-.67-4.201-2.67-1.91-5.54-2.006-5.54-.191ZM955.437 609.238c-1.051 1.051-.573 2.197.859 2.197.764 0 1.432-.382 1.432-.86 0-1.241-1.527-2.101-2.291-1.337ZM1388.98 609.238c-1.05 1.051-.57 2.197.86 2.197.76 0 1.43-.382 1.43-.86 0-1.241-1.53-2.101-2.29-1.337ZM288.982 611.053c-.764.764.095 2.291 1.337 2.291.477 0 .859-.668.859-1.432 0-1.432-1.146-1.91-2.196-.859ZM311.232 617.642c0 .859.478 1.432 1.051 1.241.573-.191 1.05-.764 1.05-1.241 0-.478-.477-1.051-1.05-1.242-.573-.191-1.051.382-1.051 1.242ZM330.808 621.939c-.382.573-.286 1.528.287 2.101s1.146.573 1.623-.191c.382-.573.287-1.528-.286-2.101s-1.146-.573-1.624.191ZM343.317 624.518c-1.05 1.05-.572 2.196.86 2.196.764 0 1.432-.382 1.432-.86 0-1.241-1.528-2.1-2.292-1.336ZM411.119 630.247c-1.05 1.05-.573 2.196.86 2.196.764 0 1.432-.382 1.432-.859 0-1.242-1.528-2.101-2.292-1.337ZM394.312 633.876c0 .859.478 1.432 1.051 1.241.573-.191 1.05-.764 1.05-1.241 0-.478-.477-1.051-1.05-1.242-.573-.191-1.051.382-1.051 1.242ZM496.491 664.434c0 .764.669 1.432 1.433 1.432s1.432-.668 1.432-1.432c0-.764-.668-1.433-1.432-1.433-.764 0-1.433.669-1.433 1.433ZM1352.12 669.113c0 .287 1.34 2.865 2.86 5.634 3.25 5.73 3.54 8.117 1.44 12.033-1.25 2.578-1.25 2.769.95 3.724 1.62.764 2.39 1.91 2.39 3.533 0 3.534 2.58 2.961 3.82-.955.57-1.814 1.91-3.915 2.86-4.583.96-.669 2.1-2.388 2.39-3.82.57-2.196.38-2.578-1.34-2.578-1.05 0-2.38-.86-2.96-1.91-.86-1.528-1.43-1.719-2.86-.955-1.53.764-2.01.382-3.73-3.247-1.81-3.724-5.82-8.499-5.82-6.876ZM1229.12 672.646c.19.573.77.955 1.24.955.48 0 1.05-.382 1.25-.955.19-.573-.39-1.05-1.25-1.05s-1.43.477-1.24 1.05ZM1266.36 690.79c.2.573.77.955 1.25.955.47 0 1.05-.382 1.24-.955.19-.573-.38-1.05-1.24-1.05s-1.44.477-1.25 1.05ZM1254.43 691.268c-.76.764.09 2.292 1.34 2.292.47 0 .86-.669.86-1.433 0-1.432-1.15-1.91-2.2-.859ZM1258.92 698.812c1.62 6.303 2.38 7.258 5.54 6.971 2.48-.191 3.15-.859 4.1-3.629 1.63-4.488.38-5.729-5.44-5.729-4.59 0-4.78.095-4.2 2.387ZM1350.21 698.525c-1.05 1.242-4.01 4.584-6.59 7.449-2.48 2.865-6.21 7.353-8.12 9.931l-3.62 4.775 4.67 1.146c6.4 1.719 7.64 1.05 9.27-4.488.86-2.674 2.58-6.112 3.91-7.64 1.34-1.623 2.39-3.342 2.39-3.82 0-.477.95-2.196 2.1-3.724 1.62-2.292 1.82-3.056.76-4.297-1.62-1.91-2.57-1.814-4.77.668ZM511.771 702.632c0 1.623.477 2.387 1.241 2.101.573-.191 1.146-1.146 1.146-2.101 0-.955-.573-1.91-1.146-2.197-.764-.191-1.241.573-1.241 2.197ZM1335.88 726.41c0 .859.67 1.528 1.53 1.528s1.34-.478 1.15-1.146c-.57-1.719-2.68-2.006-2.68-.382ZM509.096 728.033c.191.573.764.955 1.242.955.477 0 1.05-.382 1.241-.955.191-.573-.382-1.05-1.241-1.05-.86 0-1.433.477-1.242 1.05ZM999.268 731.758c-.859 1.432 1.342 4.774 3.152 4.774s4.01-1.719 4.01-3.151c0-.382-.38-.573-.86-.287-.38.287-1.62-.095-2.58-.859-2.19-1.623-2.96-1.719-3.722-.477ZM508.905 735.1c0 .764.669 1.432 1.433 1.432s1.432-.668 1.432-1.432c0-.764-.668-1.433-1.432-1.433-.764 0-1.433.669-1.433 1.433ZM1327.86 738.156c-1.05 1.05-.57 2.196.86 2.196.77 0 1.44-.382 1.44-.859 0-1.242-1.53-2.101-2.3-1.337ZM509.478 741.02c-1.051 1.051-.573 2.197.859 2.197.764 0 1.433-.382 1.433-.86 0-1.241-1.528-2.101-2.292-1.337ZM566.107 743.408c0 .191-.191.955-.382 1.719-.191.764-.573 2.101-.955 2.96-.573 1.624.955 3.438 1.719 2.101 1.146-2.005 1.719-6.971.764-6.971-.573 0-1.05.095-1.146.191ZM559.232 744.745c-1.433 1.432-.669 4.297 1.05 4.01.859-.191 1.623-1.146 1.623-2.1 0-1.91-1.528-2.961-2.673-1.91ZM513.299 750.761c-.286.382.287 1.528 1.337 2.483 1.05.954 1.91 2.291 1.91 3.055 0 .669.477 1.242 1.05 1.242.955 0 .382-4.966-.764-6.971-.573-.955-2.96-.86-3.533.191ZM1014.74 752.384c-.77.764.09 2.292 1.33 2.292.48 0 .86-.668.86-1.432 0-1.433-1.14-1.91-2.19-.86ZM529.722 755.822c-.191 2.674-.764 3.247-2.864 3.438-3.82.477-3.247 1.91.955 2.578 1.909.382 4.679 1.051 6.111 1.624 3.056 1.146 5.539.477 5.539-1.528 0-1.337-7.353-9.168-8.69-9.168-.382 0-.86 1.433-1.051 3.056ZM638.109 759.928c2.961 2.674 3.438 2.77 5.444 1.433 1.241-.86 1.145-1.146-.382-2.388-1.051-.764-3.247-1.432-4.775-1.432l-2.96.095 2.673 2.292ZM545.767 760.119c-1.051 1.051-.573 2.197.859 2.197.764 0 1.433-.382 1.433-.86 0-1.241-1.528-2.101-2.292-1.337ZM528.482 766.136a1.741 1.741 0 0 0 .287 2.1c1.337 1.337 4.297.191 3.819-1.432-.573-1.528-3.246-2.005-4.106-.668Z"/><g clip-path="url(#b)"><path fill="#44BBA4" d="M865.356 593.806C853.248 576.253 851 574.451 851 568c0-8.837 7.163-16 16-16s16 7.163 16 16c0 6.451-2.247 8.253-14.356 25.806a2 2 0 0 1-3.288 0ZM867 574.667a6.667 6.667 0 1 0 0-13.334 6.667 6.667 0 0 0 0 13.334Z"/></g><g clip-path="url(#c)"><path fill="#44BBA4" d="M886.356 509.806C874.248 492.253 872 490.451 872 484c0-8.837 7.163-16 16-16s16 7.163 16 16c0 6.451-2.247 8.253-14.356 25.806a2 2 0 0 1-3.288 0ZM888 490.667a6.667 6.667 0 1 0 0-13.334 6.667 6.667 0 0 0 0 13.334Z"/></g><g clip-path="url(#d)"><path fill="#44BBA4" d="M989.356 276.806C977.248 259.253 975 257.451 975 251c0-8.837 7.163-16 16-16s16 7.163 16 16c0 6.451-2.25 8.253-14.356 25.806a2 2 0 0 1-3.288 0ZM991 257.667a6.667 6.667 0 1 0 0-13.334 6.667 6.667 0 0 0 0 13.334Z"/></g></g><defs><clipPath id="a"><path fill="#fff" d="M189 112h1222.33v657H189z"/></clipPath><clipPath id="b"><path fill="#fff" d="M851 552h32v42.667h-32z"/></clipPath><clipPath id="c"><path fill="#fff" d="M872 468h32v42.667h-32z"/></clipPath><clipPath id="d"><path fill="#fff" d="M975 235h32v42.667h-32z"/></clipPath></defs></svg>