<svg width="44" height="45" viewBox="0 0 44 45" fill="none" xmlns="http://www.w3.org/2000/svg">
<g filter="url(#filter0_d_503_10)">
<path d="M42.7123 19.2753C42.8082 19.3102 42.9477 19.5319 42.9477 20.0348C42.9477 20.5376 43 23.1513 43 24.4084H1.00055L1.03018 20.0267C1.08943 19.6888 1.11906 19.374 1.26207 19.2753C1.37539 18.9348 1.79556 18.1911 2.56965 17.9396C2.97064 14.3517 5.90136 6.32732 14.4163 2.9332C15.0701 3.95458 16.5869 6.75683 17.4237 9.79478C17.1971 7.86551 16.5869 3.68221 15.9593 2.38322L16.953 0.523785C17.0576 0.34919 17.3401 2.85153e-10 17.633 2.85153e-10H25.9753C26.3937 -7.85762e-06 27.2463 0.162373 28.0413 2.38322C27.5444 3.84981 26.786 7.63679 26.5768 9.79478C27.0824 8.14486 28.3917 4.46265 29.5842 2.9332C32.8445 4.12917 39.7834 8.80483 41.4571 17.9396C41.7796 18.1404 42.4822 18.6887 42.7123 19.2753Z" fill="#44BBA4"/>
<path d="M1.00054 20.1454C1.00054 21.4528 1.00163 24.1767 1.00163 24.4084L43 24.4084L43 20.5652C43 19.5965 42.8082 19.3016 42.7123 19.2753H1.26207C1.08853 19.3443 0.991826 20.005 1.00054 20.1454Z" fill="#21816E"/>
<path fill-rule="evenodd" clip-rule="evenodd" d="M19.3845 26.0672H3.88319C3.75288 27.1601 4.00988 28.7644 4.15466 29.4299L6.29933 29.5876L6.54366 30.4282L4.75191 31.5579C5.18628 32.9029 5.89212 34.29 6.29933 34.8155L8.36256 34.2901L8.85121 34.9731L7.52098 36.6019C8.10737 37.4426 9.25843 38.6773 10.0729 39.2815L11.8103 38.0993L12.489 38.5722L11.8103 40.5163C12.5922 41.1468 14.2265 42.0137 15.0952 42.2501L16.4526 40.6213L17.1584 40.8841L17.2127 42.9595C18.1466 43.2537 19.8732 43.4849 20.8776 43.4849L21.5835 41.5146H22.3708L23.0495 43.4849C24.2222 43.4849 25.7642 43.2747 26.7415 42.9595V40.8315L27.4745 40.6213L28.8319 42.2501C30.5694 41.6196 31.6915 40.8315 32.0353 40.5163L31.4381 38.5722L32.0353 38.0993L33.9085 39.2027C34.8641 38.4881 35.9899 37.1711 36.4333 36.6019L35.103 34.9731L35.5374 34.2901L37.6821 34.7629C38.1599 34.0694 38.7951 32.9502 39.2023 31.5579C38.5779 31.1813 37.34 30.4177 37.3834 30.3757C37.4269 30.3336 37.5282 29.8327 37.5735 29.5876L39.7724 29.4037C39.9027 29.2355 40.0801 27.1093 40.1525 26.0672H24.5154C24.6783 26.0672 23.9725 28.5104 21.855 28.4579C20.1609 28.4159 19.5022 26.8466 19.3845 26.0672ZM17.4228 27.5317H10.962C12.1956 34.6226 17.8216 36.6575 20.6398 37.2082V30.6785C18.7043 30.1121 17.6886 28.3447 17.4228 27.5317ZM23.5694 37.2082V30.7484C24.3825 30.4826 26.1502 29.4671 26.7167 27.5318H33.2473C32.6965 30.3497 30.6613 35.9748 23.5694 37.2082Z" fill="#393E41"/>
</g>
<defs>
<filter id="filter0_d_503_10" x="0.5" y="0" width="43" height="44.4849" filterUnits="userSpaceOnUse" color-interpolation-filters="sRGB">
<feFlood flood-opacity="0" result="BackgroundImageFix"/>
<feColorMatrix in="SourceAlpha" type="matrix" values="0 0 0 0 0 0 0 0 0 0 0 0 0 0 0 0 0 0 127 0" result="hardAlpha"/>
<feOffset dy="0.5"/>
<feGaussianBlur stdDeviation="0.25"/>
<feComposite in2="hardAlpha" operator="out"/>
<feColorMatrix type="matrix" values="0 0 0 0 0.866667 0 0 0 0 0.866667 0 0 0 0 0.866667 0 0 0 0.25 0"/>
<feBlend mode="normal" in2="BackgroundImageFix" result="effect1_dropShadow_503_10"/>
<feBlend mode="normal" in="SourceGraphic" in2="effect1_dropShadow_503_10" result="shape"/>
</filter>
</defs>
</svg>
