<svg xmlns="http://www.w3.org/2000/svg" width="177" height="40" fill="none"><path fill="#B6C4C0" fill-rule="evenodd" d="M133.381 24.175h3.65l-3.65-13.845-.236-.935-3.416 14.78h3.652Zm0-23.869h4.732l11.46 39.199h-8.958l-1.69-7.218h-11.157l-1.556 7.218h-8.822L128.208.306h5.173Zm-29.262 29.686c2.94-.893 4.869-3.82 4.732-10.319-.135-6.115-1.894-8.958-4.732-9.897a8.184 8.184 0 0 0-2.064-.379h-2.67v20.85h2.569a8.92 8.92 0 0 0 2.165-.255Zm0-29.557c2.703.34 4.934 1.317 6.896 3.015 3.686 3.483 6.457 8.836 6.626 16.476-.169 8.965-3.717 14.61-7.607 17.328-1.658 1.022-3.551 1.702-5.915 2.038-1.15.17-2.369.213-3.72.213H91.1V.265h10.888c.709.043 1.42.084 2.131.17ZM74.16.308c3.246.127 5.85.593 8.013 2.591 2.434 2.378 3.686 5.647 3.686 9.767 0 6.116-2.537 9.852-7.168 11.212l9.026 15.627H77.608l-3.448-6.75-3.786-7.476v14.226h-8.18V.265h9.668c.776 0 1.554.043 2.298.043Zm0 18.39c2.603-.297 3.754-1.952 3.821-5.011.067-2.888-1.013-4.802-3.82-5.141-.61-.086-1.286-.042-2.028 0h-1.76V18.61l2.604.086c.406.042.81.042 1.183 0ZM150.833.265l.035 24.556c0 9.494 4.602 14.894 13.1 14.683 8.23-.213 12.326-4.768 13.032-14.6V.266h-8.263v23.46c.201 3.966-1.411 6.456-4.769 6.581-3.123.085-5.206-1.984-4.938-6.582V.267h-8.197ZM36.581 39.505h21.128v-8.396H44.945v-7.554h10.748v-8.142H44.979V8.786h12.73V.266H36.581v39.239Zm-12.428-.037 7.121-.004V17.017H15.89v7.72l7.96.043c-1.545 3.504-3.595 6.796-7.254 6.75-4.032.256-7.995-4.005-8.096-11.054-.169-7.635 4.064-11.688 7.827-11.518 2.317.126 5.106 1.687 5.946 4.895l7.287-4.346C26.47 3.052 21.433-.24 16.596.014 7.49-.072.303 7.06 0 20.054c0 12.45 7.829 19.41 14.58 19.917 4.233.296 7.659-1.728 9.573-4.809v4.306Z" clip-rule="evenodd"/></svg>