<svg xmlns="http://www.w3.org/2000/svg" width="251" height="78" fill="none"><path fill="#B6C4C0" d="M174.679 43.371c0 14.04 6.787 26.516 17.293 34.392h1.93c-9.656-7.636-15.841-19.375-15.841-32.55 0-22.996 18.876-41.638 42.146-41.638 20.342 0 37.328 14.245 41.288 33.201-3.226-20.697-21.319-36.54-43.15-36.54-24.123 0-43.666 19.312-43.666 43.135Z"/><path fill="#B6C4C0" fill-rule="evenodd" d="M205.473 66.492c.883.088 2.446 1.006 3.133 2.018 2.675 3.97 5.417 5.392 9.836 4.082 4.314-1.28 8.238-4.758 10.884-9.908.614-1.36 2.315-.9 3.762.667 3.895 4.21 9.21 2.189 12.628-2.693 1.405-2.004 1.008-4.7-.588-6.12-4.665-4.153-10.221-2.427-12.703 1.808-1.352 2.01-2.82.661-1.917-1.804 2.052-5.568 2.456-9.892-2.325-12.78-3.003-1.817-3.696-2.315-6.645-6.306-1.917-2.597-4.996-2.793-7.834-.83-3.7 3.227-8.105 4.643-12.79 4.652-1.696.004-3.599-.04-5.307 0-2.131.052-2.962.514-3.831 1.788-5.171 7.579-4.033 14.018 1.903 16.027 2.431.821 3.899 1.366 5.254 4.246 1.498 3.324 3.615 4.864 6.54 5.153ZM218.8 17.214c-4.449 5.074-3.378 10.157.659 12.583 5.461 3.28 10.346-.196 13.265-5.061 4.456-7.413 2.68-9.967-.01-11.238-1.969-.93-8.208-2.782-13.914 3.716Zm-21.436 4.479c-3.523 6.081-3.497 12.228 2.256 14.194 2.994 1.025 8.802-1.181 11.406-7.865 2.508-6.427.544-12.451-3.17-13.395-4.885-1.244-7.436 1.781-10.492 7.066Zm35.771 14.55c1.158-2.251 4.294-9.278 10.913-7.75 3.611.832 6.336 2.422 2.65 9.803-2.962 5.932-6.744 8.745-10.53 7.878-3.401-.779-6.071-4.051-3.033-9.932ZM19.758 59.088l6.78-33.384h13.235l1.345-6.641H1.848L.505 25.704h13.346L7.072 59.088h12.686Zm28.703 0 8.067-40.025H43.84l-8.066 40.025H48.46Zm31.002-5.814c-.556.04-1.191.098-1.83.136-5.424-.382-8.9-4.261-8.9-9.88 0-8.34 5.654-18.245 14.818-18.798 7.84-.108 12.283 2.449 12.854 2.69l1.514-7.696c-4.09-1.054-8.346-1.66-12.663-1.66H83.38c-18.095 0-28.01 15.444-28.01 26.739 0 8.969 5.548 15.28 16.805 15.28.388 0 .772-.004 1.154-.01.24.006.48.01.722.01 5.993 0 11.26-.72 16.418-1.828l3.582-17.824H82.094l-2.63 12.84Zm40.549 5.814h13.191l-7.903-18.27c5.832-2.49 10.703-7.693 10.703-13.895 0-3.71-2.577-7.863-10.59-7.863h-22.152l-8.07 40.028h12.015l6.666-33.37c1.035-.092 3.595.03 5.257 0 2.071.068 4.188.503 4.188 3.032 0 3.766-3.808 8.36-9.245 8.36l-1.455.034 7.395 21.944Zm13.908 0 8.07-40.025h29.377l-1.34 6.641H153.33l-2.016 9.745h13.391l-1.177 5.979h-13.337l-2.243 11.017h18.045l-1.346 6.643" clip-rule="evenodd"/></svg>