<svg xmlns="http://www.w3.org/2000/svg" width="254" height="40" fill="none"><path fill="#B6C4C0" d="M237.43 11.093c0-2.524 1.804-3.804 4.603-3.946 3.572-.214 9.647 1.173 9.647 1.173V.818c-.073 0-4.492-.818-8.211-.818-8.838 0-15.171 4.018-15.171 11.627 0 11.875 16.607 10.63 16.607 17.102 0 2.596-1.473 3.804-4.713 4.089-4.566.39-11.231-2.276-11.231-2.276v8S233.527 40 239.124 40C247.777 40 254 36.089 254 27.947c-.037-11.307-16.57-10.916-16.57-16.854Zm-191.218 0c0-2.524 1.804-3.804 4.603-3.946 3.572-.214 9.647 1.173 9.647 1.173V.818C60.388.818 55.97 0 52.251 0 43.413 0 37.08 4.018 37.08 11.627c0 11.875 16.57 10.63 16.57 17.102 0 2.596-1.436 3.804-4.713 4.089-4.566.39-11.231-2.276-11.231-2.276v8S42.272 40 47.869 40c8.653 0 14.84-3.911 14.84-12.053.036-11.307-16.497-10.916-16.497-16.854ZM203.517 23.04l3.571-13.796h.258l3.646 13.796h-7.475Zm-.7-22.471c-4.603 13.191-12.114 38.862-12.114 38.862h8.1l2.725-9.28h11.526l2.651 9.28h8.948S216.92 13.547 212.612.57h-9.795ZM178.22 26.027l-.258.07C177.483 24.534 163.97.57 163.97.57h-9.206V39.43h7.954l.036-26.809.258-.07 14.582 26.88h8.579V.568h-7.953v25.458ZM137.2 39.43h8.837V.57H137.2V39.43ZM116.064.57l-8.175 29.049h-.258L98.978.568H89c-1.546 13.014-3.645 38.863-3.645 38.863h7.401l2.246-26.915h.258l7.917 26.915h8.359l7.695-26.915h.258l1.731 26.915h8.469S127.663 13.547 126.153.57h-10.089ZM69.042 39.43h8.837V.57h-8.837V39.43ZM22.719 24.533c0 5.76-2.062 7.61-7.07 7.61-5.191 0-6.812-1.636-6.812-7.61V.57H0v22.756C0 35.874 5.928 40 15.539 40c10.863 0 15.576-6.009 15.576-16.675V.569h-8.359v23.964h-.037Z"/></svg>