<svg xmlns="http://www.w3.org/2000/svg" width="400" height="41" fill="none"><g fill="#B6C4C0" clip-path="url(#a)"><path d="M236.986 1.139h-12.64l-15.333 38.614h11.086l2.901-8.16h14.4l.933 2.786c1.346 3.981 3.523 5.374 8.289 5.374h5.801L236.986 1.14Zm-11.19 22.193 4.664-12.639 4.454 12.64h-9.118ZM146.333.442c-9.842 0-19.685 6.47-19.685 19.905 0 12.938 8.185 20.203 19.685 20.203 10.464 0 19.892-6.668 19.892-20.203 0-12.739-8.288-19.905-19.892-19.905Zm0 30.454c-6.113 0-8.288-4.18-8.288-10.55 0-6.568 3.004-10.25 8.288-10.25 6.113 0 8.392 4.18 8.392 10.25 0 6.669-2.901 10.55-8.392 10.55ZM200.103 25.223c4.351-1.89 6.63-5.971 6.63-10.748 0-8.758-5.387-13.336-16.783-13.336h-17.612v38.614h11.085v-12.24h6.941l3.213 6.667c1.76 3.782 3.832 5.673 8.805 5.673h5.906l-8.185-14.63Zm-11.811-6.27h-4.869V9.897h5.283c4.871 0 6.528 1.294 6.528 4.478 0 3.285-1.969 4.578-6.942 4.578ZM356.751 1.139h11.19l10.36 17.516 9.843-17.516h5.802c3.937 0 5.49 1.791 5.49 5.275v33.439h-10.568V16.565l-6.94 12.141h-7.667l-7.045-12.141v23.188h-10.465V1.14ZM337.171 1.139h6.009c3.73 0 5.388 1.791 5.388 5.275v33.439h-11.397V1.139ZM332.405 10.693H320.49v29.06h-11.396v-29.06h-12.328V1.139h30.252c3.832 0 5.387 1.791 5.387 5.275v4.279ZM255.841 1.139h10.154l15.437 22.094V1.139h5.181c3.832 0 5.387 1.791 5.387 5.275v33.439h-10.153l-15.541-21.397v21.397h-10.567V1.139h.102ZM124.059 10.693h-11.915v29.06h-11.396v-29.06h-12.33V1.139h30.253c3.834 0 5.388 1.791 5.388 5.275v4.279ZM65.833.442c-9.842 0-19.685 6.47-19.685 19.905 0 12.938 8.185 20.203 19.685 20.203 10.464 0 19.892-6.668 19.892-20.203C85.725 7.608 77.437.442 65.833.442Zm0 30.454c-6.113 0-8.288-4.18-8.288-10.55 0-6.568 3.004-10.25 8.288-10.25 6.113 0 8.392 4.18 8.392 10.25 0 6.669-3.005 10.55-8.392 10.55ZM14.964 6.513C13.617 2.533 10.716 1.14 5.95 1.14H.045l13.78 32.245c1.864 4.478 4.454 6.867 9.22 6.867 1.347 0 2.59-.2 3.626-.597L14.964 6.514ZM33.716 1.139l-8.392 21.795c-.518 1.294-.518 2.687-.103 4.08l3.833 11.048c1.14-.996 1.969-2.488 2.797-4.28L45.631 1.14H33.716Z"/></g><defs><clipPath id="a"><path fill="#fff" d="M0 0h400v41H0z"/></clipPath></defs></svg>