<svg width="382" height="315" viewBox="0 0 382 315" fill="none" xmlns="http://www.w3.org/2000/svg">
<g filter="url(#filter0_d_135_688)">
<path d="M92 138H30C30.4107 152.989 31.3154 163.518 32.578 167.201C32.596 167.293 32.6136 167.381 32.6307 167.464L51.5719 169.042L54.2026 176.408L37.8922 186.405C40.7859 197.191 46.3105 207.714 51.5719 215.869L69.9869 211.134L74.7222 216.922L62.6209 231.654C69.1451 241.335 79.9837 251.647 85.2451 255.33L100.503 244.807L106.817 249.016L101.029 266.379C109.448 273.114 123.391 279.796 129.967 281.637L142.069 267.431L147.856 269.536L148.908 287.951C153.539 290.056 172.322 292.423 181.003 292.686L187.317 275.324H194.683L200.471 292.686C207.574 292.949 223.884 291.634 233.092 287.951V269.01L239.931 267.431L252.033 281.637C260.714 279.27 275.446 271.114 280.444 266.379L275.183 249.016L280.444 244.807L296.755 254.804C306.436 247.648 315.871 236.389 319.379 231.654L307.804 217.448L311.487 211.134L330.428 215.343C337.163 206.293 342.003 192.631 343.582 186.931L327.797 176.408L329.376 169.042L349.106 167.727C350.579 165.202 351.649 146.857 352 138H292C292.5 172 267.5 234.5 192.5 238C117 236 91 171.5 92 138Z" fill="#151E1C"/>
<path d="M292 138C292 193.228 247.228 238 192 238C136.772 238 92 193.228 92 138C92 82.7715 136.772 38 192 38C247.228 38 292 82.7715 292 138Z" fill="#E7F7F3"/>
</g>
<defs>
<filter id="filter0_d_135_688" x="0" y="0" width="382" height="314.719" filterUnits="userSpaceOnUse" color-interpolation-filters="sRGB">
<feFlood flood-opacity="0" result="BackgroundImageFix"/>
<feColorMatrix in="SourceAlpha" type="matrix" values="0 0 0 0 0 0 0 0 0 0 0 0 0 0 0 0 0 0 127 0" result="hardAlpha"/>
<feOffset dy="-8"/>
<feGaussianBlur stdDeviation="15"/>
<feComposite in2="hardAlpha" operator="out"/>
<feColorMatrix type="matrix" values="0 0 0 0 0.223529 0 0 0 0 0.247059 0 0 0 0 0.262745 0 0 0 0.2 0"/>
<feBlend mode="normal" in2="BackgroundImageFix" result="effect1_dropShadow_135_688"/>
<feBlend mode="normal" in="SourceGraphic" in2="effect1_dropShadow_135_688" result="shape"/>
</filter>
</defs>
</svg>
