<svg xmlns="http://www.w3.org/2000/svg" width="80" height="72" fill="none"><g clip-path="url(#a)"><path fill="#82948F" d="M40 0c-9.665 0-17.5 7.835-17.5 17.5 0 7.814 11.438 22.056 15.82 27.225a2.19 2.19 0 0 0 3.36 0C46.064 39.555 57.5 25.314 57.5 17.5 57.5 7.835 49.665 0 40 0Zm0 23.333a5.833 5.833 0 0 1-5.833-5.833A5.833 5.833 0 0 1 40 11.667a5.833 5.833 0 0 1 5.833 5.833A5.833 5.833 0 0 1 40 23.333Zm-37.206 6.66A4.445 4.445 0 0 0 0 34.12v34.767a2.223 2.223 0 0 0 3.047 2.064l19.175-8.728V29.85c-1.228-2.22-2.232-4.38-2.951-6.447l-16.477 6.59ZM40 49.954a6.636 6.636 0 0 1-5.07-2.355c-2.731-3.223-5.636-6.892-8.263-10.656v25.278l26.666 8.889V36.944c-2.627 3.763-5.53 7.434-8.262 10.656A6.64 6.64 0 0 1 40 49.954Zm36.953-27.57L57.778 31.11v40l19.428-7.77A4.444 4.444 0 0 0 80 59.213V24.447a2.222 2.222 0 0 0-3.047-2.064Z"/></g><defs><clipPath id="a"><path fill="#fff" d="M0 0h80v71.111H0z"/></clipPath></defs></svg>