<svg xmlns="http://www.w3.org/2000/svg" width="90" height="90" fill="none"><g clip-path="url(#a)"><path fill="#82948F" d="M73.03 23.738c6.058 9.99 4.795 25.208-2.504 34.2-8.08 10.67-21.403 15.3-34.593 11.666-11.965-3.136-21.724-14.555-22.818-26.902-1.49-13.092 4.595-25.025 15.665-31.564 8.53-5.246 21.69-5.842 30.567-.864 5.394 2.621 10.82 7.999 13.657 13.458l.025.006ZM45.615 8.336c.113 1.196.113 2.869 0 4.233.034-.217.233-.217.366-.298.416.149.416.664.298 1.012h-.085c2.138-.149 4.2.383 6.174.98 2.059.264 3.853 2.739 5.878 1.425.563.63 1.547.034 1.842 1.013.78.149 1.196.928 1.727 1.426-.067.714.596 1.046.83 1.575v-.085c.68-1.229 1.758-2.29 2.953-2.92A29.588 29.588 0 0 0 50.414 8.98c-1.547-.315-3.268-.216-4.795-.647l-.003.003Zm-21.625 8.446 3.515 3.37a24.271 24.271 0 0 1 16.313-6.953c-.234-1.49-.15-3.187-.068-4.714-7.565.43-14.152 3.285-19.76 8.297Zm44.027-7.304 2.289 2.29c2.323 3.583 5.577 7.135 8.795 9.393-.68-1.426-.83-3.102-1.547-4.528-1.426-4-5.878-5.94-9.543-7.152l.006-.003Zm-46.744.45c-2.84 1.125-5.906 2.059-8.016 4.714-1.642 2.137-2.137 4.714-2.987 7.152l2.503-2.137c3.817-2.655 4.81-6.987 8.494-9.726l.006-.003Zm28.012.979-2.137.962c-.234.112-.979-.265-.864.365.417.265.83.563 1.345.63 1.344-.596 2.953.383 4.078-.863-.332-.914-1.527-.945-2.419-1.097l-.003.003Zm27.414 2.74c3.17 2.089 2.953 5.94 4.078 9.061.298 1.31 1.097 2.503 1.195 3.817-1.693-4.928-7.433-5.457-9.506-10.106l.647 2.723c1.609 5.276 7.903 6.553 10.288 11.334-.748-3.45.563-7.07-.478-10.47-.864-2.92-3.268-5.496-6.224-6.36Zm-69.238 4.71c-2.42 3.552-.45 8.466-1.125 12.679.863-1.727 2.54-3.37 4-4.596 3.368-2.174 6.39-5.642 6.504-9.506-1.794 4.593-7.7 5.192-9.163 10.086H7.53c2.174-4.067.945-9.788 5.09-12.797-2.173.613-4.015 2.222-5.16 4.134h.003Zm38.08-3.515c.234 1.49.15 3.285.068 4.747 3.783.068 7.37 1.23 10.322 3.431a1.406 1.406 0 0 1-.565-1.128h.113c.067-.534-.749-.779-.479-1.31.715.067 1.246 1.046 1.643 1.575 2.059-.034.863 2.419 2.419 3.15.365.183-.113.928.45.863.478.383 1.08.816.978 1.426.183 1.08 1.047-.332 1.528.366.416.332-.299.534-.217.928.264.113.515-.264.714.067.085.366-.182.515-.365.715-.183.63.562.264.779.562.332.715.596 1.792.067 2.588.748.816-.112 1.642-.264 2.419-.534.514-.63 1.693-1.643 1.426-.233.416.15.9-.084 1.229l1.792.084c-1.013-1.426.298-2.804.714-4.078.217-.084.478-.535.664-.084l-.217 1.726c.45.681.265 1.643.416 2.439l4.596-.085c-.332-3.037-.962-5.956-2.242-8.595-.331.113-.714.366-1.08.15-.514-.681-.928-1.528-1.642-2.09-.596 0-1.013-.478-1.49-.78-1.047.035-.664-1.49-1.677-1.276-.534-.264-.928-.534-1.08-1.162-.034-.714-.084-1.608-.779-2.137-.382-.217-.748.067-1.012.298-.563.366-.796-.264-.78-.714-.63-.479.034-1.013-.298-1.575-.9-.715-.478-2.06-1.693-2.655-1.974-.945-4.05-1.547-6.243-1.992-1.111-.197-2.34-.233-3.418-.534l.006.006Zm13.675 0c-.233.067-.149.45-.067.596.779.067.779 1.406 1.693.83l-.217-.929c-.233-.582-1.026-.28-1.409-.497ZM28.52 21.375c1.195.83 2.357 2.137 3.336 3.22 3.15-3.07 7.402-4.944 11.964-5.012a41.737 41.737 0 0 1 0-4.595c-5.774.45-10.969 2.537-15.3 6.387Zm38.222-3.583-3.136 3.37-.515.067c.416 0 .298.478.563.663 1.31.929 1.912 2.242 3.02 3.22.416 1.013 1.49 1.677 1.49 2.92 1.548 3.02 2.273 6.553 2.44 10.024a39.224 39.224 0 0 1 4.795-.217l-.15-.149c-.28-7.748-3.45-14.343-8.513-19.898h.006Zm-43.678.49-.15-.45c-5.09 5.54-7.964 12.543-8.347 20.193l4.866.068c-.183-1.547.233-3.038.416-4.565 1.046-4.5 2.987-8.761 6.44-12.114l-3.225-3.133Zm60.488 1.124c2.208 3.22.945 7.749.816 11.517.084 1.829.382 3.634.264 5.457-.264-.715-.332-1.49-.515-2.242-.9-4.078-5.692-6.089-7.633-9.506.298 1.161.515 2.323.928 3.431 1.677 4.83 6.689 8.08 7.37 13.326.45-5.012 3.937-9.012 2.654-14.47-.697-2.74-1.828-5.429-3.881-7.518l-.003.005Zm-77.813.695c-1.727 2.062-2.889 4.53-3.488 7.18C1.09 32.774 4.388 37.007 5.12 42.02 6.08 35.73 12.7 31.764 13.05 25.192c-1.969 3.552-6.654 5.608-7.518 9.807 0 .68-.216 1.344-.365 1.991l-.15-.15.234-2.722c.816-4.846-2.025-9.857.478-13.989l.009-.028Zm38.185 1.063-.15.113c-4.114.233-7.55 2.058-10.737 4.528 1.229.796 2.208 2.058 3.37 3.136a11.325 11.325 0 0 1 7.433-3.136c-.099-1.362-.17-3.187.084-4.647v.006Zm1.693.068c.233 1.395.183 3.037.084 4.5 2.77.216 5.727 1.344 7.718 3.15 1.046-1.08 2.208-2.504 3.37-3.15-3.269-2.588-6.936-4.2-11.166-4.5h-.006Zm-18.304 1.125v.298c-3.783 4.33-5.906 9.542-6.288 15.384 1.546.034 3.25-.067 4.713.068l-.149-.217c.298-4.63 1.969-8.831 5.09-12.164a21.807 21.807 0 0 1-3.369-3.37h.003ZM57.78 26.8c-1.406 1.61-3.17 3.32-4.5 4.866.084.216.332.45.366.366.365-.45.084-1.575 1.08-1.345.979.332 1.842.234 2.92.366.595.332.68 1.046 1.228 1.344.234.265-.084.515-.216.715.117.105.218.228.298.365.298-.264.714-.63 1.277-.478.562.034.714.83 1.229.928.233.298-.15.596-.366.715.113.562-.534.748-.298 1.276.298.068.596-.084.714-.298 1.125-.83.234-1.912.068-2.92-.45-.927-1.395-1.096-2.138-1.79.034-.299.217-.63.45-.78-.05-1.327-1.395-2.222-2.11-3.318l-.002-.012Zm-25.92.15c-1.012 1.245-1.991 2.62-2.722 4.078-1.162 2.137-1.491 4.629-1.97 7.07l1.97-.067c-.332-.383-.265-.928-.265-1.426.45-.945.63-2.655 2.059-2.574.68-.149-.034-.68.515-.962 1.012-.149 1.277-1.097 2.137-1.547.816-.084.979-1.229 1.792-1.31-1.361-.945-2.29-2.138-3.516-3.268v.005Zm13.838.562.112 3.22 1.23.45c.365-.63 1.012-.779 1.425-1.31.383-.183.383.298.563.45.233 1.462-1.407 2.123-2.273 2.722h.366c.928-.962 1.462 1.195 2.418.217.183-1.23 1.913-1.08 2.29-2.29-.298.298-.45-.034-.715-.112.085-.417.664-.68.929-.962-1.97-1.21-4.05-2.008-6.357-2.374l.012-.011Zm-1.924.098c-2.503.366-4.866 1.277-6.654 3.22.596.113 1.195.366 1.642.78.15.298-.264.332-.298.514.382.563.416-.112.816-.216.365.365.68.63 1.195.365.264.45.68.034 1.012.068.113-.366.63-.664.417-1.08.182-.332.264-.863.714-.863-.264 1.395 1.046 0 1.426.663-.4-1.046-.099-2.438-.264-3.45h-.006Zm44.789 3.418c.83 4.829-2.09 8.465-3.285 12.678-.664 1.609-.383 3.668-1.406 5.08-.068-.816.382-1.575.45-2.439.748-5.394-3.932-8.595-5.012-13.162a15.865 15.865 0 0 0 .216 3.484c.265 5.693 4 10.322 2.92 16.262 1.08-1.395 1.876-2.84 3.17-4.199 4.297-4.5 5.394-11.981 2.919-17.707l.028.003Zm-87.384.63C-.368 35.24-.284 39.97.88 43.706c1.013 3.853 4.68 6.54 6.587 9.872-.332-1.395-.264-3.17-.067-4.596 1.246-4.978 3.22-9.787 2.92-15.3-.749 3.938-4.298 6.77-4.715 10.857-.264 1.676.15 3.319.366 4.795-.382-.748-.748-1.609-.816-2.573-.582-5.344-4.913-9.293-3.982-15.104h.006Zm42.496 1.875.085.068c.084.45.416 1.125 0 1.426-.535.714-1.828.562-1.991 1.527-1.395.416-.864 2.138-1.311 3.22-.9.217-.563-.863-.979-1.229l-.216.265c-1.407-1.047-1.111 1.195-1.97 1.406.946.216 1.759-.332 2.723-.366.068.113.299.183.217.366h.149c.217-.217.233-.478.217-.78.084-.297.45-.477.714-.297-.084.298.112.534.366.663l-.515.715c-.264.298.067 1.11-.63 1.08-.15.034-.264-.084-.217-.234h-.149l.366.664c.416-.034.332-.779.863-.863.478-.113.535-.68.478-1.125.63-.535 1.395-.217 2.09-.298.183.182.596.233.515.562.264.535-.183 1.125-.515 1.575.15.298-.216.535-.216.864-.563.596-1.196.331-1.97.514.946.664 1.975 1.08 3.221.979 1.195.084.63-1.426 1.49-1.913.515-.067.946.068 1.528-.084.233-.45.264-.979.366-1.49-.515-.234-.332-.749-.366-1.162-.298-.366-.264-1.013-.864-1.08-.112-.332.234-.478.217-.78.9-.331-.478-.863.084-1.405-1.012-.183-1.245-1.792-2.503-1.277-.298-.416-1.08-.596-1.08-1.23.085-.45 1.097-.264.98-.216-.068-.084-.184-.149-.15-.264-.383-.034-.83 0-1.08.197l.053.002Zm-12.729 3.854c-1.097.365 0 1.395-.067 2.09-.113.562-.681.112-1.013.365.15.928-.63 1.11-1.277 1.277-.216.63.478.928.15 1.527.795.816 1.425 1.791 1.276 2.92.563.815.416 2.024.563 3.07a2.587 2.587 0 0 1 .714 1.941c.034.383-.383.515-.63.664-.298.366.217.183.217.478l3.999-4.148a13.022 13.022 0 0 1-2.92-5.991l-.514-.298c-.084.562-.068 1.406-.563 1.575-.264-.234-.796-.366-.796-.864.15-.331.417-.112.664-.149-.034-.264.034-.534.068-.779.084-.332-.478-.562-.068-.863.366-.034.515.382.78.562l.714-.365c-.217-.68.182-1.758-.068-2.503-.098-.597-.748-.479-1.229-.515v.006Zm28.842 2.086.796.929c-.034 1.046 1.395 1.406 1.49 2.438.299-.979.265-2.09.563-3.071-.914-.099-2.09.197-2.854-.298l.005.002Zm10.67.051.15.298a25.425 25.425 0 0 1-6.888 16.313 56.2 56.2 0 0 1 3.451 3.434c3.938-4.565 6.688-9.692 7.633-15.517.332-1.49.234-3.102.664-4.528-1.463.416-3.187.15-4.795.233l-.214-.233Zm-6.139.099c.183.596-.183 1.161-.149 1.791-.63 1.046.816 1.31.416 2.29-.264.216-.534.182-.863.067-.748 2.92-2.208 5.608-4.298 7.931h-.216c.534.332.928 1.08 1.527 1.23v-.417c.113-.084.183-.298.366-.217 1.161.366 1.246 1.975 1.344 2.723 3.038-3.187 4.928-6.986 5.878-11.101.332-1.406.15-3.038.715-4.233-1.561.085-3.252.169-4.714-.067l-.006.003Zm-37.153.05c.332 1.08.68 2.242.416 3.431 0-.534 1.162-1.08.234-1.547.365-.534.084-1.676.779-1.726-.549.112-.962.112-1.426-.17l-.003.012Zm-12.53.15c.332 7.599 3.136 14.253 8.08 19.898 1.098-1.162 2.324-2.475 3.516-3.432-.596-.382-.978-1.08-1.575-1.575-.748-.149-1.246-.863-1.426-1.49.034.084-.084.149-.149.216-.68.332-.9-.514-1.344-.779-.416-.216-.084-1.161-.816-.815-.416-.681-1.195-.63-1.49-1.426l-.307.486c-.534-.033-.928-.68-1.229-1.012-1.097.332-.664-1.196-1.277-1.693-.233-.962.068-1.843.563-2.588.332-.298.962-.067 1.08.15.562.216.216-.45.514-.563.796-.68 1.196.264 1.643.779-.664-1.913-1.08-4.149-.979-6.207-1.547.182-3.268.132-4.81.033l.006.017Zm6.29-.051.148.216c.15 2.138.748 4.233.928 6.289.265-.183.085-.664.45-.664.113-1.012.265-2.174.928-3.071.945-.034.98-1.31 1.992-1.23.233.184.562.417.663.715-.514-.596-.534-1.547-.298-2.272a18.705 18.705 0 0 1-4.812.017Zm12.976 1.912.264.45c.366 1.49 1.246 2.74 1.992 4.078l1.406-1.426c-.034-.183.067-.382-.068-.514-.264-.366-.084-1.013-.45-1.23-.112.332.265.515.085.78-.45-.183-.928-.383-1.162-.929.085-.68-.416-.182-.779-.514-.017-.731-.945-.253-1.26-.698l-.028.003Zm5.012 1.23c-.084.415-.416.747-.664 1.08.416-.184.664-.816 1.125-.78l-.461-.3Zm41.155.562c-2.84 6.103-.779 14.222-4.233 20.047l.563-.478c6.705-3.668 14.785-9.844 13.458-18.852-.113 1.229-.515 2.323-1.08 3.37-2.622 4.077-7.102 7.416-9.282 11.665-.067.15-.264.234-.365.085l.45-.563c3.17-4.564.332-10.172.514-15.266l-.025-.008Zm-28.426.497c-.663.929.63.864.715 1.643.149 0 .332.067.416-.068-.084-.331-.068-.68-.366-.928-.498.017-.498-.647-.76-.647h-.005Zm-41.822.099c.366 1.974-.264 3.701-.562 5.493-1.013 3.43-.515 7.453 1.49 10.254-.663-.332-1.08-1.097-1.49-1.791C6.784 53.28.546 50.594.014 44.902-.02 46.96-.02 49.134.61 50.99c1.727 6.373 8.761 9.658 13.509 12.88-3.37-5.807-1.575-13.724-4.298-19.8Zm49.754.264c-.864-.647-.681.596-1.426.515-.265-.068-.332-.383-.366-.664-.068.68-.596 1.196-.979 1.727-1.406-.382-1.012 1.547-2.39 1.125.182.534.779-.084 1.08.084.233-.112.182-.365.298-.514.149-.563.83-.78 1.406-.563.298.478.382 1.08.366 1.643-.332.233-.332.63-.299 1.012-.416.68-.233 2.138-1.49 1.992-1.31-.479-2.74-.83-4.182-.864v.298c.961.366 2.025.366 2.804 1.08.83-.084 1.876.113 2.503-.365a3.066 3.066 0 0 1 .714-1.575c.535.067.416.779.664 1.125 1.575-1.992 2.953-3.901 3.487-6.357-.779-.033-1.344.417-2.157.298l-.033.003Zm-19.168-.067-2.868 3.22c1.642 1.246 3.552 2.242 5.675 2.574-.034-.563-.034-1.126.265-1.576.298-.182.748.085 1.012-.216-.034-.264-.216-.264-.366-.515-.182-.416 0-.796.068-1.08.112-.216-.233-.68.149-.83-.928.45-1.758-.182-2.573-.45-.45-.348-1.246-.43-1.362-1.124v-.003Zm9.245 3.22c.366-.478 1.125-.382 1.277-.928-.664-.113-1.406.366-1.277.928Zm1.693.714c-.332.183-.596.183-.779.563-.382.515-.863-.034-1.229-.217.112.15.382.515.067.715-.382.416-.748-.183-1.125-.298-.216 1.31-.68-.366-1.406-.068-.298-.748-.815.15-1.277.068-.365.298-.382 1.161-1.08 1.08-.149.416-.714.264-.779.562.332.383.78.217 1.125.15.563-.516 1.277-.184 1.97-.265-.068 1.08 1.194.264 1.574.928.45-.034.45-.478.63-.816.928-.149 1.876-.714 2.39-1.426.133-.253.299-.83-.084-.978l.003.002Zm-15.235.515c-.945 1.162-2.09 2.273-3.22 3.22h.216c2.621 2.273 5.94 3.854 9.045 4.349-1.125-.15-1.575-1.26-2.09-2.09-.298-.68.748-.83.563-1.547.382-.63.979-.979 1.727-1.08-.366.068-.715.112-1.08.217-1.893-.63-3.797-1.463-5.161-3.072v.003Zm41.09 3.783-2.503 3.285c-3.37 4.646-2.987 11.002-7.667 14.968 2.42-.779 5.08-1.11 7.566-1.642 5.642-1.426 11.568-6.987 12.38-12.76-1.012 2.418-3.135 4.198-5.276 5.607-3.7 1.727-7.453 3.702-10.586 6.441h-.365l.216-.298c5.411-3.572 3.949-10.49 6.244-15.598L77.2 52.5Zm-19.116.366v.067c-2.242 1.575 1.08 1.643 1.125 3.02-.332.664-1.527 1.311-.78 2.09.234.265-.112.479-.216.715l3.072-2.588c-.383.265-.864.085-1.08-.264.067-1.406-1.561-1.958-2.124-3.038l.003-.002Zm-45.388.149.863 2.207c.83 4.945 1.23 10.407 5.726 13.543l-.067.067c-1.463-.63-2.573-1.842-3.881-2.655-4.233-2.74-10.075-3.937-12.46-9.21.664 3.852 3.285 7.312 6.44 9.657 3.784 3.336 9.063 3.072 13.692 4.416-1.693-1.31-2.655-2.804-3.431-4.646-1.676-4.697-3.17-9.563-6.871-13.377l-.011-.002Zm20.545 1.54c0 .516.68.535.416 1.162-1.012.63-2.241.183-3.22.929-.9.478-1.643-.563-2.138-.515 4.349 3.749 9.459 6.255 15.334 6.539l.366.217c-.234-1.426-.15-3.103-.068-4.596-3.999.233-7.619-1.426-10.69-3.735Zm29.29 2.656a8.69 8.69 0 0 1-2.506 2.29c-3.103 1.08-3.375 4.527-6.441 5.675-1.195.478-1.876-1.08-2.953-1.31-1.609.264-3.285.714-4.928.45v5.011l.217-.149c7.7-.332 14.636-3.37 20.047-8.446-1.229-1.161-2.54-2.357-3.43-3.515l-.007-.006Zm-35.213.298-3.319 3.431c5.659 5.08 12.431 7.819 20.048 8.297l-.217-.365c.068-1.491-.112-3.072.15-4.5l-.068.084c-6.34-.183-12.13-2.54-16.594-6.953v.006Zm18.155 1.08.298.515-.068 3.783c1.097-.417 2.621-.383 3.634-.563-.596-.596-1.49-.534-1.727-1.426-.416-.596.183-1.229.15-1.727-.715-.349-1.77.068-2.287-.582Zm25.346 3.566c-3.431 2.242-6.39 6.058-9.506 8.494-1.727 1.31-3.783 1.693-5.808 2.29 4.48.331 8.198 2.438 12.881 2.137 5.012-.217 9.608-3.136 11.964-7.583-3.45 4.115-9.01 3.882-14.104 4.349-1.693.216-3.37.714-5.08.714.068-.068.113-.183.217-.15 5.56-.45 7.135-6.504 9.441-10.254l-.005.003Zm-51.759.349c2.29 2.689 2.391 6.244 5.578 8.446 1.229 1.08 2.868 1.277 4.232 1.842-1.527.15-2.919-.478-4.443-.562-5.128-.63-11.003.033-14.766-4.149 1.693 2.987 4.714 5.577 7.867 6.587 5.957 2.273 11.368-1.08 17.06-1.575-6.587-.298-10.173-7.518-15.516-10.586l-.012-.003Zm42.964 13.956c-5.09-2.323-11.002-4.928-16.976-2.723-3.004-.979-6.953-.979-9.956 0-5.246 2.39-12.412 5.99-17.955 1.991 1.046 1.246 2.174 1.843 3.37 2.723 3.582 2.323 8.746 2.09 12.43.216 3.375-1.425 5.99-5.692 10.322-4.348-3.667 1.843-7.037 4.05-10.074 7.22l1.842 1.575c2.66-3.521 6.317-6.474 10.17-8.201 3.75 1.828 7.186 4.944 10.024 8.08l1.842-1.575c-2.987-2.888-6.44-5.231-10.024-7.07.928-.234 2.059-.183 3.004-.085 3.881 1.693 6.854 5.09 11.25 5.608 4.646.748 8.795-1.125 11.666-4.528l-2.208 1.162c-2.587 1.144-6.089.843-8.73-.017l.003-.028Z"/></g><defs><clipPath id="a"><path fill="#fff" d="M0 0h90v90H0z"/></clipPath></defs></svg>