<svg xmlns="http://www.w3.org/2000/svg" width="80" height="64" fill="none"><path fill="#82948F" d="M54.337 8H43.6c-1 0-1.962.375-2.7 1.05L28.613 20.3c-.013.012-.026.037-.038.05-2.075 1.95-2.037 5.063-.262 7 1.587 1.737 4.924 2.2 7.012.337.012-.012.037-.012.05-.024l9.987-9.15c.813-.738 2.088-.688 2.825.124.75.813.688 2.075-.124 2.825L44.8 24.45 63 39.225c.362.3.688.625.987.962V16l-6.825-6.825A3.971 3.971 0 0 0 54.337 8ZM68 16.025v27.988c0 2.212 1.787 4 4 4h8V16.025H68Zm6 27.988c-1.1 0-2-.9-2-2s.9-2 2-2 2 .9 2 2-.9 2-2 2ZM0 48h8c2.213 0 4-1.788 4-4V16.025H0V48Zm6-7.987c1.1 0 2 .9 2 2s-.9 2-2 2-2-.9-2-2c0-1.113.9-2 2-2Zm54.487 2.325-18.662-15.15-3.75 3.437c-3.713 3.388-9.4 3.063-12.713-.55a9.004 9.004 0 0 1 .55-12.712L36.139 8H25.663a3.993 3.993 0 0 0-2.826 1.175L16 16v27.987h2.288L29.6 54.225c3.425 2.788 8.462 2.262 11.25-1.163l.025-.024 2.237 1.937c1.988 1.625 4.925 1.313 6.538-.675l3.925-4.825.675.55c1.712 1.388 4.237 1.138 5.625-.587l1.188-1.463a4.007 4.007 0 0 0-.576-5.638Z"/></svg>