<svg xmlns="http://www.w3.org/2000/svg" width="80" height="92" fill="none"><g clip-path="url(#a)"><path fill="#82948F" d="M77.857 85.714h-3.571V4.286A4.286 4.286 0 0 0 70 0H10a4.286 4.286 0 0 0-4.286 4.286v81.428H2.143c-1.184 0-2.143.96-2.143 2.143v3.572h80v-3.572c0-1.183-.96-2.143-2.143-2.143Zm-55-72.143c0-1.183.96-2.142 2.143-2.142h7.143c1.183 0 2.143.959 2.143 2.142v7.143c0 1.184-.96 2.143-2.143 2.143H25a2.143 2.143 0 0 1-2.143-2.143v-7.143Zm0 17.143c0-1.183.96-2.143 2.143-2.143h7.143c1.183 0 2.143.96 2.143 2.143v7.143c0 1.184-.96 2.143-2.143 2.143H25a2.143 2.143 0 0 1-2.143-2.143v-7.143Zm9.286 26.429H25A2.143 2.143 0 0 1 22.857 55v-7.143c0-1.183.96-2.143 2.143-2.143h7.143c1.183 0 2.143.96 2.143 2.143V55c0 1.183-.96 2.143-2.143 2.143Zm13.571 28.571H34.286v-15c0-1.183.96-2.143 2.143-2.143h7.142c1.184 0 2.143.96 2.143 2.143v15ZM57.143 55c0 1.183-.96 2.143-2.143 2.143h-7.143A2.143 2.143 0 0 1 45.714 55v-7.143c0-1.183.96-2.143 2.143-2.143H55c1.183 0 2.143.96 2.143 2.143V55Zm0-17.143c0 1.184-.96 2.143-2.143 2.143h-7.143a2.143 2.143 0 0 1-2.143-2.143v-7.143c0-1.183.96-2.143 2.143-2.143H55c1.183 0 2.143.96 2.143 2.143v7.143Zm0-17.143c0 1.184-.96 2.143-2.143 2.143h-7.143a2.143 2.143 0 0 1-2.143-2.143v-7.143c0-1.183.96-2.142 2.143-2.142H55c1.183 0 2.143.959 2.143 2.142v7.143Z"/></g><defs><clipPath id="a"><path fill="#fff" d="M0 0h80v91.429H0z"/></clipPath></defs></svg>