<svg xmlns="http://www.w3.org/2000/svg" width="80" height="80" fill="none"><g clip-path="url(#a)"><path fill="#9FABA8" d="M54.62 15.435C46.247 15.435 39.33 10 28.804 10c-3.899 0-7.392.685-10.632 1.877a8.74 8.74 0 0 0 .56-3.682C18.457 3.752 14.814.188 10.366.008A8.75 8.75 0 0 0 5 15.928V76.25A3.75 3.75 0 0 0 8.75 80h2.5A3.75 3.75 0 0 0 15 76.25V61.5c4.424-1.885 9.935-3.457 17.88-3.457 8.374 0 15.289 5.435 25.816 5.435 7.526 0 13.541-2.546 19.141-6.384A4.991 4.991 0 0 0 80 52.976V14.99c0-3.655-3.792-6.073-7.107-4.533-5.365 2.492-11.946 4.977-18.273 4.977Z"/></g><defs><clipPath id="a"><path fill="#fff" d="M0 0h80v80H0z"/></clipPath></defs></svg>