<svg width="382" height="315" viewBox="0 0 382 315" fill="none" xmlns="http://www.w3.org/2000/svg">
<g filter="url(#filter0_d_135_687)">
<path d="M290 176.719H352C351.589 161.73 350.685 151.201 349.422 147.518C349.404 147.426 349.386 147.338 349.369 147.255L330.428 145.676L327.797 138.31L344.108 128.313C341.214 117.528 335.69 107.005 330.428 98.8494L312.013 103.585L307.278 97.7971L319.379 83.0651C312.855 73.3841 302.016 63.0717 296.755 59.3886L281.497 69.9115L275.183 65.7024L280.971 48.3396C272.552 41.605 258.609 34.923 252.033 33.0815L239.931 47.2873L234.144 45.1828L233.091 26.7677C228.461 24.6632 209.678 22.2955 200.997 22.0324L194.683 39.3952L187.317 39.3952L181.529 22.0324C174.426 21.7694 158.116 23.0847 148.908 26.7677V45.7089L142.069 47.2874L129.967 33.0815C121.286 35.4491 106.554 43.6043 101.556 48.3396L106.817 65.7024L101.556 69.9115L85.2451 59.9148C75.564 67.0704 66.1285 78.3298 62.6209 83.0651L74.1961 97.271L70.5131 103.585L51.5719 99.3756C44.8372 108.425 39.9967 122.087 38.4183 127.787L54.2026 138.31L52.6242 145.676L32.8938 146.992C31.4206 149.517 30.3508 167.862 30 176.719L90 176.719C89.5 142.719 114.5 80.2187 189.5 76.7187C265 78.7187 291 143.219 290 176.719Z" fill="#151E1C"/>
<path d="M90 176.719C90 121.49 134.772 76.7187 190 76.7187C245.228 76.7187 290 121.49 290 176.719C290 231.947 245.228 276.719 190 276.719C134.772 276.719 90 231.947 90 176.719Z" fill="#E7F7F3"/>
</g>
<defs>
<filter id="filter0_d_135_687" x="0" y="0" width="382" height="314.719" filterUnits="userSpaceOnUse" color-interpolation-filters="sRGB">
<feFlood flood-opacity="0" result="BackgroundImageFix"/>
<feColorMatrix in="SourceAlpha" type="matrix" values="0 0 0 0 0 0 0 0 0 0 0 0 0 0 0 0 0 0 127 0" result="hardAlpha"/>
<feOffset dy="8"/>
<feGaussianBlur stdDeviation="15"/>
<feComposite in2="hardAlpha" operator="out"/>
<feColorMatrix type="matrix" values="0 0 0 0 0.223529 0 0 0 0 0.247059 0 0 0 0 0.262745 0 0 0 0.2 0"/>
<feBlend mode="normal" in2="BackgroundImageFix" result="effect1_dropShadow_135_687"/>
<feBlend mode="normal" in="SourceGraphic" in2="effect1_dropShadow_135_687" result="shape"/>
</filter>
</defs>
</svg>
