<svg xmlns="http://www.w3.org/2000/svg" width="300" height="72" fill="none"><path fill="#44BBA4" d="M68.6 31.742c.158.058.387.423.387 1.25 0 .829.086 5.133.086 7.203H.001L.05 32.98c.097-.557.146-1.075.381-1.238.186-.56.877-1.785 2.15-2.2.66-5.908 5.48-19.122 19.483-24.712 1.076 1.682 3.57 6.297 4.947 11.3-.373-3.177-1.377-10.066-2.409-12.205L26.236.863C26.408.575 26.873 0 27.355 0h13.72c.688 0 2.09.267 3.397 3.925-.817 2.415-2.064 8.651-2.408 12.205.831-2.717 2.984-8.781 4.946-11.3C52.37 6.8 63.783 14.5 66.536 29.542c.53.331 1.686 1.234 2.064 2.2Z"/><path fill="#21816E" d="m0 33.175.003 7.02h69.07v-6.329c0-1.595-.315-2.08-.473-2.124H.432c-.285.114-.445 1.202-.431 1.433Z"/><path fill="#393E41" fill-rule="evenodd" d="M30.235 42.927H4.742c-.215 1.8.208 4.441.446 5.537l3.527.26.402 1.384-2.947 1.86c.715 2.216 1.876 4.5 2.545 5.365l3.393-.865.804 1.125-2.188 2.682c.965 1.384 2.858 3.418 4.197 4.413l2.858-1.947 1.116.779-1.116 3.201c1.285 1.038 3.973 2.466 5.402 2.855l2.232-2.682 1.161.433.09 3.418c1.535.484 4.375.865 6.027.865l1.16-3.245h1.295l1.117 3.245c1.928 0 4.464-.346 6.072-.865V67.24l1.205-.346 2.232 2.682c2.858-1.038 4.703-2.336 5.269-2.855l-.982-3.201.982-.779 3.08 1.817c1.572-1.177 3.423-3.346 4.152-4.283l-2.187-2.682.714-1.125 3.527.779a18.835 18.835 0 0 0 2.5-5.278c-1.026-.62-3.062-1.878-2.99-1.947.07-.07.237-.894.312-1.298l3.616-.303c.214-.277.506-3.778.625-5.494H38.673c.268 0-.892 4.023-4.375 3.937-2.786-.07-3.87-2.654-4.063-3.937Zm-3.226 2.412H16.384c2.028 11.677 11.28 15.028 15.916 15.934V50.521c-3.183-.933-4.854-3.844-5.291-5.182Zm10.109 15.934V50.636c1.337-.438 4.244-2.11 5.176-5.297h10.74c-.906 4.64-4.253 13.903-15.916 15.934Z" clip-rule="evenodd"/><path fill="url(#a)" d="M103.501 54.596c.714 0 .714-.224.357-.715l-6.877-10.18c3.885-1.831 6.341-5.672 6.341-10.048 0-6.251-4.733-11.208-11.476-11.208h-8.484c-.625 0-.893.268-.893.893v30.365c0 .625.268.893.893.893h3.84c.626 0 .894-.268.894-.893v-8.886h3.482l5.671 9.02c.313.535.715.759 1.34.759h4.912ZM88.095 40.842V26.42h2.858c4.376.045 6.743 2.412 6.743 7.234 0 4.823-2.367 7.19-6.743 7.19h-2.858Z"/><path fill="url(#b)" d="M124.339 50.354c-.134-.179-.268-.358-1.161-.09-1.831.58-3.528 1.117-5.269 1.117-3.93 0-5.269-2.769-5.626-6.52h9.154c3.706 0 4.867-1.027 4.867-4.465 0-6.475-4.153-9.6-9.556-9.6-7.234 0-9.913 5.537-9.913 12.413 0 6.252 2.233 11.922 10.493 11.922 3.796 0 7.056-1.205 7.904-2.188.357-.401.313-.759.045-1.16l-.938-1.43Zm-12.056-9.244c.267-3.527 1.428-6.564 4.688-6.564 2.367 0 3.93 2.412 3.93 5.046 0 1.34-.358 1.518-1.742 1.518h-6.876Z"/><path fill="url(#c)" d="M150.891 54.596c.625 0 .893-.268.893-.893V22.445c0-.625-.268-.893-.893-.893h-3.572c-.625 0-.893.268-.893.893V34.1h-.09c-1.116-1.697-3.081-3.26-6.876-3.26-5.18 0-9.601 2.947-9.601 12.235 0 9.199 4.376 12.101 9.467 12.101 3.393 0 6.073-1.027 7.903-3.349h.09l.446 1.876c.134.625.268.893.893.893h2.233Zm-10.628-3.17c-3.259 0-5.045-1.608-5.045-8.35 0-6.967 1.92-8.485 5.001-8.485 3.929 0 6.207 2.411 6.207 8.484 0 5.939-2.188 8.35-6.163 8.35Z"/><path fill="url(#d)" d="M176.837 54.596c.625 0 .893-.268.893-.893V22.445c0-.625-.268-.893-.893-.893h-3.572c-.625 0-.893.268-.893.893V34.1h-.09c-1.116-1.697-3.081-3.26-6.876-3.26-5.18 0-9.601 2.947-9.601 12.235 0 9.199 4.376 12.101 9.467 12.101 3.393 0 6.073-1.027 7.903-3.349h.09l.446 1.876c.134.625.268.893.893.893h2.233Zm-10.627-3.17c-3.26 0-5.046-1.608-5.046-8.35 0-6.967 1.92-8.485 5.001-8.485 3.929 0 6.207 2.411 6.207 8.484 0 5.939-2.188 8.35-6.162 8.35Z"/><path fill="url(#e)" d="M186.663 26.91c.625 0 .893-.267.893-.893v-3.572c0-.625-.268-.893-.893-.893h-3.572c-.625 0-.893.268-.893.893v3.572c0 .626.268.894.893.894h3.572Zm0 27.686c.625 0 .893-.268.893-.893V32.269c0-.625-.268-.893-.893-.893h-3.572c-.625 0-.893.268-.893.893v21.434c0 .625.268.893.893.893h3.572Z"/><path fill="url(#f)" d="M210.63 54.596c.58 0 .848-.268.848-.893v-14.11c0-5.583-4.019-8.753-8.975-8.753-2.277 0-4.867 1.161-5.939 3.26h-.089l-.447-1.831c-.134-.625-.268-.893-.893-.893h-2.233c-.625 0-.893.268-.893.893v21.434c0 .625.268.893.893.893h3.573c.625 0 .893-.268.893-.893V41.557c0-4.6 1.518-6.966 4.688-6.966 3.081 0 4.064 3.081 4.064 6.52v12.592c0 .625.268.893.848.893h3.662Z"/><path fill="url(#g)" d="M232.069 53.747c0 4.064-2.143 6.832-5.358 6.832-2.59 0-6.341-.759-7.502-1.072-.446-.133-1.027-.267-1.161.09l-.714 1.875c-.268.67-.268.893.044 1.161 1.072.849 5.627 2.188 9.378 2.188 6.296 0 10.672-4.51 10.672-11.565V32.27c0-.625-.268-.893-.893-.893h-2.233c-.625 0-.759.268-.893.893l-.447 1.875h-.089c-1.831-2.321-4.51-3.349-7.904-3.349-5.09 0-9.466 2.903-9.466 12.102 0 9.287 4.421 12.235 9.6 12.235 3.796 0 5.761-1.563 6.877-3.26h.089v1.875Zm-6.206-2.366c-3.082 0-5.002-1.519-5.002-8.484 0-6.743 1.786-8.35 5.046-8.35 3.974 0 6.162 2.41 6.162 8.35 0 6.072-2.277 8.484-6.206 8.484Z"/><path fill="url(#h)" d="M251.139 54.596c.625 0 .893-.268.893-.893v-1.965c0-.625-.268-.893-.893-.893h-.313c-1.027 0-2.143-.893-2.143-3.081v-12.86h2.813c.625 0 .893-.268.893-.894V32.27c0-.625-.268-.893-.893-.893h-2.813v-4.778c0-.625-.313-1.116-.893-.893l-3.572 1.34c-.581.223-.894.267-.894.893v3.438h-2.322c-.625 0-.893.268-.893.893v1.742c0 .625.268.893.893.893h2.322V47.63c0 4.688 2.144 6.966 6.163 6.966h1.652Z"/><path fill="url(#i)" d="M265.686 55.132c8.573 0 10.806-5.493 10.806-12.146 0-6.609-2.233-12.19-10.806-12.19-8.573 0-10.806 5.581-10.806 12.235 0 6.653 2.233 12.1 10.806 12.1Zm0-4.02c-4.465 0-5.448-3.66-5.448-8.126 0-4.42.983-8.172 5.448-8.172 4.465 0 5.448 3.751 5.448 8.172 0 4.465-.983 8.127-5.448 8.127Z"/><path fill="url(#j)" d="M299.152 54.596c.58 0 .848-.268.848-.893v-14.11c0-5.583-4.019-8.753-8.975-8.753-2.278 0-4.868 1.161-5.939 3.26h-.09l-.446-1.831c-.134-.625-.268-.893-.893-.893h-2.233c-.625 0-.893.268-.893.893v21.434c0 .625.268.893.893.893h3.572c.626 0 .894-.268.894-.893V41.557c0-4.6 1.518-6.966 4.688-6.966 3.081 0 4.064 3.081 4.064 6.52v12.592c0 .625.268.893.848.893h3.662Z"/><path fill="#21816E" d="M85.511 64.773c-.036-.048-.073-.097-.317-.024-.5.159-.965.305-1.441.305-1.075 0-1.44-.757-1.538-1.782h2.502c1.014 0 1.331-.281 1.331-1.221 0-1.77-1.135-2.625-2.612-2.625-1.979 0-2.711 1.514-2.711 3.394 0 1.71.61 3.26 2.87 3.26 1.037 0 1.928-.33 2.16-.598.098-.11.086-.208.013-.318l-.257-.39Zm-3.296-2.527c.073-.965.39-1.795 1.281-1.795.648 0 1.075.66 1.075 1.38 0 .366-.098.415-.476.415h-1.88ZM92.234 65.933c.159 0 .232-.073.232-.244v-3.858c0-1.526-1.099-2.393-2.454-2.393-.623 0-1.33.317-1.624.891h-.024l-.122-.5c-.037-.172-.074-.245-.245-.245h-.61c-.171 0-.244.073-.244.244v5.861c0 .171.073.244.244.244h.977c.17 0 .244-.073.244-.244v-3.32c0-1.258.415-1.906 1.282-1.906.842 0 1.111.843 1.111 1.783v3.443c0 .171.073.244.232.244h1.001ZM98.097 65.701c0 1.112-.587 1.869-1.466 1.869-.708 0-1.733-.208-2.05-.293-.123-.037-.282-.074-.318.024l-.196.513c-.073.183-.073.244.013.317.293.232 1.538.599 2.564.599 1.721 0 2.918-1.234 2.918-3.163V59.83c0-.172-.073-.245-.244-.245h-.61c-.172 0-.209.073-.245.244l-.122.513h-.025c-.5-.635-1.233-.915-2.16-.915-1.393 0-2.59.793-2.59 3.308 0 2.54 1.21 3.346 2.626 3.346 1.038 0 1.575-.427 1.88-.891h.025v.512Zm-1.698-.647c-.842 0-1.367-.415-1.367-2.32 0-1.843.488-2.283 1.38-2.283 1.086 0 1.685.66 1.685 2.283 0 1.661-.623 2.32-1.698 2.32ZM105.507 64.773c-.036-.048-.073-.097-.317-.024-.501.159-.965.305-1.441.305-1.074 0-1.441-.757-1.538-1.782h2.503c1.013 0 1.33-.281 1.33-1.221 0-1.77-1.135-2.625-2.612-2.625-1.978 0-2.711 1.514-2.711 3.394 0 1.71.61 3.26 2.869 3.26 1.038 0 1.929-.33 2.161-.598.098-.11.086-.208.013-.318l-.257-.39Zm-3.296-2.527c.073-.965.39-1.795 1.282-1.795.647 0 1.074.66 1.074 1.38 0 .366-.098.415-.476.415h-1.88ZM112.23 65.933c.159 0 .232-.073.232-.244v-3.858c0-1.526-1.099-2.393-2.454-2.393-.623 0-1.331.317-1.624.891h-.024l-.122-.5c-.037-.172-.074-.245-.245-.245h-.61c-.171 0-.244.073-.244.244v5.861c0 .171.073.244.244.244h.977c.171 0 .244-.073.244-.244v-3.32c0-1.258.415-1.906 1.282-1.906.843 0 1.111.843 1.111 1.783v3.443c0 .171.073.244.232.244h1.001ZM118.947 65.933c.171 0 .245-.073.245-.244v-2.906c0-2.54-1.087-3.345-2.381-3.345-.904 0-1.38.427-1.636.891h-.025v-3.187c0-.17-.073-.244-.244-.244h-.977c-.171 0-.244.073-.244.244v8.547c0 .171.073.244.244.244h.977c.171 0 .244-.073.244-.244v-3.272c0-1.404.525-1.954 1.453-1.954.696 0 1.123.416 1.123 2.32v2.906c0 .171.074.244.245.244h.976ZM125.343 65.933c.171 0 .244-.073.244-.244v-3.003c0-1.746-.537-3.26-2.65-3.26-.976 0-1.868.33-2.112.598-.098.11-.085.207-.012.317l.256.391c.037.049.086.098.318.024.549-.17.989-.305 1.379-.305 1.014 0 1.27.916 1.331 1.429h-1.257c-1.392 0-2.552.415-2.552 1.99 0 1.502 1.062 2.21 2.295 2.21.818 0 1.441-.305 1.758-.891h.025l.122.5c.037.171.073.244.244.244h.611Zm-1.221-2.674c0 1.246-.452 1.795-1.197 1.795-.867 0-1.16-.732-1.16-1.22 0-.587.428-.929 1.075-.929h1.282v.355ZM127.903 65.933c.171 0 .244-.073.244-.244v-3.736c0-.77.403-1.184 1.16-1.184.232 0 .501.134.501-.183v-.916c0-.171-.049-.183-.22-.183-.525.012-1.136 0-1.661.805h-.024l-.122-.464c-.074-.158-.074-.244-.245-.244h-.61c-.171 0-.244.073-.244.244v5.861c0 .171.073.244.244.244h.977ZM131.873 58.363c.171 0 .245-.073.245-.244v-.977c0-.17-.074-.244-.245-.244h-.976c-.171 0-.245.073-.245.244v.977c0 .171.074.244.245.244h.976Zm0 7.57c.171 0 .245-.073.245-.244v-5.86c0-.172-.074-.245-.245-.245h-.976c-.171 0-.245.073-.245.244v5.861c0 .171.074.244.245.244h.976ZM138.268 65.933c.171 0 .244-.073.244-.244v-3.003c0-1.746-.537-3.26-2.649-3.26-.977 0-1.868.33-2.113.598-.097.11-.085.207-.012.317l.257.391c.036.049.085.098.317.024.549-.17.989-.305 1.38-.305 1.013 0 1.27.916 1.331 1.429h-1.258c-1.392 0-2.552.415-2.552 1.99 0 1.502 1.062 2.21 2.296 2.21.818 0 1.44-.305 1.758-.891h.024l.122.5c.037.171.074.244.245.244h.61Zm-1.221-2.674c0 1.246-.452 1.795-1.197 1.795-.866 0-1.159-.732-1.159-1.22 0-.587.427-.929 1.074-.929h1.282v.355ZM143.146 63.882c0 1.197.964 2.15 2.588 2.15.891 0 1.612-.33 2.564-1.136l.574.83c.098.146.208.207.379.207h1.367c.171 0 .208-.06.098-.195l-1.282-1.831 1.257-1.087c.122-.11.135-.22.037-.354l-.574-.745c-.098-.134-.207-.159-.33-.037l-1.184 1.087-1.087-1.673c.831-.537 1.71-1.306 1.71-2.405 0-.989-.953-1.66-2.369-1.66-1.282 0-2.186.671-2.186 1.733 0 .635.22 1.185.562 1.66l.305.355c-1.294.72-2.429 1.587-2.429 3.101Zm2.588.928c-.635 0-1.062-.464-1.062-.977 0-.793.598-1.343 1.648-1.965l1.221 1.916c-.623.55-1.257 1.026-1.807 1.026Zm.501-6.068c0-.44.329-.623.659-.623.525 0 .843.244.843.586 0 .525-.391.94-.928 1.343-.355-.513-.574-.916-.574-1.306ZM160.053 64.773c-.061-.085-.184-.073-.318-.024-.378.134-.745.305-1.221.305-1.184 0-1.538-1.062-1.538-2.295 0-1.197.342-2.308 1.55-2.308.538 0 .965.22 1.209.305.11.037.257.062.318-.024l.256-.39c.11-.16.073-.245-.012-.318-.244-.22-1.014-.598-1.832-.598-2.332 0-2.955 1.526-2.955 3.32 0 1.771.611 3.334 2.833 3.334 1.038 0 1.734-.342 1.954-.598.097-.11.085-.208.012-.318l-.256-.39ZM164.308 66.08c2.344 0 2.955-1.502 2.955-3.321 0-1.807-.611-3.333-2.955-3.333-2.344 0-2.955 1.526-2.955 3.345 0 1.82.611 3.309 2.955 3.309Zm0-1.099c-1.221 0-1.49-1.001-1.49-2.222 0-1.209.269-2.235 1.49-2.235s1.49 1.026 1.49 2.235c0 1.22-.269 2.222-1.49 2.222ZM173.459 65.933c.158 0 .232-.073.232-.244v-3.858c0-1.526-1.099-2.393-2.455-2.393-.622 0-1.33.317-1.623.891h-.025l-.122-.5c-.037-.172-.073-.245-.244-.245h-.611c-.171 0-.244.073-.244.244v5.861c0 .171.073.244.244.244h.977c.171 0 .244-.073.244-.244v-3.32c0-1.258.415-1.906 1.282-1.906.843 0 1.111.843 1.111 1.783v3.443c0 .171.074.244.232.244h1.002ZM177.258 63.48c.708.219.952.378.952.756 0 .391-.208.818-1.221.818-.598 0-1.087-.146-1.563-.305-.11-.037-.256-.061-.317.025l-.257.39c-.073.11-.073.196.012.318.232.317 1.173.598 2.198.598 1.343 0 2.54-.66 2.54-1.978 0-.952-.33-1.539-1.392-1.844l-1.429-.415c-.341-.098-.476-.317-.476-.598 0-.476.305-.794 1.026-.794.525 0 .977.147 1.416.305.11.037.269.086.318-.024l.256-.39c.122-.184.049-.27 0-.318-.269-.269-1.087-.598-2.124-.598-1.49 0-2.284.842-2.284 1.965 0 .806.379 1.49 1.295 1.77l1.05.318ZM183.295 65.933c.171 0 .244-.073.244-.244v-.537c0-.17-.073-.244-.244-.244h-.085c-.281 0-.586-.244-.586-.843V60.55h.769c.171 0 .244-.073.244-.244v-.477c0-.17-.073-.244-.244-.244h-.769v-1.306c0-.171-.086-.305-.244-.244l-.977.366c-.159.061-.244.073-.244.244v.94h-.635c-.171 0-.245.073-.245.244v.477c0 .17.074.244.245.244h.635v3.48c0 1.282.586 1.904 1.685 1.904h.451ZM185.84 65.933c.171 0 .244-.073.244-.244v-3.736c0-.77.403-1.184 1.16-1.184.232 0 .501.134.501-.183v-.916c0-.171-.049-.183-.22-.183-.525.012-1.135 0-1.66.805h-.025l-.122-.464c-.073-.158-.073-.244-.244-.244h-.611c-.171 0-.244.073-.244.244v5.861c0 .171.073.244.244.244h.977ZM193.669 65.933c.171 0 .244-.073.244-.244v-5.86c0-.172-.073-.245-.244-.245h-.977c-.171 0-.244.073-.244.244v3.322c0 1.257-.415 1.904-1.282 1.904-.842 0-1.111-.842-1.111-1.782v-3.444c0-.17-.073-.244-.232-.244h-1.001c-.159 0-.232.073-.232.244v3.859c0 1.526 1.099 2.393 2.454 2.393.623 0 1.331-.317 1.624-.891h.024l.122.5c.037.171.074.244.245.244h.61ZM197.358 66.788c-.037.159-.012.33.159.342.403.037.574.049.574.293 0 .269-.244.464-.782.464h-.256v-.012c-.171-.012-.244.06-.257.232l-.012.22c-.012.17.049.256.22.268-.037.025.208.049.501.049.867 0 1.416-.5 1.416-1.136 0-.476-.305-.842-.855-.915l.135-.525c.842-.073 1.404-.354 1.599-.586.098-.11.086-.208.012-.318l-.256-.39c-.061-.086-.183-.074-.318-.025-.378.134-.744.305-1.221.305-1.184 0-1.538-1.062-1.538-2.295 0-1.197.342-2.308 1.551-2.308.537 0 .964.22 1.208.305.11.037.257.062.318-.024l.256-.39c.11-.16.074-.245-.012-.318-.244-.22-1.013-.598-1.831-.598-2.332 0-2.955 1.526-2.955 3.32 0 1.686.549 3.187 2.515 3.322l-.171.72ZM205.911 65.933c.171 0 .245-.073.245-.244v-3.003c0-1.746-.538-3.26-2.65-3.26-.977 0-1.868.33-2.112.598-.098.11-.086.207-.013.317l.257.391c.037.049.085.098.317.024.55-.17.989-.305 1.38-.305 1.013 0 1.27.916 1.331 1.429h-1.258c-1.392 0-2.552.415-2.552 1.99 0 1.502 1.063 2.21 2.296 2.21.818 0 1.441-.305 1.758-.891h.025l.122.5c.036.171.073.244.244.244h.61Zm-1.221-2.674c0 1.246-.451 1.795-1.196 1.795-.867 0-1.16-.732-1.16-1.22 0-.587.427-.929 1.074-.929h1.282v.355Zm-2.344-4.761c.269 0 .256-.403.513-.403.098 0 .464.17.879.33.122.048.269.097.415.097.757 0 1.05-.55 1.062-1.209 0-.097-.085-.195-.183-.195h-.366c-.354 0-.244.403-.513.403-.024 0-.098-.025-.488-.196-.257-.11-.538-.232-.806-.232-.757 0-1.05.55-1.075 1.21 0 .097.086.195.196.195h.366ZM210.083 66.08c2.344 0 2.955-1.502 2.955-3.321 0-1.807-.611-3.333-2.955-3.333-2.344 0-2.955 1.526-2.955 3.345 0 1.82.611 3.309 2.955 3.309Zm0-1.099c-1.221 0-1.489-1.001-1.489-2.222 0-1.209.268-2.235 1.489-2.235s1.49 1.026 1.49 2.235c0 1.22-.269 2.222-1.49 2.222Z"/><defs><linearGradient id="a" x1="150" x2="150" y1="0" y2="71.61" gradientUnits="userSpaceOnUse"><stop stop-color="#44BBA4"/><stop offset="1" stop-color="#21816E"/></linearGradient><linearGradient id="b" x1="150" x2="150" y1="0" y2="71.61" gradientUnits="userSpaceOnUse"><stop stop-color="#44BBA4"/><stop offset="1" stop-color="#21816E"/></linearGradient><linearGradient id="c" x1="150" x2="150" y1="0" y2="71.61" gradientUnits="userSpaceOnUse"><stop stop-color="#44BBA4"/><stop offset="1" stop-color="#21816E"/></linearGradient><linearGradient id="d" x1="150" x2="150" y1="0" y2="71.61" gradientUnits="userSpaceOnUse"><stop stop-color="#44BBA4"/><stop offset="1" stop-color="#21816E"/></linearGradient><linearGradient id="e" x1="150" x2="150" y1="0" y2="71.61" gradientUnits="userSpaceOnUse"><stop stop-color="#44BBA4"/><stop offset="1" stop-color="#21816E"/></linearGradient><linearGradient id="f" x1="150" x2="150" y1="0" y2="71.61" gradientUnits="userSpaceOnUse"><stop stop-color="#44BBA4"/><stop offset="1" stop-color="#21816E"/></linearGradient><linearGradient id="g" x1="150" x2="150" y1="0" y2="71.61" gradientUnits="userSpaceOnUse"><stop stop-color="#44BBA4"/><stop offset="1" stop-color="#21816E"/></linearGradient><linearGradient id="h" x1="150" x2="150" y1="0" y2="71.61" gradientUnits="userSpaceOnUse"><stop stop-color="#44BBA4"/><stop offset="1" stop-color="#21816E"/></linearGradient><linearGradient id="i" x1="150" x2="150" y1="0" y2="71.61" gradientUnits="userSpaceOnUse"><stop stop-color="#44BBA4"/><stop offset="1" stop-color="#21816E"/></linearGradient><linearGradient id="j" x1="150" x2="150" y1="0" y2="71.61" gradientUnits="userSpaceOnUse"><stop stop-color="#44BBA4"/><stop offset="1" stop-color="#21816E"/></linearGradient></defs></svg>